<?xml version="1.0" encoding="UTF-8"?>
<!DOCTYPE svg PUBLIC "-//W3C//DTD SVG 1.1//EN" "http://www.w3.org/Graphics/SVG/1.1/DTD/svg11.dtd">
<svg xmlns="http://www.w3.org/2000/svg" version="1.1" width="245px" height="256px" style="shape-rendering:geometricPrecision; text-rendering:geometricPrecision; image-rendering:optimizeQuality; fill-rule:evenodd; clip-rule:evenodd" xmlns:xlink="http://www.w3.org/1999/xlink">
<g><path style="opacity:1" fill="#11499f" d="M 36.5,-0.5 C 105.5,-0.5 174.5,-0.5 243.5,-0.5C 243.5,39.1667 243.5,78.8333 243.5,118.5C 226.167,118.5 208.833,118.5 191.5,118.5C 190.945,110.178 190.612,101.844 190.5,93.5C 193.167,93.5 195.833,93.5 198.5,93.5C 198.5,91.5 198.5,89.5 198.5,87.5C 186.814,87.1678 175.148,87.5011 163.5,88.5C 155.936,108.712 147.936,128.712 139.5,148.5C 130.729,128.624 122.229,108.624 114,88.5C 102.247,87.5118 90.4139,87.1785 78.5,87.5C 78.5,89.5 78.5,91.5 78.5,93.5C 81.8499,93.335 85.1832,93.5017 88.5,94C 89.3333,94.8333 90.1667,95.6667 91,96.5C 91.4997,103.826 91.6663,111.159 91.5,118.5C 73.1667,118.5 54.8333,118.5 36.5,118.5C 36.5,78.8333 36.5,39.1667 36.5,-0.5 Z"/></g>
<g><path style="opacity:1" fill="#f8f9fc" d="M 243.5,-0.5 C 243.833,-0.5 244.167,-0.5 244.5,-0.5C 244.5,39.8333 244.5,80.1667 244.5,120.5C 226.659,120.17 208.992,120.503 191.5,121.5C 192.992,141.176 194.659,160.842 196.5,180.5C 199.833,180.5 203.167,180.5 206.5,180.5C 206.5,182.5 206.5,184.5 206.5,186.5C 191.833,186.5 177.167,186.5 162.5,186.5C 162.5,184.5 162.5,182.5 162.5,180.5C 165.167,180.5 167.833,180.5 170.5,180.5C 169.519,156.766 167.686,133.1 165,109.5C 154.982,134.197 144.982,158.863 135,183.5C 134.612,184.428 133.945,185.095 133,185.5C 131.145,184.337 129.811,182.67 129,180.5C 119.925,158.687 110.591,137.02 101,115.5C 98.8124,134.958 96.979,154.458 95.5,174C 95.5798,175.894 95.9131,177.727 96.5,179.5C 99.4281,180.484 102.428,180.817 105.5,180.5C 105.5,182.5 105.5,184.5 105.5,186.5C 96.1667,186.5 86.8333,186.5 77.5,186.5C 77.5,184.5 77.5,182.5 77.5,180.5C 80.4475,180.777 83.2809,180.444 86,179.5C 87.3503,159.815 88.8503,140.148 90.5,120.5C 72.5,120.5 54.5,120.5 36.5,120.5C 36.5,119.833 36.5,119.167 36.5,118.5C 54.8333,118.5 73.1667,118.5 91.5,118.5C 91.6663,111.159 91.4997,103.826 91,96.5C 90.1667,95.6667 89.3333,94.8333 88.5,94C 85.1832,93.5017 81.8499,93.335 78.5,93.5C 78.5,91.5 78.5,89.5 78.5,87.5C 90.4139,87.1785 102.247,87.5118 114,88.5C 122.229,108.624 130.729,128.624 139.5,148.5C 147.936,128.712 155.936,108.712 163.5,88.5C 175.148,87.5011 186.814,87.1678 198.5,87.5C 198.5,89.5 198.5,91.5 198.5,93.5C 195.833,93.5 193.167,93.5 190.5,93.5C 190.612,101.844 190.945,110.178 191.5,118.5C 208.833,118.5 226.167,118.5 243.5,118.5C 243.5,78.8333 243.5,39.1667 243.5,-0.5 Z"/></g>
<g><path style="opacity:0.802" fill="#fefefe" d="M 0.5,103.5 C 1.83333,103.5 3.16667,103.5 4.5,103.5C 4.5,104.833 4.5,106.167 4.5,107.5C 3.16667,107.5 1.83333,107.5 0.5,107.5C 0.5,106.167 0.5,104.833 0.5,103.5 Z"/></g>
<g><path style="opacity:1" fill="#144a9f" d="M 191.5,121.5 C 208.833,121.5 226.167,121.5 243.5,121.5C 243.5,149.833 243.5,178.167 243.5,206.5C 174.5,206.5 105.5,206.5 36.5,206.5C 36.5,177.833 36.5,149.167 36.5,120.5C 54.5,120.5 72.5,120.5 90.5,120.5C 88.8503,140.148 87.3503,159.815 86,179.5C 83.2809,180.444 80.4475,180.777 77.5,180.5C 77.5,182.5 77.5,184.5 77.5,186.5C 86.8333,186.5 96.1667,186.5 105.5,186.5C 105.5,184.5 105.5,182.5 105.5,180.5C 102.428,180.817 99.4281,180.484 96.5,179.5C 95.9131,177.727 95.5798,175.894 95.5,174C 96.979,154.458 98.8124,134.958 101,115.5C 110.591,137.02 119.925,158.687 129,180.5C 129.811,182.67 131.145,184.337 133,185.5C 133.945,185.095 134.612,184.428 135,183.5C 144.982,158.863 154.982,134.197 165,109.5C 167.686,133.1 169.519,156.766 170.5,180.5C 167.833,180.5 165.167,180.5 162.5,180.5C 162.5,182.5 162.5,184.5 162.5,186.5C 177.167,186.5 191.833,186.5 206.5,186.5C 206.5,184.5 206.5,182.5 206.5,180.5C 203.167,180.5 199.833,180.5 196.5,180.5C 194.659,160.842 192.992,141.176 191.5,121.5 Z"/></g>
<g><path style="opacity:1" fill="#8aa5ce" d="M 191.5,121.5 C 208.992,120.503 226.659,120.17 244.5,120.5C 244.5,149.167 244.5,177.833 244.5,206.5C 244.167,206.5 243.833,206.5 243.5,206.5C 243.5,178.167 243.5,149.833 243.5,121.5C 226.167,121.5 208.833,121.5 191.5,121.5 Z"/></g>
<g><path style="opacity:1" fill="#cbd0d7" d="M 36.5,206.5 C 105.5,206.5 174.5,206.5 243.5,206.5C 243.833,206.5 244.167,206.5 244.5,206.5C 244.5,222.833 244.5,239.167 244.5,255.5C 244.167,255.5 243.833,255.5 243.5,255.5C 243.5,240.5 243.5,225.5 243.5,210.5C 174.5,210.5 105.5,210.5 36.5,210.5C 36.5,209.167 36.5,207.833 36.5,206.5 Z"/></g>
<g><path style="opacity:1" fill="#0c1a24" d="M 36.5,210.5 C 105.5,210.5 174.5,210.5 243.5,210.5C 243.5,225.5 243.5,240.5 243.5,255.5C 174.5,255.5 105.5,255.5 36.5,255.5C 36.5,240.5 36.5,225.5 36.5,210.5 Z"/></g>
<g><path style="opacity:1" fill="#f5f6f6" d="M 64.5,236.5 C 65.6484,232.019 65.8151,227.352 65,222.5C 63.8118,223.563 63.3118,224.897 63.5,226.5C 62.117,231.415 61.117,236.415 60.5,241.5C 58.8008,241.66 57.1341,241.494 55.5,241C 54.7476,240.329 54.4142,239.496 54.5,238.5C 53.6535,233.112 52.4868,227.779 51,222.5C 50.8333,224.833 50.6667,227.167 50.5,229.5C 50.5286,232.269 51.1952,234.603 52.5,236.5C 52.5,238.167 52.5,239.833 52.5,241.5C 49.5,241.5 46.5,241.5 43.5,241.5C 44.3809,237.4 45.0475,233.233 45.5,229C 45.0475,224.767 44.3809,220.6 43.5,216.5C 47.5138,216.334 51.5138,216.501 55.5,217C 56.8851,220.679 57.7184,224.512 58,228.5C 59.0756,224.678 60.2422,220.844 61.5,217C 65.4862,216.501 69.4862,216.334 73.5,216.5C 73.5,218.167 73.5,219.833 73.5,221.5C 72.5,221.5 71.5,221.5 70.5,221.5C 70.5,226.5 70.5,231.5 70.5,236.5C 71.5,236.5 72.5,236.5 73.5,236.5C 73.5,238.167 73.5,239.833 73.5,241.5C 70.1667,241.5 66.8333,241.5 63.5,241.5C 63.2155,239.585 63.5489,237.919 64.5,236.5 Z"/></g>
<g><path style="opacity:1" fill="#f9f9fa" d="M 169.5,216.5 C 172.167,216.5 174.833,216.5 177.5,216.5C 177.179,224.945 177.845,233.279 179.5,241.5C 176.167,241.5 172.833,241.5 169.5,241.5C 170.381,237.4 171.048,233.233 171.5,229C 171.048,224.767 170.381,220.6 169.5,216.5 Z"/></g>
<g><path style="opacity:1" fill="#f9f9f9" d="M 180.5,216.5 C 183.167,216.5 185.833,216.5 188.5,216.5C 188.179,224.945 188.845,233.279 190.5,241.5C 187.167,241.5 183.833,241.5 180.5,241.5C 181.381,237.4 182.048,233.233 182.5,229C 182.048,224.767 181.381,220.6 180.5,216.5 Z"/></g>
<g><path style="opacity:1" fill="#f9fafa" d="M 193.5,216.5 C 195.833,216.5 198.167,216.5 200.5,216.5C 200.5,217.833 200.5,219.167 200.5,220.5C 198.167,220.5 195.833,220.5 193.5,220.5C 193.5,219.167 193.5,217.833 193.5,216.5 Z"/></g>
<g><path style="opacity:1" fill="#f6f6f7" d="M 118.5,218.5 C 118.833,218.5 119.167,218.5 119.5,218.5C 120.833,218.5 122.167,218.5 123.5,218.5C 123.5,220.167 123.5,221.833 123.5,223.5C 124.5,223.5 125.5,223.5 126.5,223.5C 126.635,225.554 125.968,227.221 124.5,228.5C 124.458,232.969 125.125,237.302 126.5,241.5C 123.751,241.726 121.084,241.393 118.5,240.5C 117.509,236.555 117.176,232.555 117.5,228.5C 117.018,227.584 116.685,226.584 116.5,225.5C 117.894,223.354 118.56,221.021 118.5,218.5 Z"/></g>
<g><path style="opacity:1" fill="#969da1" d="M 193.5,216.5 C 193.5,217.833 193.5,219.167 193.5,220.5C 195.833,220.5 198.167,220.5 200.5,220.5C 198.052,221.473 195.385,221.806 192.5,221.5C 192.216,219.585 192.549,217.919 193.5,216.5 Z"/></g>
<g><path style="opacity:1" fill="#eeeff0" d="M 80.5,222.5 C 91.8348,222.344 95.6681,227.677 92,238.5C 85.5131,244.199 79.8464,243.532 75,236.5C 73.0248,230.177 74.8582,225.51 80.5,222.5 Z"/></g>
<g><path style="opacity:1" fill="#f5f5f6" d="M 105.5,222.5 C 108.365,222.055 110.865,222.722 113,224.5C 113.405,230.26 114.238,235.926 115.5,241.5C 112.833,241.5 110.167,241.5 107.5,241.5C 107.666,237.486 107.499,233.486 107,229.5C 104.106,228.385 102.939,229.552 103.5,233C 104.031,235.817 104.364,238.65 104.5,241.5C 101.5,241.5 98.5,241.5 95.5,241.5C 96.8333,235.5 96.8333,229.5 95.5,223.5C 98.3938,223.042 100.894,223.709 103,225.5C 104.045,224.627 104.878,223.627 105.5,222.5 Z"/></g>
<g><path style="opacity:1" fill="#6a7379" d="M 119.5,218.5 C 120.919,217.549 122.585,217.216 124.5,217.5C 124.5,219.167 124.5,220.833 124.5,222.5C 128.371,222.185 132.038,222.518 135.5,223.5C 133.167,223.5 130.833,223.5 128.5,223.5C 128.5,225.167 128.5,226.833 128.5,228.5C 127.167,228.5 125.833,228.5 124.5,228.5C 125.968,227.221 126.635,225.554 126.5,223.5C 125.5,223.5 124.5,223.5 123.5,223.5C 123.5,221.833 123.5,220.167 123.5,218.5C 122.167,218.5 120.833,218.5 119.5,218.5 Z"/></g>
<g><path style="opacity:1" fill="#f2f2f3" d="M 137.5,243.5 C 137.5,245.167 137.5,246.833 137.5,248.5C 134.5,248.5 131.5,248.5 128.5,248.5C 129.632,241.679 129.632,235.012 128.5,228.5C 128.5,226.833 128.5,225.167 128.5,223.5C 130.833,223.5 133.167,223.5 135.5,223.5C 135.56,224.043 135.893,224.376 136.5,224.5C 143.681,221.095 147.681,223.428 148.5,231.5C 148.479,239.708 144.645,242.708 137,240.5C 136.26,241.749 136.427,242.749 137.5,243.5 Z"/></g>
<g><path style="opacity:1" fill="#f3f4f4" d="M 167.5,228.5 C 167.5,230.167 167.5,231.833 167.5,233.5C 163.774,233.177 160.107,233.511 156.5,234.5C 156.865,235.902 157.699,236.902 159,237.5C 161.755,235.452 164.589,235.118 167.5,236.5C 166.977,238.708 165.644,240.208 163.5,241C 151.459,242.269 147.626,237.102 152,225.5C 158.375,220.812 163.542,221.812 167.5,228.5 Z"/></g>
<g><path style="opacity:1" fill="#fafbfb" d="M 192.5,223.5 C 195.167,223.5 197.833,223.5 200.5,223.5C 200.425,229.529 200.759,235.529 201.5,241.5C 198.5,241.5 195.5,241.5 192.5,241.5C 192.216,239.585 192.549,237.919 193.5,236.5C 194.158,235.207 194.492,233.707 194.5,232C 193.896,229.113 193.229,226.28 192.5,223.5 Z"/></g>
<g><path style="opacity:1" fill="#f3f4f4" d="M 208.5,222.5 C 216.859,221.531 221.192,225.198 221.5,233.5C 217.833,233.5 214.167,233.5 210.5,233.5C 210.5,234.833 210.5,236.167 210.5,237.5C 213.587,235.983 216.921,235.316 220.5,235.5C 220.548,238.292 219.215,240.125 216.5,241C 205.886,242.715 201.72,238.215 204,227.5C 205.707,225.963 207.207,224.296 208.5,222.5 Z"/></g>
<g><path style="opacity:1" fill="#f5f5f6" d="M 232.5,222.5 C 233.833,222.5 235.167,222.5 236.5,222.5C 236.5,224.5 236.5,226.5 236.5,228.5C 234.61,228.297 233.11,228.963 232,230.5C 231.957,234.217 232.457,237.884 233.5,241.5C 230.167,241.5 226.833,241.5 223.5,241.5C 224.833,235.5 224.833,229.5 223.5,223.5C 226.119,223.232 228.619,223.565 231,224.5C 231.717,223.956 232.217,223.289 232.5,222.5 Z"/></g>
<g><path style="opacity:1" fill="#8f969b" d="M 118.5,218.5 C 118.56,221.021 117.894,223.354 116.5,225.5C 116.685,226.584 117.018,227.584 117.5,228.5C 116.307,228.03 115.64,227.03 115.5,225.5C 116.279,222.956 117.279,220.622 118.5,218.5 Z"/></g>
<g><path style="opacity:1" fill="#9fa5a9" d="M 64.5,236.5 C 64.8128,232.958 64.4794,229.625 63.5,226.5C 63.3118,224.897 63.8118,223.563 65,222.5C 65.8151,227.352 65.6484,232.019 64.5,236.5 Z"/></g>
<g><path style="opacity:1" fill="#16232d" d="M 82.5,227.5 C 83.8221,227.33 84.9887,227.663 86,228.5C 86.6667,230.833 86.6667,233.167 86,235.5C 84.6667,236.833 83.3333,236.833 82,235.5C 81.2782,232.739 81.4448,230.073 82.5,227.5 Z"/></g>
<g><path style="opacity:1" fill="#1b2831" d="M 137.5,227.5 C 140.309,227.588 141.642,229.088 141.5,232C 141.534,235.581 140.034,236.748 137,235.5C 136.278,232.739 136.445,230.073 137.5,227.5 Z"/></g>
<g><path style="opacity:1" fill="#b1b6b9" d="M 192.5,223.5 C 193.229,226.28 193.896,229.113 194.5,232C 194.492,233.707 194.158,235.207 193.5,236.5C 193.71,232.839 193.044,229.339 191.5,226C 191.528,224.93 191.861,224.097 192.5,223.5 Z"/></g>
<g><path style="opacity:1" fill="#2d3942" d="M 210.5,227.5 C 211.833,227.5 213.167,227.5 214.5,227.5C 214.5,228.5 214.5,229.5 214.5,230.5C 213.167,230.5 211.833,230.5 210.5,230.5C 210.5,229.5 210.5,228.5 210.5,227.5 Z"/></g>
<g><path style="opacity:1" fill="#455058" d="M 157.5,227.5 C 159.346,227.222 160.68,227.889 161.5,229.5C 160.311,230.429 158.978,230.762 157.5,230.5C 157.5,229.5 157.5,228.5 157.5,227.5 Z"/></g>
<g><path style="opacity:1" fill="#2d3942" d="M 54.5,238.5 C 53.8333,237.833 53.1667,237.167 52.5,236.5C 51.1952,234.603 50.5286,232.269 50.5,229.5C 50.6667,227.167 50.8333,224.833 51,222.5C 52.4868,227.779 53.6535,233.112 54.5,238.5 Z"/></g>
<g><path style="opacity:1" fill="#2e3a43" d="M 167.5,228.5 C 168.833,231.167 168.833,233.833 167.5,236.5C 164.589,235.118 161.755,235.452 159,237.5C 157.699,236.902 156.865,235.902 156.5,234.5C 160.107,233.511 163.774,233.177 167.5,233.5C 167.5,231.833 167.5,230.167 167.5,228.5 Z"/></g>
<g><path style="opacity:1" fill="#525c63" d="M 137.5,243.5 C 138.461,245.265 138.795,247.265 138.5,249.5C 134.958,249.813 131.625,249.479 128.5,248.5C 131.5,248.5 134.5,248.5 137.5,248.5C 137.5,246.833 137.5,245.167 137.5,243.5 Z"/></g>
</svg>
