<?xml version="1.0" encoding="UTF-8"?>
<!DOCTYPE svg PUBLIC "-//W3C//DTD SVG 1.1//EN" "http://www.w3.org/Graphics/SVG/1.1/DTD/svg11.dtd">
<svg xmlns="http://www.w3.org/2000/svg" version="1.1" width="299px" height="304px" style="shape-rendering:geometricPrecision; text-rendering:geometricPrecision; image-rendering:optimizeQuality; fill-rule:evenodd; clip-rule:evenodd" xmlns:xlink="http://www.w3.org/1999/xlink">
<g><path style="opacity:1" fill="#fdfdfd" d="M -0.5,-0.5 C 99.1667,-0.5 198.833,-0.5 298.5,-0.5C 298.5,100.833 298.5,202.167 298.5,303.5C 198.833,303.5 99.1667,303.5 -0.5,303.5C -0.5,202.167 -0.5,100.833 -0.5,-0.5 Z"/></g>
<g><path style="opacity:1" fill="#feefed" d="M 238.5,26.5 C 232.536,25.6932 226.536,25.3599 220.5,25.5C 213.679,24.3454 206.679,24.1787 199.5,25C 198.263,25.2321 197.263,25.7321 196.5,26.5C 189.38,26.7425 182.38,27.7425 175.5,29.5C 174.833,29.5 174.167,29.5 173.5,29.5C 174.058,28.2101 175.058,27.3768 176.5,27C 190.798,22.722 205.465,21.3887 220.5,23C 224.5,23.3333 228.5,23.6667 232.5,24C 234.723,24.5662 236.723,25.3995 238.5,26.5 Z"/></g>
<g><path style="opacity:1" fill="#fbb3b4" d="M 220.5,25.5 C 213.646,25.176 206.979,25.5093 200.5,26.5C 199.5,26.5 198.5,26.5 197.5,26.5C 197.167,26.5 196.833,26.5 196.5,26.5C 197.263,25.7321 198.263,25.2321 199.5,25C 206.679,24.1787 213.679,24.3454 220.5,25.5 Z"/></g>
<g><path style="opacity:1" fill="#e25d5e" d="M 200.5,26.5 C 206.979,25.5093 213.646,25.176 220.5,25.5C 224.833,26.1667 229.167,26.8333 233.5,27.5C 222.507,26.9916 211.507,26.6583 200.5,26.5 Z"/></g>
<g><path style="opacity:1" fill="#fbaeab" d="M 220.5,25.5 C 226.536,25.3599 232.536,25.6932 238.5,26.5C 239.5,27.1667 240.5,27.8333 241.5,28.5C 238.763,28.5987 236.096,28.2653 233.5,27.5C 229.167,26.8333 224.833,26.1667 220.5,25.5 Z"/></g>
<g><path style="opacity:1" fill="#dc5f5c" d="M 196.5,26.5 C 196.833,26.5 197.167,26.5 197.5,26.5C 195.167,27.1667 192.833,27.8333 190.5,28.5C 190.167,28.5 189.833,28.5 189.5,28.5C 184.833,29.1667 180.167,29.8333 175.5,30.5C 175.5,30.1667 175.5,29.8333 175.5,29.5C 182.38,27.7425 189.38,26.7425 196.5,26.5 Z"/></g>
<g><path style="opacity:1" fill="#d21c18" d="M 197.5,26.5 C 198.5,26.5 199.5,26.5 200.5,26.5C 211.507,26.6583 222.507,26.9916 233.5,27.5C 236.096,28.2653 238.763,28.5987 241.5,28.5C 244.833,28.5 246.5,30.1667 246.5,33.5C 247.167,37.1667 247.833,40.8333 248.5,44.5C 246.651,40.1403 244.984,35.6403 243.5,31C 225.916,28.7411 208.249,27.9078 190.5,28.5C 192.833,27.8333 195.167,27.1667 197.5,26.5 Z"/></g>
<g><path style="opacity:1" fill="#f18e8b" d="M 171.5,29.5 C 172.167,29.5 172.833,29.5 173.5,29.5C 174.167,29.5 174.833,29.5 175.5,29.5C 175.5,29.8333 175.5,30.1667 175.5,30.5C 171.884,30.8993 168.55,31.8993 165.5,33.5C 165.167,33.5 164.833,33.5 164.5,33.5C 162.435,33.5172 160.435,33.8505 158.5,34.5C 158.611,33.8826 158.944,33.3826 159.5,33C 163.756,32.2991 167.756,31.1324 171.5,29.5 Z"/></g>
<g><path style="opacity:1" fill="#fc0100" d="M 240.5,179.5 C 239.1,180.1 238.1,181.1 237.5,182.5C 236.395,183.6 235.062,184.267 233.5,184.5C 228.819,184.89 225.152,186.89 222.5,190.5C 222.167,190.5 221.833,190.5 221.5,190.5C 211.174,191.793 200.841,191.793 190.5,190.5C 184.308,190.472 178.308,191.472 172.5,193.5C 168.698,192.88 165.365,193.714 162.5,196C 161.207,196.49 159.873,196.657 158.5,196.5C 158.441,193.31 158.107,190.143 157.5,187C 157.833,185.833 158.167,184.667 158.5,183.5C 160.589,184.803 162.256,184.303 163.5,182C 160.21,177.295 161.21,175.462 166.5,176.5C 166.291,177.086 165.957,177.586 165.5,178C 170.226,178.963 171.226,177.63 168.5,174C 171.244,173.372 173.244,174.372 174.5,177C 176.108,177.658 177.275,177.158 178,175.5C 178.308,176.308 178.808,176.975 179.5,177.5C 180.167,176.167 180.833,174.833 181.5,173.5C 184.028,174.498 184.028,175.331 181.5,176C 182.667,176.5 183.5,177.333 184,178.5C 185.333,177.167 186.667,177.167 188,178.5C 188.092,173.684 188.258,169.018 188.5,164.5C 187.448,164.649 186.448,164.483 185.5,164C 186.687,162.981 187.687,161.814 188.5,160.5C 186.234,159.686 183.9,159.186 181.5,159C 181.043,158.586 180.709,158.086 180.5,157.5C 175.376,156.777 170.376,156.444 165.5,156.5C 165.66,154.801 165.494,153.134 165,151.5C 164.667,151.833 164.333,152.167 164,152.5C 163.362,151.391 162.862,150.225 162.5,149C 164.459,146.706 164.793,144.206 163.5,141.5C 162.833,142.167 162.167,142.833 161.5,143.5C 158.311,134.397 161.311,130.897 170.5,133C 171.23,136.198 173.23,137.698 176.5,137.5C 178.059,140.096 179.726,142.763 181.5,145.5C 183.173,147.086 185.173,147.753 187.5,147.5C 187.5,149.167 187.5,150.833 187.5,152.5C 190.36,152.084 192.526,153.084 194,155.5C 194.945,155.095 195.612,154.428 196,153.5C 197.789,155.229 199.956,155.896 202.5,155.5C 202.201,153.027 201.201,150.86 199.5,149C 202.705,145.086 204.705,140.586 205.5,135.5C 203.856,135.286 202.356,135.62 201,136.5C 200.02,134.941 199.187,133.274 198.5,131.5C 197.391,132.59 196.391,132.59 195.5,131.5C 196.693,127.409 198.359,123.575 200.5,120C 203.426,119.782 206.26,119.282 209,118.5C 209.717,114.863 210.217,111.196 210.5,107.5C 210.647,104.747 209.98,102.247 208.5,100C 209.833,98.6667 209.833,97.3333 208.5,96C 204.564,95.9973 200.897,95.164 197.5,93.5C 197.167,93.8333 196.833,94.1667 196.5,94.5C 199.462,97.3879 198.795,98.7213 194.5,98.5C 194.338,95.3314 192.672,93.3314 189.5,92.5C 189.167,91.1667 188.833,89.8333 188.5,88.5C 189.231,83.8595 189.564,79.1928 189.5,74.5C 185.682,72.987 181.682,72.3204 177.5,72.5C 177.5,73.5 177.5,74.5 177.5,75.5C 175.202,79.0907 173.868,83.0907 173.5,87.5C 171.497,89.1331 170.164,91.1331 169.5,93.5C 168.325,93.281 167.325,93.6143 166.5,94.5C 163.51,97.9321 160.176,100.932 156.5,103.5C 155.84,102.036 155.507,100.369 155.5,98.5C 156.168,93.1586 156.835,87.8253 157.5,82.5C 158.873,82.6567 160.207,82.49 161.5,82C 160.978,81.4387 160.645,80.772 160.5,80C 162.815,78.0142 164.148,75.5142 164.5,72.5C 166.467,72.7394 168.301,72.4061 170,71.5C 171.654,68.7068 172.821,65.7068 173.5,62.5C 174.005,56.6359 171.838,52.9693 167,51.5C 161.993,54.1167 157.326,58.45 153,64.5C 151.812,63.4366 151.312,62.1033 151.5,60.5C 150.167,60.5 148.833,60.5 147.5,60.5C 147.5,59.1667 147.5,57.8333 147.5,56.5C 146.5,56.5 145.5,56.5 144.5,56.5C 143.122,52.7682 143.955,49.4349 147,46.5C 147.49,45.2068 147.657,43.8734 147.5,42.5C 152.059,42.5334 156.059,41.2001 159.5,38.5C 162.259,39.808 165.093,40.808 168,41.5C 171.49,39.8424 174.99,38.1757 178.5,36.5C 177.271,35.7189 175.938,35.2189 174.5,35C 174.833,34.6667 175.167,34.3333 175.5,34C 178.147,33.821 180.814,33.9876 183.5,34.5C 185.881,34.5116 187.548,33.5116 188.5,31.5C 206.495,30.4997 224.495,30.4997 242.5,31.5C 242.737,35.6812 243.737,39.6812 245.5,43.5C 245.017,47.2157 244.351,50.8823 243.5,54.5C 244.124,56.754 245.457,58.4206 247.5,59.5C 248.664,65.8072 248.831,72.1405 248,78.5C 247.047,80.4552 245.713,82.1218 244,83.5C 243.99,90.7314 242.99,97.7314 241,104.5C 240.498,113.656 241.498,122.656 244,131.5C 245.033,134.033 246.867,135.699 249.5,136.5C 250.321,139.447 250.821,142.447 251,145.5C 252,146.167 253,146.833 254,147.5C 255.113,146.289 256.28,146.289 257.5,147.5C 260.725,151.945 262.059,156.945 261.5,162.5C 258.264,162.478 254.93,162.811 251.5,163.5C 251.072,166.564 250.406,169.564 249.5,172.5C 247.61,172.297 246.11,172.963 245,174.5C 243.301,173.594 241.467,173.261 239.5,173.5C 239.517,175.565 239.85,177.565 240.5,179.5 Z"/></g>
<g><path style="opacity:1" fill="#d21b1a" d="M 189.5,28.5 C 184.284,30.1362 178.951,31.6362 173.5,33C 170.854,33.4974 168.187,33.6641 165.5,33.5C 168.55,31.8993 171.884,30.8993 175.5,30.5C 180.167,29.8333 184.833,29.1667 189.5,28.5 Z"/></g>
<g><path style="opacity:1" fill="#feeeec" d="M 171.5,29.5 C 167.756,31.1324 163.756,32.2991 159.5,33C 158.944,33.3826 158.611,33.8826 158.5,34.5C 157.391,34.5569 156.391,34.8902 155.5,35.5C 147.673,37.0927 140.339,39.7593 133.5,43.5C 133.167,43.5 132.833,43.5 132.5,43.5C 130.167,44.1667 127.833,44.8333 125.5,45.5C 123.5,45.5 121.5,45.5 119.5,45.5C 120.301,43.4916 121.634,42.9916 123.5,44C 124.618,42.9264 125.618,41.7598 126.5,40.5C 133.001,40.4605 139.334,38.9605 145.5,36C 144.692,35.6924 144.025,35.1924 143.5,34.5C 146.628,33.6248 149.628,32.4581 152.5,31C 158.692,30.3914 165.025,29.8914 171.5,29.5 Z"/></g>
<g><path style="opacity:1" fill="#db5f5a" d="M 155.5,35.5 C 153.07,37.3815 150.404,38.7148 147.5,39.5C 147.167,39.5 146.833,39.5 146.5,39.5C 142.167,40.8333 137.833,42.1667 133.5,43.5C 140.339,39.7593 147.673,37.0927 155.5,35.5 Z"/></g>
<g><path style="opacity:1" fill="#dc5a57" d="M 246.5,33.5 C 248.785,37.5641 250.451,41.8975 251.5,46.5C 251.5,49.8333 251.5,53.1667 251.5,56.5C 251.167,56.5 250.833,56.5 250.5,56.5C 250.471,52.3597 249.804,48.3597 248.5,44.5C 247.833,40.8333 247.167,37.1667 246.5,33.5 Z"/></g>
<g><path style="opacity:1" fill="#fedbd8" d="M 238.5,26.5 C 241.448,26.2229 244.281,26.5562 247,27.5C 247.133,30.5251 248.133,33.1918 250,35.5C 250.719,39.1454 251.219,42.8121 251.5,46.5C 250.451,41.8975 248.785,37.5641 246.5,33.5C 246.5,30.1667 244.833,28.5 241.5,28.5C 240.5,27.8333 239.5,27.1667 238.5,26.5 Z"/></g>
<g><path style="opacity:1" fill="#d3221e" d="M 164.5,33.5 C 159.584,37.3651 153.918,39.3651 147.5,39.5C 150.404,38.7148 153.07,37.3815 155.5,35.5C 156.391,34.8902 157.391,34.5569 158.5,34.5C 160.435,33.8505 162.435,33.5172 164.5,33.5 Z"/></g>
<g><path style="opacity:1" fill="#fdcbc6" d="M 119.5,45.5 C 121.5,45.5 123.5,45.5 125.5,45.5C 125.5,45.8333 125.5,46.1667 125.5,46.5C 121.833,47.8333 118.167,49.1667 114.5,50.5C 116.437,49.0459 118.103,47.3793 119.5,45.5 Z"/></g>
<g><path style="opacity:1" fill="#d44e4c" d="M 132.5,43.5 C 130.824,45.8337 128.491,46.8337 125.5,46.5C 125.5,46.1667 125.5,45.8333 125.5,45.5C 127.833,44.8333 130.167,44.1667 132.5,43.5 Z"/></g>
<g><path style="opacity:1" fill="#d62805" d="M 146.5,39.5 C 144.339,42.5913 141.339,44.4246 137.5,45C 140.896,48.759 142.229,53.259 141.5,58.5C 140.833,55.5 140.167,52.5 139.5,49.5C 139.167,49.5 138.833,49.5 138.5,49.5C 136.507,47.0421 134.174,46.8755 131.5,49C 130.193,50.9435 130.193,52.7768 131.5,54.5C 131.5,54.8333 131.5,55.1667 131.5,55.5C 132.81,57.1477 134.143,58.8144 135.5,60.5C 134.873,61.4168 134.539,62.4168 134.5,63.5C 132.638,66.5411 130.305,69.2078 127.5,71.5C 128.671,68.3184 130.004,65.1517 131.5,62C 129.816,57.3329 129.149,52.4996 129.5,47.5C 126.996,48.6392 124.33,49.3059 121.5,49.5C 123.076,48.8571 124.41,47.8571 125.5,46.5C 128.491,46.8337 130.824,45.8337 132.5,43.5C 132.833,43.5 133.167,43.5 133.5,43.5C 137.833,42.1667 142.167,40.8333 146.5,39.5 Z"/></g>
<g><path style="opacity:1" fill="#feb52d" d="M 138.5,49.5 C 138.167,49.5 137.833,49.5 137.5,49.5C 133.488,48.8874 131.488,50.5541 131.5,54.5C 130.193,52.7768 130.193,50.9435 131.5,49C 134.174,46.8755 136.507,47.0421 138.5,49.5 Z"/></g>
<g><path style="opacity:1" fill="#d03a34" d="M 125.5,46.5 C 124.41,47.8571 123.076,48.8571 121.5,49.5C 119.412,50.9395 117.079,51.6061 114.5,51.5C 114.5,51.1667 114.5,50.8333 114.5,50.5C 118.167,49.1667 121.833,47.8333 125.5,46.5 Z"/></g>
<g><path style="opacity:1" fill="#e98079" d="M 114.5,50.5 C 114.5,50.8333 114.5,51.1667 114.5,51.5C 111.833,51.8333 109.167,52.1667 106.5,52.5C 108.838,50.9605 111.505,50.2938 114.5,50.5 Z"/></g>
<g><path style="opacity:1" fill="#fcf218" d="M 137.5,49.5 C 137.5,51.5 137.5,53.5 137.5,55.5C 135.5,55.5 133.5,55.5 131.5,55.5C 131.5,55.1667 131.5,54.8333 131.5,54.5C 131.488,50.5541 133.488,48.8874 137.5,49.5 Z"/></g>
<g><path style="opacity:1" fill="#e4706d" d="M 97.5,53.5 C 92.8333,54.8333 88.1667,56.1667 83.5,57.5C 81.5648,58.1495 79.5648,58.4828 77.5,58.5C 83.5965,54.9758 90.2632,53.3091 97.5,53.5 Z"/></g>
<g><path style="opacity:1" fill="#fc0100" d="M 124.5,71.5 C 121.303,76.3353 117.636,76.6687 113.5,72.5C 111.253,73.3742 108.92,73.7076 106.5,73.5C 106.145,76.0667 105.479,78.5667 104.5,81C 104.899,82.9812 105.899,84.4812 107.5,85.5C 107.842,86.3382 108.508,86.6716 109.5,86.5C 109.389,87.1174 109.056,87.6174 108.5,88C 111.94,88.1784 115.273,88.3451 118.5,88.5C 119.429,89.6888 119.762,91.0222 119.5,92.5C 120.978,92.238 122.311,92.5713 123.5,93.5C 125.526,96.5178 127.526,99.5178 129.5,102.5C 130.379,104.228 131.046,106.061 131.5,108C 130.622,109.8 129.955,111.633 129.5,113.5C 122.586,112.023 115.586,111.023 108.5,110.5C 105.471,108.142 103.137,105.142 101.5,101.5C 97.6197,100.205 93.7864,100.205 90,101.5C 88.5196,106.147 89.6863,109.813 93.5,112.5C 94.657,115.784 94.8236,119.118 94,122.5C 91.7338,125.859 89.5672,129.192 87.5,132.5C 78.3556,131.624 74.5223,135.624 76,144.5C 78.0847,148.287 81.2514,150.62 85.5,151.5C 95.0214,146.26 100.688,149.094 102.5,160C 100.354,164.373 100.021,168.873 101.5,173.5C 106.5,173.5 111.5,173.5 116.5,173.5C 116.5,174.833 116.5,176.167 116.5,177.5C 115.5,177.5 114.5,177.5 113.5,177.5C 113.095,181.048 113.595,184.381 115,187.5C 116.871,186.332 118.371,186.832 119.5,189C 123.572,189.956 127.405,189.456 131,187.5C 132.645,187.693 134.479,187.86 136.5,188C 138.495,190.156 139.828,192.656 140.5,195.5C 135.08,195.487 134.413,196.987 138.5,200C 139.24,201.728 139.24,203.728 138.5,206C 134.392,204.566 130.059,203.9 125.5,204C 124.833,205.667 124.167,207.333 123.5,209C 120.804,209.765 118.304,210.932 116,212.5C 114.981,211.313 113.814,210.313 112.5,209.5C 109.101,213.388 105.768,213.388 102.5,209.5C 101.571,210.689 101.238,212.022 101.5,213.5C 97.6128,214.055 94.6128,212.721 92.5,209.5C 90.8333,210.333 89.1667,211.167 87.5,212C 87.8333,212.333 88.1667,212.667 88.5,213C 85.7887,215.137 83.7887,217.803 82.5,221C 77.8914,221.466 73.3914,222.3 69,223.5C 68.101,221.632 66.601,220.632 64.5,220.5C 56.5781,221.116 48.9114,222.449 41.5,224.5C 40.1852,223.333 39.5186,221.833 39.5,220C 40.9006,209.887 41.5672,199.72 41.5,189.5C 40.3348,172.013 39.3348,154.513 38.5,137C 38.3554,124.789 39.3554,112.789 41.5,101C 41.3333,96.8333 41.1667,92.6667 41,88.5C 40.3623,87.3914 39.8623,86.2247 39.5,85C 41.0656,81.6418 40.399,78.6418 37.5,76C 38.8333,75 38.8333,74 37.5,73C 37.9305,69.2286 39.9305,67.8952 43.5,69C 40.972,70.3159 40.972,71.4826 43.5,72.5C 46.5632,70.9222 49.8965,70.2556 53.5,70.5C 57.7417,70.8254 61.575,71.4921 65,72.5C 67.7932,70.91 69.6266,68.5766 70.5,65.5C 72.0269,65.573 73.0269,64.9063 73.5,63.5C 78.5635,63.3749 83.3968,62.3749 88,60.5C 89.962,60.9694 91.7953,60.3027 93.5,58.5C 99.6119,57.9713 105.612,56.9713 111.5,55.5C 112.478,55.9767 113.311,56.6433 114,57.5C 117.73,56.5399 121.563,56.2065 125.5,56.5C 125.966,58.2012 125.966,59.7012 125.5,61C 128.314,63.4127 128.148,65.5794 125,67.5C 124.51,68.7932 124.343,70.1266 124.5,71.5 Z"/></g>
<g><path style="opacity:1" fill="#d22a21" d="M 114.5,51.5 C 113.942,52.7899 112.942,53.6232 111.5,54C 102.099,55.0623 92.7657,56.229 83.5,57.5C 88.1667,56.1667 92.8333,54.8333 97.5,53.5C 100.287,52.5233 103.287,52.19 106.5,52.5C 109.167,52.1667 111.833,51.8333 114.5,51.5 Z"/></g>
<g><path style="opacity:1" fill="#f30604" d="M 127.5,71.5 C 126.5,71.5 125.5,71.5 124.5,71.5C 124.343,70.1266 124.51,68.7932 125,67.5C 128.148,65.5794 128.314,63.4127 125.5,61C 125.966,59.7012 125.966,58.2012 125.5,56.5C 121.563,56.2065 117.73,56.5399 114,57.5C 113.311,56.6433 112.478,55.9767 111.5,55.5C 105.612,56.9713 99.6119,57.9713 93.5,58.5C 91.7953,60.3027 89.962,60.9694 88,60.5C 83.3968,62.3749 78.5635,63.3749 73.5,63.5C 76.5984,61.0598 79.9317,59.0598 83.5,57.5C 92.7657,56.229 102.099,55.0623 111.5,54C 112.942,53.6232 113.942,52.7899 114.5,51.5C 117.079,51.6061 119.412,50.9395 121.5,49.5C 124.33,49.3059 126.996,48.6392 129.5,47.5C 129.149,52.4996 129.816,57.3329 131.5,62C 130.004,65.1517 128.671,68.3184 127.5,71.5 Z"/></g>
<g><path style="opacity:1" fill="#fddc27" d="M 137.5,49.5 C 137.833,49.5 138.167,49.5 138.5,49.5C 138.833,49.5 139.167,49.5 139.5,49.5C 138.738,54.3931 139.738,58.7264 142.5,62.5C 140.906,62.0805 139.406,61.4138 138,60.5C 136.826,61.5442 135.659,62.5442 134.5,63.5C 134.539,62.4168 134.873,61.4168 135.5,60.5C 134.143,58.8144 132.81,57.1477 131.5,55.5C 133.5,55.5 135.5,55.5 137.5,55.5C 137.5,53.5 137.5,51.5 137.5,49.5 Z"/></g>
<g><path style="opacity:1" fill="#e68b11" d="M 139.5,49.5 C 140.167,52.5 140.833,55.5 141.5,58.5C 142.5,59.8333 143.5,61.1667 144.5,62.5C 143.833,62.5 143.167,62.5 142.5,62.5C 139.738,58.7264 138.738,54.3931 139.5,49.5 Z"/></g>
<g><path style="opacity:1" fill="#da6a6c" d="M 73.5,58.5 C 74.8333,58.5 76.1667,58.5 77.5,58.5C 74.4541,60.858 71.1208,62.858 67.5,64.5C 69.5,62.5 71.5,60.5 73.5,58.5 Z"/></g>
<g><path style="opacity:1" fill="#e32200" d="M 173.5,62.5 C 172.821,65.7068 171.654,68.7068 170,71.5C 168.301,72.4061 166.467,72.7394 164.5,72.5C 164.148,75.5142 162.815,78.0142 160.5,80C 160.645,80.772 160.978,81.4387 161.5,82C 160.207,82.49 158.873,82.6567 157.5,82.5C 156.835,87.8253 156.168,93.1586 155.5,98.5C 155.507,100.369 155.84,102.036 156.5,103.5C 156.631,104.376 156.298,105.043 155.5,105.5C 154.507,100.88 154.173,96.2137 154.5,91.5C 154.993,89.1944 155.326,86.861 155.5,84.5C 156.038,82.8828 156.371,81.2161 156.5,79.5C 157.906,79.0269 158.573,78.0269 158.5,76.5C 161.167,74.5 163.5,72.1667 165.5,69.5C 167.5,69.5 168.5,68.5 168.5,66.5C 170.432,62.7264 169.265,60.3931 165,59.5C 163.93,59.528 163.097,59.8614 162.5,60.5C 161.167,61.5 159.833,62.5 158.5,63.5C 158.943,60.3762 160.61,58.0429 163.5,56.5C 166.447,57.4226 169.447,58.0893 172.5,58.5C 172.232,60.099 172.566,61.4324 173.5,62.5 Z"/></g>
<g><path style="opacity:1" fill="#d7403b" d="M 250.5,56.5 C 250.833,56.5 251.167,56.5 251.5,56.5C 252.217,74.2125 250.051,91.5459 245,108.5C 244.502,111.817 244.335,115.15 244.5,118.5C 244.167,118.5 243.833,118.5 243.5,118.5C 241.641,110.408 242.808,102.742 247,95.5C 249.718,82.6386 250.885,69.6386 250.5,56.5 Z"/></g>
<g><path style="opacity:1" fill="#ffdede" d="M 73.5,58.5 C 71.5,60.5 69.5,62.5 67.5,64.5C 66.2921,65.2341 64.9587,65.5674 63.5,65.5C 57.1502,66.5874 50.8169,66.5874 44.5,65.5C 42.8333,65.5 41.1667,65.5 39.5,65.5C 38.8333,64.8333 38.1667,64.1667 37.5,63.5C 47.9818,64.0127 58.3151,63.3461 68.5,61.5C 68.5,60.5 68.5,59.5 68.5,58.5C 70.1667,58.5 71.8333,58.5 73.5,58.5 Z"/></g>
<g><path style="opacity:1" fill="#cf8183" d="M 35.5,63.5 C 34.5,63.5 33.5,63.5 32.5,63.5C 32.5,64.8333 32.5,66.1667 32.5,67.5C 31.5489,66.0813 31.2155,64.4147 31.5,62.5C 33.099,62.2322 34.4324,62.5655 35.5,63.5 Z"/></g>
<g><path style="opacity:1" fill="#d86107" d="M 162.5,60.5 C 162.5,61.1667 162.5,61.8333 162.5,62.5C 161.082,64.1867 159.749,66.02 158.5,68C 154.858,69.0698 151.858,68.2364 149.5,65.5C 152.43,66.299 155.43,66.6323 158.5,66.5C 158.5,65.5 158.5,64.5 158.5,63.5C 159.833,62.5 161.167,61.5 162.5,60.5 Z"/></g>
<g><path style="opacity:1" fill="#d33730" d="M 35.5,63.5 C 36.1667,63.5 36.8333,63.5 37.5,63.5C 38.1667,64.1667 38.8333,64.8333 39.5,65.5C 37.8333,65.5 36.1667,65.5 34.5,65.5C 34.5,69.1667 34.5,72.8333 34.5,76.5C 33.8333,75.1667 33.1667,73.8333 32.5,72.5C 32.5,70.8333 32.5,69.1667 32.5,67.5C 32.5,66.1667 32.5,64.8333 32.5,63.5C 33.5,63.5 34.5,63.5 35.5,63.5 Z"/></g>
<g><path style="opacity:1" fill="#d61916" d="M 83.5,57.5 C 79.9317,59.0598 76.5984,61.0598 73.5,63.5C 73.0269,64.9063 72.0269,65.573 70.5,65.5C 69.0689,66.0819 67.7356,66.9152 66.5,68C 56.4861,68.5902 46.4861,68.4236 36.5,67.5C 36.5,71.8333 36.5,76.1667 36.5,80.5C 35.8333,79.5 35.1667,78.5 34.5,77.5C 34.5,77.1667 34.5,76.8333 34.5,76.5C 34.5,72.8333 34.5,69.1667 34.5,65.5C 36.1667,65.5 37.8333,65.5 39.5,65.5C 41.1667,65.5 42.8333,65.5 44.5,65.5C 50.8087,68.0498 57.142,68.0498 63.5,65.5C 64.9587,65.5674 66.2921,65.2341 67.5,64.5C 71.1208,62.858 74.4541,60.858 77.5,58.5C 79.5648,58.4828 81.5648,58.1495 83.5,57.5 Z"/></g>
<g><path style="opacity:1" fill="#e46f6a" d="M 44.5,65.5 C 50.8169,66.5874 57.1502,66.5874 63.5,65.5C 57.142,68.0498 50.8087,68.0498 44.5,65.5 Z"/></g>
<g><path style="opacity:1" fill="#fee722" d="M 142.5,62.5 C 143.167,62.5 143.833,62.5 144.5,62.5C 145.899,63.8897 147.566,64.8897 149.5,65.5C 151.858,68.2364 154.858,69.0698 158.5,68C 159.749,66.02 161.082,64.1867 162.5,62.5C 166.444,60.8092 168.444,62.1425 168.5,66.5C 168.5,68.5 167.5,69.5 165.5,69.5C 162.167,70.8333 159.833,73.1667 158.5,76.5C 157.094,76.9731 156.427,77.9731 156.5,79.5C 156.371,81.2161 156.038,82.8828 155.5,84.5C 154.076,86.5145 153.41,88.8478 153.5,91.5C 152.89,92.391 152.557,93.391 152.5,94.5C 151.514,98.97 151.181,103.637 151.5,108.5C 151.083,105.841 150.083,103.508 148.5,101.5C 148.971,95.3687 150.138,89.3687 152,83.5C 152.499,79.5138 152.666,75.5138 152.5,71.5C 149.549,71.7128 146.882,71.0461 144.5,69.5C 142.143,69.3367 139.81,69.5034 137.5,70C 135.934,72.3256 134.268,74.4922 132.5,76.5C 132.449,74.4305 133.115,72.5971 134.5,71C 134.164,69.9701 133.497,69.4701 132.5,69.5C 133.167,67.5 133.833,65.5 134.5,63.5C 135.659,62.5442 136.826,61.5442 138,60.5C 139.406,61.4138 140.906,62.0805 142.5,62.5 Z"/></g>
<g><path style="opacity:1" fill="#f4a51d" d="M 134.5,63.5 C 133.833,65.5 133.167,67.5 132.5,69.5C 129.036,72.4625 125.703,75.6291 122.5,79C 119.587,81.0911 116.92,80.9244 114.5,78.5C 120.444,79.234 124.778,76.9007 127.5,71.5C 130.305,69.2078 132.638,66.5411 134.5,63.5 Z"/></g>
<g><path style="opacity:1" fill="#e12901" d="M 124.5,71.5 C 125.5,71.5 126.5,71.5 127.5,71.5C 124.778,76.9007 120.444,79.234 114.5,78.5C 113.866,77.0532 112.699,76.3866 111,76.5C 109.301,76.3866 108.134,77.0532 107.5,78.5C 106.377,80.688 106.377,83.0213 107.5,85.5C 105.899,84.4812 104.899,82.9812 104.5,81C 105.479,78.5667 106.145,76.0667 106.5,73.5C 108.92,73.7076 111.253,73.3742 113.5,72.5C 117.636,76.6687 121.303,76.3353 124.5,71.5 Z"/></g>
<g><path style="opacity:1" fill="#e97e0d" d="M 165.5,69.5 C 163.5,72.1667 161.167,74.5 158.5,76.5C 159.833,73.1667 162.167,70.8333 165.5,69.5 Z"/></g>
<g><path style="opacity:1" fill="#d95505" d="M 144.5,69.5 C 144.5,69.8333 144.5,70.1667 144.5,70.5C 141.058,69.8283 138.391,70.8283 136.5,73.5C 135.702,76.4886 134.202,79.1552 132,81.5C 131.505,83.4727 131.338,85.4727 131.5,87.5C 129.868,87.1753 128.868,86.1753 128.5,84.5C 129.767,82.2967 130.767,79.9633 131.5,77.5C 132.167,77.5 132.5,77.1667 132.5,76.5C 134.268,74.4922 135.934,72.3256 137.5,70C 139.81,69.5034 142.143,69.3367 144.5,69.5 Z"/></g>
<g><path style="opacity:1" fill="#feb12f" d="M 114.5,78.5 C 112.167,78.5 109.833,78.5 107.5,78.5C 108.134,77.0532 109.301,76.3866 111,76.5C 112.699,76.3866 113.866,77.0532 114.5,78.5 Z"/></g>
<g><path style="opacity:1" fill="#f20b01" d="M 141.5,100.5 C 140.833,100.5 140.167,100.5 139.5,100.5C 137.574,95.6366 134.908,91.3032 131.5,87.5C 131.338,85.4727 131.505,83.4727 132,81.5C 134.202,79.1552 135.702,76.4886 136.5,73.5C 138.571,71.8996 140.905,71.3996 143.5,72C 145.087,72.8624 146.754,73.5291 148.5,74C 149.894,74.956 150.561,76.2894 150.5,78C 148.088,84.2547 146.254,90.7547 145,97.5C 144.578,99.4257 143.411,100.426 141.5,100.5 Z"/></g>
<g><path style="opacity:1" fill="#fbab20" d="M 158.5,76.5 C 158.573,78.0269 157.906,79.0269 156.5,79.5C 156.427,77.9731 157.094,76.9731 158.5,76.5 Z"/></g>
<g><path style="opacity:1" fill="#f9b123" d="M 144.5,70.5 C 144.5,70.1667 144.5,69.8333 144.5,69.5C 146.882,71.0461 149.549,71.7128 152.5,71.5C 152.666,75.5138 152.499,79.5138 152,83.5C 150.138,89.3687 148.971,95.3687 148.5,101.5C 148.5,101.833 148.5,102.167 148.5,102.5C 148.167,102.5 147.833,102.5 147.5,102.5C 147.5,101.167 147.5,99.8333 147.5,98.5C 148.725,91.6546 150.058,84.8213 151.5,78C 151.167,76.5 150.833,75 150.5,73.5C 148.259,72.8714 146.259,71.8714 144.5,70.5 Z"/></g>
<g><path style="opacity:1" fill="#fdf116" d="M 132.5,69.5 C 133.497,69.4701 134.164,69.9701 134.5,71C 133.115,72.5971 132.449,74.4305 132.5,76.5C 132.5,77.1667 132.167,77.5 131.5,77.5C 129.134,78.8888 127.8,81.0555 127.5,84C 127.667,85.1667 127.833,86.3333 128,87.5C 131.607,89.4299 132.107,91.7632 129.5,94.5C 128.378,93.3698 127.044,92.7031 125.5,92.5C 123.5,90.5 121.5,88.5 119.5,86.5C 118.626,85.4749 117.459,84.8082 116,84.5C 113.23,85.3479 110.397,85.6813 107.5,85.5C 106.377,83.0213 106.377,80.688 107.5,78.5C 109.833,78.5 112.167,78.5 114.5,78.5C 116.92,80.9244 119.587,81.0911 122.5,79C 125.703,75.6291 129.036,72.4625 132.5,69.5 Z"/></g>
<g><path style="opacity:1" fill="#e36e0a" d="M 119.5,86.5 C 116.167,86.5 112.833,86.5 109.5,86.5C 108.508,86.6716 107.842,86.3382 107.5,85.5C 110.397,85.6813 113.23,85.3479 116,84.5C 117.459,84.8082 118.626,85.4749 119.5,86.5 Z"/></g>
<g><path style="opacity:1" fill="#f27a10" d="M 155.5,84.5 C 155.326,86.861 154.993,89.1944 154.5,91.5C 154.167,91.5 153.833,91.5 153.5,91.5C 153.41,88.8478 154.076,86.5145 155.5,84.5 Z"/></g>
<g><path style="opacity:1" fill="#feee19" d="M 178.5,78.5 C 180.5,78.5 182.5,78.5 184.5,78.5C 184.5,80.8333 184.5,83.1667 184.5,85.5C 182.149,86.9161 182.149,88.5828 184.5,90.5C 185.038,92.1172 185.371,93.7839 185.5,95.5C 185.631,96.3764 185.298,97.0431 184.5,97.5C 180.42,94.6883 177.086,95.3549 174.5,99.5C 174.167,100.5 173.5,101.167 172.5,101.5C 169.193,102.811 166.026,104.477 163,106.5C 162.51,105.207 162.343,103.873 162.5,102.5C 165.833,98.5 169.5,94.8333 173.5,91.5C 175.371,91.1412 176.871,90.1412 178,88.5C 178.301,85.4929 178.135,82.4929 177.5,79.5C 177.5,78.8333 177.833,78.5 178.5,78.5 Z"/></g>
<g><path style="opacity:1" fill="#fed825" d="M 131.5,77.5 C 130.767,79.9633 129.767,82.2967 128.5,84.5C 128.868,86.1753 129.868,87.1753 131.5,87.5C 134.908,91.3032 137.574,95.6366 139.5,100.5C 139.5,100.833 139.5,101.167 139.5,101.5C 137.517,100.098 135.851,98.2645 134.5,96C 133.552,95.5172 132.552,95.3505 131.5,95.5C 133.089,99.0231 134.422,102.69 135.5,106.5C 134.5,106.167 133.833,105.5 133.5,104.5C 131.251,100.246 128.585,96.2458 125.5,92.5C 127.044,92.7031 128.378,93.3698 129.5,94.5C 132.107,91.7632 131.607,89.4299 128,87.5C 127.833,86.3333 127.667,85.1667 127.5,84C 127.8,81.0555 129.134,78.8888 131.5,77.5 Z"/></g>
<g><path style="opacity:1" fill="#de3e02" d="M 109.5,86.5 C 112.833,86.5 116.167,86.5 119.5,86.5C 121.5,88.5 123.5,90.5 125.5,92.5C 128.585,96.2458 131.251,100.246 133.5,104.5C 132.167,103.833 130.833,103.167 129.5,102.5C 127.526,99.5178 125.526,96.5178 123.5,93.5C 122.311,92.5713 120.978,92.238 119.5,92.5C 119.762,91.0222 119.429,89.6888 118.5,88.5C 115.273,88.3451 111.94,88.1784 108.5,88C 109.056,87.6174 109.389,87.1174 109.5,86.5 Z"/></g>
<g><path style="opacity:1" fill="#d83801" d="M 189.5,98.5 C 188.764,96.7706 187.43,95.7706 185.5,95.5C 185.371,93.7839 185.038,92.1172 184.5,90.5C 184.5,88.8333 184.5,87.1667 184.5,85.5C 186.326,83.5449 186.826,81.2116 186,78.5C 183.293,75.9411 180.793,75.9411 178.5,78.5C 177.833,78.5 177.5,78.8333 177.5,79.5C 176.681,82.3054 176.181,85.3054 176,88.5C 174.955,89.3734 174.122,90.3734 173.5,91.5C 169.5,94.8333 165.833,98.5 162.5,102.5C 159.888,103.779 157.555,105.445 155.5,107.5C 154.5,107.5 153.5,107.5 152.5,107.5C 152.5,103.167 152.5,98.8333 152.5,94.5C 152.557,93.391 152.89,92.391 153.5,91.5C 153.833,91.5 154.167,91.5 154.5,91.5C 154.173,96.2137 154.507,100.88 155.5,105.5C 156.298,105.043 156.631,104.376 156.5,103.5C 160.176,100.932 163.51,97.9321 166.5,94.5C 167.325,93.6143 168.325,93.281 169.5,93.5C 170.164,91.1331 171.497,89.1331 173.5,87.5C 173.868,83.0907 175.202,79.0907 177.5,75.5C 183.851,72.727 187.517,74.727 188.5,81.5C 187.148,84.1618 186.481,86.9951 186.5,90C 186.971,93.1456 187.971,95.9789 189.5,98.5 Z"/></g>
<g><path style="opacity:1" fill="#fbb326" d="M 184.5,85.5 C 184.5,87.1667 184.5,88.8333 184.5,90.5C 182.149,88.5828 182.149,86.9161 184.5,85.5 Z"/></g>
<g><path style="opacity:1" fill="#e77212" d="M 177.5,79.5 C 178.135,82.4929 178.301,85.4929 178,88.5C 176.871,90.1412 175.371,91.1412 173.5,91.5C 174.122,90.3734 174.955,89.3734 176,88.5C 176.181,85.3054 176.681,82.3054 177.5,79.5 Z"/></g>
<g><path style="opacity:1" fill="#ffc02e" d="M 184.5,85.5 C 184.5,83.1667 184.5,80.8333 184.5,78.5C 182.5,78.5 180.5,78.5 178.5,78.5C 180.793,75.9411 183.293,75.9411 186,78.5C 186.826,81.2116 186.326,83.5449 184.5,85.5 Z"/></g>
<g><path style="opacity:1" fill="#fdd3d2" d="M 32.5,72.5 C 33.1667,73.8333 33.8333,75.1667 34.5,76.5C 34.5,76.8333 34.5,77.1667 34.5,77.5C 34.9893,82.8972 35.6559,88.2305 36.5,93.5C 36.6231,100.529 36.2897,107.529 35.5,114.5C 35.1667,114.5 34.8333,114.5 34.5,114.5C 34.8976,100.411 34.2309,86.4107 32.5,72.5 Z"/></g>
<g><path style="opacity:1" fill="#d95901" d="M 147.5,98.5 C 147.5,99.8333 147.5,101.167 147.5,102.5C 146.238,108.037 146.238,113.703 147.5,119.5C 146.883,119.389 146.383,119.056 146,118.5C 145.833,115.167 145.667,111.833 145.5,108.5C 145.514,104.761 146.18,101.428 147.5,98.5 Z"/></g>
<g><path style="opacity:1" fill="#f20a01" d="M 185.5,101.5 C 186.833,102.167 187.833,103.167 188.5,104.5C 188.427,106.027 189.094,107.027 190.5,107.5C 190.632,110.57 190.299,113.57 189.5,116.5C 188.599,117.29 187.932,118.29 187.5,119.5C 186.5,119.5 185.5,119.5 184.5,119.5C 184.5,120.833 184.5,122.167 184.5,123.5C 175.713,120.926 166.713,119.259 157.5,118.5C 162.869,114.81 167.869,110.643 172.5,106C 173.448,105.517 174.448,105.351 175.5,105.5C 176.856,99.3251 180.189,97.9918 185.5,101.5 Z"/></g>
<g><path style="opacity:1" fill="#fdd527" d="M 185.5,95.5 C 187.43,95.7706 188.764,96.7706 189.5,98.5C 190.925,99.922 191.925,101.589 192.5,103.5C 195.161,105.757 198.161,106.09 201.5,104.5C 206.013,104.895 207.513,107.229 206,111.5C 204.174,113.074 202.007,113.907 199.5,114C 198.748,114.671 198.414,115.504 198.5,116.5C 198.167,116.5 197.833,116.5 197.5,116.5C 197.5,115.167 197.5,113.833 197.5,112.5C 199.806,112.007 202.139,111.674 204.5,111.5C 204.5,110.167 204.5,108.833 204.5,107.5C 200.327,108.044 196.494,107.377 193,105.5C 192.503,108.146 192.336,110.813 192.5,113.5C 192.167,113.5 191.833,113.5 191.5,113.5C 191.795,111.265 191.461,109.265 190.5,107.5C 190.573,105.973 189.906,104.973 188.5,104.5C 187.833,103.167 186.833,102.167 185.5,101.5C 183.196,97.1717 180.196,96.5051 176.5,99.5C 175.833,99.5 175.167,99.5 174.5,99.5C 177.086,95.3549 180.42,94.6883 184.5,97.5C 185.298,97.0431 185.631,96.3764 185.5,95.5 Z"/></g>
<g><path style="opacity:1" fill="#e04402" d="M 192.5,103.5 C 197.5,103.5 202.5,103.5 207.5,103.5C 207.5,107.5 207.5,111.5 207.5,115.5C 204.391,115.264 201.391,115.597 198.5,116.5C 198.414,115.504 198.748,114.671 199.5,114C 202.007,113.907 204.174,113.074 206,111.5C 207.513,107.229 206.013,104.895 201.5,104.5C 198.161,106.09 195.161,105.757 192.5,103.5 Z"/></g>
<g><path style="opacity:1" fill="#e58c15" d="M 152.5,94.5 C 152.5,98.8333 152.5,103.167 152.5,107.5C 153.5,107.5 154.5,107.5 155.5,107.5C 155.167,108.167 154.833,108.833 154.5,109.5C 153.209,109.737 152.209,109.404 151.5,108.5C 151.181,103.637 151.514,98.97 152.5,94.5 Z"/></g>
<g><path style="opacity:1" fill="#df6a0a" d="M 174.5,99.5 C 175.167,99.5 175.833,99.5 176.5,99.5C 173.437,103.566 169.771,106.899 165.5,109.5C 167.833,106.833 170.167,104.167 172.5,101.5C 173.5,101.167 174.167,100.5 174.5,99.5 Z"/></g>
<g><path style="opacity:1" fill="#f99b1d" d="M 188.5,104.5 C 189.906,104.973 190.573,105.973 190.5,107.5C 189.094,107.027 188.427,106.027 188.5,104.5 Z"/></g>
<g><path style="opacity:1" fill="#f7ac20" d="M 140.5,106.5 C 143.133,111.032 144.133,116.032 143.5,121.5C 143.167,121.5 142.833,121.5 142.5,121.5C 142.569,116.384 141.902,111.384 140.5,106.5 Z"/></g>
<g><path style="opacity:1" fill="#cd4000" d="M 139.5,100.5 C 140.167,100.5 140.833,100.5 141.5,100.5C 142.013,103.614 142.846,106.614 144,109.5C 144.812,113.689 144.645,117.689 143.5,121.5C 144.133,116.032 143.133,111.032 140.5,106.5C 140.371,104.784 140.038,103.117 139.5,101.5C 139.5,101.167 139.5,100.833 139.5,100.5 Z"/></g>
<g><path style="opacity:1" fill="#fcf512" d="M 197.5,112.5 C 196.476,114.512 194.976,116.178 193,117.5C 192.51,116.207 192.343,114.873 192.5,113.5C 192.336,110.813 192.503,108.146 193,105.5C 196.494,107.377 200.327,108.044 204.5,107.5C 204.5,108.833 204.5,110.167 204.5,111.5C 202.139,111.674 199.806,112.007 197.5,112.5 Z"/></g>
<g><path style="opacity:1" fill="#fcf60d" d="M 148.5,101.5 C 150.083,103.508 151.083,105.841 151.5,108.5C 152.209,109.404 153.209,109.737 154.5,109.5C 156.736,108.611 158.736,107.278 160.5,105.5C 161.631,107.074 161.798,108.741 161,110.5C 160.333,109.833 159.667,109.167 159,108.5C 157.878,110.42 157.044,112.42 156.5,114.5C 153.975,115.64 151.308,116.307 148.5,116.5C 148.5,111.833 148.5,107.167 148.5,102.5C 148.5,102.167 148.5,101.833 148.5,101.5 Z"/></g>
<g><path style="opacity:1" fill="#de5f61" d="M 36.5,93.5 C 37.1644,96.1459 37.4978,98.9792 37.5,102C 37.6741,106.442 37.0074,110.609 35.5,114.5C 36.2897,107.529 36.6231,100.529 36.5,93.5 Z"/></g>
<g><path style="opacity:1" fill="#e61b00" d="M 129.5,102.5 C 130.833,103.167 132.167,103.833 133.5,104.5C 133.833,105.5 134.5,106.167 135.5,106.5C 135.658,109.902 135.324,113.236 134.5,116.5C 126.471,117.13 118.805,116.13 111.5,113.5C 110.694,112.272 109.694,111.272 108.5,110.5C 115.586,111.023 122.586,112.023 129.5,113.5C 129.955,111.633 130.622,109.8 131.5,108C 131.046,106.061 130.379,104.228 129.5,102.5 Z"/></g>
<g><path style="opacity:1" fill="#fed8d4" d="M 251.5,46.5 C 252.661,60.3272 252.827,74.3272 252,88.5C 250.364,97.6765 248.864,106.843 247.5,116C 247.9,120.572 248.566,125.072 249.5,129.5C 249.167,129.5 248.833,129.5 248.5,129.5C 247.165,125.828 245.832,122.162 244.5,118.5C 244.335,115.15 244.502,111.817 245,108.5C 250.051,91.5459 252.217,74.2125 251.5,56.5C 251.5,53.1667 251.5,49.8333 251.5,46.5 Z"/></g>
<g><path style="opacity:1" fill="#fee224" d="M 172.5,101.5 C 170.167,104.167 167.833,106.833 165.5,109.5C 161.196,112.657 156.863,115.824 152.5,119C 150.866,119.494 149.199,119.66 147.5,119.5C 146.238,113.703 146.238,108.037 147.5,102.5C 147.833,102.5 148.167,102.5 148.5,102.5C 148.5,107.167 148.5,111.833 148.5,116.5C 151.308,116.307 153.975,115.64 156.5,114.5C 157.044,112.42 157.878,110.42 159,108.5C 159.667,109.167 160.333,109.833 161,110.5C 161.798,108.741 161.631,107.074 160.5,105.5C 158.736,107.278 156.736,108.611 154.5,109.5C 154.833,108.833 155.167,108.167 155.5,107.5C 157.555,105.445 159.888,103.779 162.5,102.5C 162.343,103.873 162.51,105.207 163,106.5C 166.026,104.477 169.193,102.811 172.5,101.5 Z"/></g>
<g><path style="opacity:1" fill="#ed8819" d="M 190.5,107.5 C 191.461,109.265 191.795,111.265 191.5,113.5C 191.573,115.027 190.906,116.027 189.5,116.5C 190.299,113.57 190.632,110.57 190.5,107.5 Z"/></g>
<g><path style="opacity:1" fill="#ec8c1b" d="M 197.5,116.5 C 197.833,116.5 198.167,116.5 198.5,116.5C 198.167,117.167 197.833,117.833 197.5,118.5C 196.833,118.833 196.167,119.167 195.5,119.5C 195.427,117.973 196.094,116.973 197.5,116.5 Z"/></g>
<g><path style="opacity:1" fill="#d83b01" d="M 185.5,101.5 C 180.189,97.9918 176.856,99.3251 175.5,105.5C 174.448,105.351 173.448,105.517 172.5,106C 167.869,110.643 162.869,114.81 157.5,118.5C 166.713,119.259 175.713,120.926 184.5,123.5C 184.5,122.167 184.5,120.833 184.5,119.5C 185.5,119.5 186.5,119.5 187.5,119.5C 187.5,119.833 187.5,120.167 187.5,120.5C 186.094,120.973 185.427,121.973 185.5,123.5C 185.038,124.88 184.038,125.547 182.5,125.5C 180.823,124.813 179.156,124.146 177.5,123.5C 173.875,122.43 170.042,121.764 166,121.5C 161.189,122.198 156.356,122.531 151.5,122.5C 150.391,122.557 149.391,122.89 148.5,123.5C 148.567,122.041 148.234,120.708 147.5,119.5C 149.199,119.66 150.866,119.494 152.5,119C 156.863,115.824 161.196,112.657 165.5,109.5C 169.771,106.899 173.437,103.566 176.5,99.5C 180.196,96.5051 183.196,97.1717 185.5,101.5 Z"/></g>
<g><path style="opacity:1" fill="#f4941b" d="M 195.5,119.5 C 195.573,121.027 194.906,122.027 193.5,122.5C 193.427,120.973 194.094,119.973 195.5,119.5 Z"/></g>
<g><path style="opacity:1" fill="#fec227" d="M 177.5,123.5 C 175.833,123.5 174.167,123.5 172.5,123.5C 165.833,123.5 159.167,123.5 152.5,123.5C 152.167,123.5 151.833,123.5 151.5,123.5C 151.5,123.167 151.5,122.833 151.5,122.5C 156.356,122.531 161.189,122.198 166,121.5C 170.042,121.764 173.875,122.43 177.5,123.5 Z"/></g>
<g><path style="opacity:1" fill="#f89017" d="M 187.5,120.5 C 187.573,122.027 186.906,123.027 185.5,123.5C 185.427,121.973 186.094,120.973 187.5,120.5 Z"/></g>
<g><path style="opacity:1" fill="#fcd7d9" d="M 34.5,117.5 C 34.5,127.5 34.5,137.5 34.5,147.5C 33.8826,147.389 33.3826,147.056 33,146.5C 32.8333,142.667 32.6667,138.833 32.5,135C 32.3408,128.926 33.0075,123.092 34.5,117.5 Z"/></g>
<g><path style="opacity:1" fill="#df6307" d="M 104.5,120.5 C 104.44,123.341 103.774,126.007 102.5,128.5C 101.728,129.694 100.728,130.694 99.5,131.5C 100.552,128.807 101.552,126.14 102.5,123.5C 103.167,122.5 103.833,121.5 104.5,120.5 Z"/></g>
<g><path style="opacity:1" fill="#d32f29" d="M 243.5,118.5 C 243.833,118.5 244.167,118.5 244.5,118.5C 245.832,122.162 247.165,125.828 248.5,129.5C 247.504,129.586 246.671,129.252 246,128.5C 243.997,125.5 243.164,122.167 243.5,118.5 Z"/></g>
<g><path style="opacity:1" fill="#f40502" d="M 104.5,120.5 C 114.737,124.631 125.404,126.798 136.5,127C 134.163,128.634 132.163,130.467 130.5,132.5C 125.75,133.713 121.75,136.213 118.5,140C 117.207,140.49 115.873,140.657 114.5,140.5C 114.5,141.5 114.5,142.5 114.5,143.5C 109.519,142.748 105.019,140.748 101,137.5C 101.145,134.486 101.645,131.486 102.5,128.5C 103.774,126.007 104.44,123.341 104.5,120.5 Z"/></g>
<g><path style="opacity:1" fill="#da2301" d="M 144.5,70.5 C 146.259,71.8714 148.259,72.8714 150.5,73.5C 150.833,75 151.167,76.5 151.5,78C 150.058,84.8213 148.725,91.6546 147.5,98.5C 146.18,101.428 145.514,104.761 145.5,108.5C 145.667,111.833 145.833,115.167 146,118.5C 146.383,119.056 146.883,119.389 147.5,119.5C 148.234,120.708 148.567,122.041 148.5,123.5C 145.852,126.211 145.852,128.878 148.5,131.5C 148.5,132.5 148.5,133.5 148.5,134.5C 148.41,137.152 149.076,139.485 150.5,141.5C 150.5,141.833 150.5,142.167 150.5,142.5C 150.5,143.833 150.5,145.167 150.5,146.5C 147.911,146.461 145.911,147.461 144.5,149.5C 144.831,141.804 144.497,134.138 143.5,126.5C 142.646,125.478 141.646,124.645 140.5,124C 142.119,123.764 143.119,122.931 143.5,121.5C 144.645,117.689 144.812,113.689 144,109.5C 142.846,106.614 142.013,103.614 141.5,100.5C 143.411,100.426 144.578,99.4257 145,97.5C 146.254,90.7547 148.088,84.2547 150.5,78C 150.561,76.2894 149.894,74.956 148.5,74C 146.754,73.5291 145.087,72.8624 143.5,72C 140.905,71.3996 138.571,71.8996 136.5,73.5C 138.391,70.8283 141.058,69.8283 144.5,70.5 Z"/></g>
<g><path style="opacity:1" fill="#fcf711" d="M 152.5,123.5 C 159.167,123.5 165.833,123.5 172.5,123.5C 174.437,124.931 176.27,126.598 178,128.5C 181.073,127.383 184.24,127.216 187.5,128C 187.737,130.288 187.737,132.788 187.5,135.5C 186.167,135.5 184.833,135.5 183.5,135.5C 183.5,134.833 183.167,134.5 182.5,134.5C 181.264,131.379 178.931,130.045 175.5,130.5C 174.833,130.5 174.167,130.5 173.5,130.5C 172.5,129.833 171.5,129.167 170.5,128.5C 168.527,127.837 166.361,127.504 164,127.5C 160.262,127.381 156.762,128.047 153.5,129.5C 153.666,134.179 153.499,138.845 153,143.5C 151.279,136.856 151.112,130.19 152.5,123.5 Z"/></g>
<g><path style="opacity:1" fill="#fbc420" d="M 158.5,129.5 C 162.298,128.517 166.298,128.183 170.5,128.5C 171.5,129.167 172.5,129.833 173.5,130.5C 168.537,129.746 163.537,129.413 158.5,129.5 Z"/></g>
<g><path style="opacity:1" fill="#f5a41c" d="M 193.5,123.5 C 191.701,127.903 191.034,132.57 191.5,137.5C 193.099,137.232 194.432,137.566 195.5,138.5C 193.533,138.739 191.699,138.406 190,137.5C 189.342,133.428 189.675,129.428 191,125.5C 191.708,124.619 192.542,123.953 193.5,123.5 Z"/></g>
<g><path style="opacity:1" fill="#f39f22" d="M 151.5,122.5 C 151.5,122.833 151.5,123.167 151.5,123.5C 148.828,125.391 147.828,128.058 148.5,131.5C 145.852,128.878 145.852,126.211 148.5,123.5C 149.391,122.89 150.391,122.557 151.5,122.5 Z"/></g>
<g><path style="opacity:1" fill="#fcc329" d="M 97.5,119.5 C 97.3215,122.216 96.8215,124.883 96,127.5C 95.5017,129.544 94.335,130.878 92.5,131.5C 94.1861,127.424 95.8528,123.424 97.5,119.5 Z"/></g>
<g><path style="opacity:1" fill="#dd5502" d="M 158.5,129.5 C 163.537,129.413 168.537,129.746 173.5,130.5C 174.167,130.5 174.833,130.5 175.5,130.5C 176.167,131.167 176.833,131.833 177.5,132.5C 170.869,131.669 164.202,131.336 157.5,131.5C 157.5,136.5 157.5,141.5 157.5,146.5C 157.167,146.5 156.833,146.5 156.5,146.5C 156.334,141.156 156.501,135.823 157,130.5C 157.383,129.944 157.883,129.611 158.5,129.5 Z"/></g>
<g><path style="opacity:1" fill="#fac223" d="M 175.5,130.5 C 178.931,130.045 181.264,131.379 182.5,134.5C 180.833,133.833 179.167,133.167 177.5,132.5C 176.833,131.833 176.167,131.167 175.5,130.5 Z"/></g>
<g><path style="opacity:1" fill="#e02d02" d="M 197.5,118.5 C 195.952,122.295 194.952,126.295 194.5,130.5C 194.378,133.966 195.711,136.632 198.5,138.5C 199.978,142.419 199.311,145.919 196.5,149C 191.618,150.754 188.618,149.254 187.5,144.5C 188.167,144.833 188.833,145.167 189.5,145.5C 195.335,147.839 197.835,145.839 197,139.5C 196.617,138.944 196.117,138.611 195.5,138.5C 194.432,137.566 193.099,137.232 191.5,137.5C 191.034,132.57 191.701,127.903 193.5,123.5C 193.5,123.167 193.5,122.833 193.5,122.5C 194.906,122.027 195.573,121.027 195.5,119.5C 196.167,119.167 196.833,118.833 197.5,118.5 Z"/></g>
<g><path style="opacity:1" fill="#da3501" d="M 108.5,110.5 C 109.694,111.272 110.694,112.272 111.5,113.5C 110.833,113.5 110.167,113.5 109.5,113.5C 106.109,112.471 103.443,110.471 101.5,107.5C 100.594,101.8 97.4273,100.133 92,102.5C 90.6439,107.633 92.4773,110.967 97.5,112.5C 97.5,114.833 97.5,117.167 97.5,119.5C 95.8528,123.424 94.1861,127.424 92.5,131.5C 90.4131,132.585 89.0798,134.251 88.5,136.5C 85.8127,136.336 83.146,136.503 80.5,137C 78.771,138.789 78.1043,140.956 78.5,143.5C 77.3709,141.372 77.2042,139.039 78,136.5C 81.4589,135.408 84.6255,134.075 87.5,132.5C 89.5672,129.192 91.7338,125.859 94,122.5C 94.8236,119.118 94.657,115.784 93.5,112.5C 89.6863,109.813 88.5196,106.147 90,101.5C 93.7864,100.205 97.6197,100.205 101.5,101.5C 103.137,105.142 105.471,108.142 108.5,110.5 Z"/></g>
<g><path style="opacity:1" fill="#fdcf29" d="M 101.5,107.5 C 99.9655,105.588 97.9655,104.255 95.5,103.5C 94.914,103.709 94.414,104.043 94,104.5C 94.9282,107.237 96.0949,109.903 97.5,112.5C 92.4773,110.967 90.6439,107.633 92,102.5C 97.4273,100.133 100.594,101.8 101.5,107.5 Z"/></g>
<g><path style="opacity:1" fill="#feea1f" d="M 197.5,112.5 C 197.5,113.833 197.5,115.167 197.5,116.5C 196.094,116.973 195.427,117.973 195.5,119.5C 194.094,119.973 193.427,120.973 193.5,122.5C 193.5,122.833 193.5,123.167 193.5,123.5C 192.542,123.953 191.708,124.619 191,125.5C 189.675,129.428 189.342,133.428 190,137.5C 191.699,138.406 193.533,138.739 195.5,138.5C 196.117,138.611 196.617,138.944 197,139.5C 197.835,145.839 195.335,147.839 189.5,145.5C 189.573,143.973 188.906,142.973 187.5,142.5C 186.194,140.184 184.861,137.85 183.5,135.5C 184.833,135.5 186.167,135.5 187.5,135.5C 187.737,132.788 187.737,130.288 187.5,128C 184.24,127.216 181.073,127.383 178,128.5C 176.27,126.598 174.437,124.931 172.5,123.5C 174.167,123.5 175.833,123.5 177.5,123.5C 179.156,124.146 180.823,124.813 182.5,125.5C 184.038,125.547 185.038,124.88 185.5,123.5C 186.906,123.027 187.573,122.027 187.5,120.5C 187.5,120.167 187.5,119.833 187.5,119.5C 187.932,118.29 188.599,117.29 189.5,116.5C 190.906,116.027 191.573,115.027 191.5,113.5C 191.833,113.5 192.167,113.5 192.5,113.5C 192.343,114.873 192.51,116.207 193,117.5C 194.976,116.178 196.476,114.512 197.5,112.5 Z"/></g>
<g><path style="opacity:1" fill="#cf3232" d="M 248.5,129.5 C 248.833,129.5 249.167,129.5 249.5,129.5C 249.833,130.167 250.167,130.833 250.5,131.5C 250.833,132.833 251.167,134.167 251.5,135.5C 249.025,134.313 248.025,132.313 248.5,129.5 Z"/></g>
<g><path style="opacity:1" fill="#d23834" d="M 34.5,77.5 C 35.1667,78.5 35.8333,79.5 36.5,80.5C 37.5863,87.4398 38.2529,94.4398 38.5,101.5C 37.0564,113.101 36.3897,124.767 36.5,136.5C 36.8175,150.169 37.1509,163.836 37.5,177.5C 36.1352,167.867 35.1352,158.2 34.5,148.5C 34.5,148.167 34.5,147.833 34.5,147.5C 34.5,137.5 34.5,127.5 34.5,117.5C 34.5,116.5 34.5,115.5 34.5,114.5C 34.8333,114.5 35.1667,114.5 35.5,114.5C 37.0074,110.609 37.6741,106.442 37.5,102C 37.4978,98.9792 37.1644,96.1459 36.5,93.5C 35.6559,88.2305 34.9893,82.8972 34.5,77.5 Z"/></g>
<g><path style="opacity:1" fill="#fcbc27" d="M 138.5,128.5 C 139.919,127.549 141.585,127.216 143.5,127.5C 143.666,134.508 143.5,141.508 143,148.5C 142.768,149.737 142.268,150.737 141.5,151.5C 142.07,143.846 142.404,136.179 142.5,128.5C 141.167,128.5 139.833,128.5 138.5,128.5 Z"/></g>
<g><path style="opacity:1" fill="#e57378" d="M 250.5,131.5 C 252.199,133.566 253.532,135.9 254.5,138.5C 253.5,137.833 252.5,137.167 251.5,136.5C 251.5,136.167 251.5,135.833 251.5,135.5C 251.167,134.167 250.833,132.833 250.5,131.5 Z"/></g>
<g><path style="opacity:1" fill="#fbc82c" d="M 88.5,136.5 C 86.6948,138.197 84.3615,139.03 81.5,139C 80.6198,140.356 80.2865,141.856 80.5,143.5C 83.5804,143.252 86.5804,142.586 89.5,141.5C 92.5665,141.728 94.8998,143.061 96.5,145.5C 94.3071,144.32 91.9738,143.32 89.5,142.5C 85.9913,145.878 82.3247,146.212 78.5,143.5C 78.1043,140.956 78.771,138.789 80.5,137C 83.146,136.503 85.8127,136.336 88.5,136.5 Z"/></g>
<g><path style="opacity:1" fill="#d6423b" d="M 251.5,136.5 C 252.5,137.167 253.5,137.833 254.5,138.5C 256.263,141.02 258.263,143.353 260.5,145.5C 260.5,146.167 260.5,146.833 260.5,147.5C 256.328,144.841 253.328,141.174 251.5,136.5 Z"/></g>
<g><path style="opacity:1" fill="#ef0806" d="M 189.5,28.5 C 189.833,28.5 190.167,28.5 190.5,28.5C 208.249,27.9078 225.916,28.7411 243.5,31C 244.984,35.6403 246.651,40.1403 248.5,44.5C 249.804,48.3597 250.471,52.3597 250.5,56.5C 250.885,69.6386 249.718,82.6386 247,95.5C 242.808,102.742 241.641,110.408 243.5,118.5C 243.164,122.167 243.997,125.5 246,128.5C 246.671,129.252 247.504,129.586 248.5,129.5C 248.025,132.313 249.025,134.313 251.5,135.5C 251.5,135.833 251.5,136.167 251.5,136.5C 253.328,141.174 256.328,144.841 260.5,147.5C 260.427,149.027 261.094,150.027 262.5,150.5C 264.808,154.984 266.474,159.817 267.5,165C 267.415,166.107 267.081,167.107 266.5,168C 264.942,168.21 263.609,168.71 262.5,169.5C 255.716,170.425 250.049,173.425 245.5,178.5C 243.883,179.038 242.216,179.371 240.5,179.5C 239.85,177.565 239.517,175.565 239.5,173.5C 241.467,173.261 243.301,173.594 245,174.5C 246.11,172.963 247.61,172.297 249.5,172.5C 250.406,169.564 251.072,166.564 251.5,163.5C 254.93,162.811 258.264,162.478 261.5,162.5C 262.059,156.945 260.725,151.945 257.5,147.5C 256.28,146.289 255.113,146.289 254,147.5C 253,146.833 252,146.167 251,145.5C 250.821,142.447 250.321,139.447 249.5,136.5C 246.867,135.699 245.033,134.033 244,131.5C 241.498,122.656 240.498,113.656 241,104.5C 242.99,97.7314 243.99,90.7314 244,83.5C 245.713,82.1218 247.047,80.4552 248,78.5C 248.831,72.1405 248.664,65.8072 247.5,59.5C 245.457,58.4206 244.124,56.754 243.5,54.5C 244.351,50.8823 245.017,47.2157 245.5,43.5C 243.737,39.6812 242.737,35.6812 242.5,31.5C 224.495,30.4997 206.495,30.4997 188.5,31.5C 187.548,33.5116 185.881,34.5116 183.5,34.5C 180.814,33.9876 178.147,33.821 175.5,34C 175.167,34.3333 174.833,34.6667 174.5,35C 175.938,35.2189 177.271,35.7189 178.5,36.5C 174.99,38.1757 171.49,39.8424 168,41.5C 165.093,40.808 162.259,39.808 159.5,38.5C 156.059,41.2001 152.059,42.5334 147.5,42.5C 147.657,43.8734 147.49,45.2068 147,46.5C 143.955,49.4349 143.122,52.7682 144.5,56.5C 145.5,56.5 146.5,56.5 147.5,56.5C 147.5,57.8333 147.5,59.1667 147.5,60.5C 148.833,60.5 150.167,60.5 151.5,60.5C 151.312,62.1033 151.812,63.4366 153,64.5C 157.326,58.45 161.993,54.1167 167,51.5C 171.838,52.9693 174.005,56.6359 173.5,62.5C 172.566,61.4324 172.232,60.099 172.5,58.5C 169.447,58.0893 166.447,57.4226 163.5,56.5C 160.61,58.0429 158.943,60.3762 158.5,63.5C 158.5,64.5 158.5,65.5 158.5,66.5C 155.43,66.6323 152.43,66.299 149.5,65.5C 147.566,64.8897 145.899,63.8897 144.5,62.5C 143.5,61.1667 142.5,59.8333 141.5,58.5C 142.229,53.259 140.896,48.759 137.5,45C 141.339,44.4246 144.339,42.5913 146.5,39.5C 146.833,39.5 147.167,39.5 147.5,39.5C 153.918,39.3651 159.584,37.3651 164.5,33.5C 164.833,33.5 165.167,33.5 165.5,33.5C 168.187,33.6641 170.854,33.4974 173.5,33C 178.951,31.6362 184.284,30.1362 189.5,28.5 Z"/></g>
<g><path style="opacity:1" fill="#fdbe2b" d="M 168.5,66.5 C 168.444,62.1425 166.444,60.8092 162.5,62.5C 162.5,61.8333 162.5,61.1667 162.5,60.5C 163.097,59.8614 163.93,59.528 165,59.5C 169.265,60.3931 170.432,62.7264 168.5,66.5 Z"/></g>
<g><path style="opacity:1" fill="#ed9410" d="M 148.5,134.5 C 149.924,136.515 150.59,138.848 150.5,141.5C 149.076,139.485 148.41,137.152 148.5,134.5 Z"/></g>
<g><path style="opacity:1" fill="#fee81f" d="M 151.5,123.5 C 151.833,123.5 152.167,123.5 152.5,123.5C 151.112,130.19 151.279,136.856 153,143.5C 153.499,138.845 153.666,134.179 153.5,129.5C 156.762,128.047 160.262,127.381 164,127.5C 166.361,127.504 168.527,127.837 170.5,128.5C 166.298,128.183 162.298,128.517 158.5,129.5C 157.883,129.611 157.383,129.944 157,130.5C 156.501,135.823 156.334,141.156 156.5,146.5C 156.629,149.766 157.629,152.766 159.5,155.5C 158.3,156.292 156.967,156.292 155.5,155.5C 154.035,150.934 152.368,146.601 150.5,142.5C 150.5,142.167 150.5,141.833 150.5,141.5C 150.59,138.848 149.924,136.515 148.5,134.5C 148.5,133.5 148.5,132.5 148.5,131.5C 147.828,128.058 148.828,125.391 151.5,123.5 Z"/></g>
<g><path style="opacity:1" fill="#feea1e" d="M 139.5,101.5 C 140.038,103.117 140.371,104.784 140.5,106.5C 141.902,111.384 142.569,116.384 142.5,121.5C 141.737,122.268 140.737,122.768 139.5,123C 132.5,123.667 125.5,123.667 118.5,123C 114.737,121.136 110.737,119.969 106.5,119.5C 103.172,118.149 101.839,119.483 102.5,123.5C 101.552,126.14 100.552,128.807 99.5,131.5C 97.466,133.655 97.1326,135.988 98.5,138.5C 98.8333,140.833 100.167,142.167 102.5,142.5C 104.786,146.471 108.119,148.804 112.5,149.5C 115.167,147.5 117.5,145.167 119.5,142.5C 119.5,141.833 119.833,141.5 120.5,141.5C 122.749,140.92 124.415,139.587 125.5,137.5C 127.179,137.108 128.846,136.608 130.5,136C 133.659,134.007 136.326,131.507 138.5,128.5C 139.833,128.5 141.167,128.5 142.5,128.5C 142.404,136.179 142.07,143.846 141.5,151.5C 141.702,153.95 141.369,156.283 140.5,158.5C 139.5,158.5 138.5,158.5 137.5,158.5C 137.896,161.482 137.229,164.149 135.5,166.5C 135.167,165.167 134.833,163.833 134.5,162.5C 136.717,157.634 138.05,152.467 138.5,147C 138.497,144.31 138.164,141.81 137.5,139.5C 135.185,136.811 133.185,137.145 131.5,140.5C 126.957,142.372 123.29,145.372 120.5,149.5C 119.5,149.833 118.833,150.5 118.5,151.5C 116.178,152.802 114.845,154.802 114.5,157.5C 114.167,157.5 113.833,157.5 113.5,157.5C 113.833,155.5 114.167,153.5 114.5,151.5C 112.208,151.756 110.041,151.423 108,150.5C 107.51,151.793 107.343,153.127 107.5,154.5C 106.833,154.5 106.167,154.5 105.5,154.5C 105.5,153.833 105.167,153.5 104.5,153.5C 103.833,150.833 102.167,149.167 99.5,148.5C 98.8333,148.167 98.1667,147.833 97.5,147.5C 97.1667,146.833 96.8333,146.167 96.5,145.5C 94.8998,143.061 92.5665,141.728 89.5,141.5C 86.5804,142.586 83.5804,143.252 80.5,143.5C 80.2865,141.856 80.6198,140.356 81.5,139C 84.3615,139.03 86.6948,138.197 88.5,136.5C 89.0798,134.251 90.4131,132.585 92.5,131.5C 94.335,130.878 95.5017,129.544 96,127.5C 96.8215,124.883 97.3215,122.216 97.5,119.5C 97.5,117.167 97.5,114.833 97.5,112.5C 96.0949,109.903 94.9282,107.237 94,104.5C 94.414,104.043 94.914,103.709 95.5,103.5C 97.9655,104.255 99.9655,105.588 101.5,107.5C 103.443,110.471 106.109,112.471 109.5,113.5C 109.611,114.117 109.944,114.617 110.5,115C 118.525,117.502 126.525,118.002 134.5,116.5C 135.167,116.5 135.833,116.5 136.5,116.5C 131.933,118.285 126.933,119.118 121.5,119C 121.043,119.414 120.709,119.914 120.5,120.5C 127.468,121.497 134.468,121.83 141.5,121.5C 140.624,116.226 139.624,110.893 138.5,105.5C 137.818,106.243 137.151,106.909 136.5,107.5C 136.5,106.833 136.167,106.5 135.5,106.5C 134.422,102.69 133.089,99.0231 131.5,95.5C 132.552,95.3505 133.552,95.5172 134.5,96C 135.851,98.2645 137.517,100.098 139.5,101.5 Z"/></g>
<g><path style="opacity:1" fill="#fcb125" d="M 125.5,137.5 C 124.415,139.587 122.749,140.92 120.5,141.5C 121.585,139.413 123.251,138.08 125.5,137.5 Z"/></g>
<g><path style="opacity:1" fill="#ef9716" d="M 98.5,138.5 C 100.167,139.5 101.5,140.833 102.5,142.5C 100.167,142.167 98.8333,140.833 98.5,138.5 Z"/></g>
<g><path style="opacity:1" fill="#e28609" d="M 137.5,139.5 C 137.656,143.764 136.989,147.764 135.5,151.5C 135.666,147.154 135.499,142.821 135,138.5C 134.184,139.823 133.017,140.489 131.5,140.5C 133.185,137.145 135.185,136.811 137.5,139.5 Z"/></g>
<g><path style="opacity:1" fill="#ce6002" d="M 99.5,131.5 C 99.3259,133.861 98.9926,136.194 98.5,138.5C 97.1326,135.988 97.466,133.655 99.5,131.5 Z"/></g>
<g><path style="opacity:1" fill="#fcc629" d="M 138.5,128.5 C 136.326,131.507 133.659,134.007 130.5,136C 128.846,136.608 127.179,137.108 125.5,137.5C 126.973,135.605 128.64,133.939 130.5,132.5C 133.193,131.153 135.86,129.82 138.5,128.5 Z"/></g>
<g><path style="opacity:1" fill="#fdf513" d="M 136.5,116.5 C 136.5,113.5 136.5,110.5 136.5,107.5C 137.151,106.909 137.818,106.243 138.5,105.5C 139.624,110.893 140.624,116.226 141.5,121.5C 134.468,121.83 127.468,121.497 120.5,120.5C 120.709,119.914 121.043,119.414 121.5,119C 126.933,119.118 131.933,118.285 136.5,116.5 Z"/></g>
<g><path style="opacity:1" fill="#e19f05" d="M 106.5,119.5 C 105.508,119.328 104.842,119.662 104.5,120.5C 103.833,121.5 103.167,122.5 102.5,123.5C 101.839,119.483 103.172,118.149 106.5,119.5 Z"/></g>
<g><path style="opacity:1" fill="#ee8813" d="M 109.5,113.5 C 110.167,113.5 110.833,113.5 111.5,113.5C 118.805,116.13 126.471,117.13 134.5,116.5C 126.525,118.002 118.525,117.502 110.5,115C 109.944,114.617 109.611,114.117 109.5,113.5 Z"/></g>
<g><path style="opacity:1" fill="#feb522" d="M 135.5,106.5 C 136.167,106.5 136.5,106.833 136.5,107.5C 136.5,110.5 136.5,113.5 136.5,116.5C 135.833,116.5 135.167,116.5 134.5,116.5C 135.324,113.236 135.658,109.902 135.5,106.5 Z"/></g>
<g><path style="opacity:1" fill="#df1f01" d="M 102.5,128.5 C 101.645,131.486 101.145,134.486 101,137.5C 105.019,140.748 109.519,142.748 114.5,143.5C 114.5,142.5 114.5,141.5 114.5,140.5C 115.873,140.657 117.207,140.49 118.5,140C 121.75,136.213 125.75,133.713 130.5,132.5C 128.64,133.939 126.973,135.605 125.5,137.5C 123.251,138.08 121.585,139.413 120.5,141.5C 119.833,141.5 119.5,141.833 119.5,142.5C 116.573,143.757 114.239,145.757 112.5,148.5C 111.448,148.649 110.448,148.483 109.5,148C 107.559,145.546 105.225,143.713 102.5,142.5C 101.5,140.833 100.167,139.5 98.5,138.5C 98.9926,136.194 99.3259,133.861 99.5,131.5C 100.728,130.694 101.728,129.694 102.5,128.5 Z"/></g>
<g><path style="opacity:1" fill="#e66564" d="M 260.5,147.5 C 261.906,147.973 262.573,148.973 262.5,150.5C 261.094,150.027 260.427,149.027 260.5,147.5 Z"/></g>
<g><path style="opacity:1" fill="#fedcdc" d="M 260.5,145.5 C 262.516,146.456 264.349,147.79 266,149.5C 268.045,154.024 269.545,158.691 270.5,163.5C 268.398,160.069 266.565,156.402 265,152.5C 264.292,151.619 263.458,150.953 262.5,150.5C 262.573,148.973 261.906,147.973 260.5,147.5C 260.5,146.833 260.5,146.167 260.5,145.5 Z"/></g>
<g><path style="opacity:1" fill="#d73f00" d="M 135.5,151.5 C 134.626,154.789 133.959,158.123 133.5,161.5C 131.926,163.102 131.259,165.102 131.5,167.5C 130.662,167.842 130.328,168.508 130.5,169.5C 130.167,169.5 129.833,169.5 129.5,169.5C 130.6,161.681 132.266,154.015 134.5,146.5C 134.167,144.833 133.833,143.167 133.5,141.5C 129.558,144.912 125.224,147.578 120.5,149.5C 123.29,145.372 126.957,142.372 131.5,140.5C 133.017,140.489 134.184,139.823 135,138.5C 135.499,142.821 135.666,147.154 135.5,151.5 Z"/></g>
<g><path style="opacity:1" fill="#d73d02" d="M 104.5,120.5 C 104.842,119.662 105.508,119.328 106.5,119.5C 110.737,119.969 114.737,121.136 118.5,123C 125.5,123.667 132.5,123.667 139.5,123C 140.737,122.768 141.737,122.268 142.5,121.5C 142.833,121.5 143.167,121.5 143.5,121.5C 143.119,122.931 142.119,123.764 140.5,124C 141.646,124.645 142.646,125.478 143.5,126.5C 144.497,134.138 144.831,141.804 144.5,149.5C 144.558,155.075 143.558,160.408 141.5,165.5C 140.5,166.167 139.5,166.833 138.5,167.5C 138.756,164.402 139.422,161.402 140.5,158.5C 141.369,156.283 141.702,153.95 141.5,151.5C 142.268,150.737 142.768,149.737 143,148.5C 143.5,141.508 143.666,134.508 143.5,127.5C 141.585,127.216 139.919,127.549 138.5,128.5C 135.86,129.82 133.193,131.153 130.5,132.5C 132.163,130.467 134.163,128.634 136.5,127C 125.404,126.798 114.737,124.631 104.5,120.5 Z"/></g>
<g><path style="opacity:1" fill="#e26109" d="M 150.5,142.5 C 152.368,146.601 154.035,150.934 155.5,155.5C 157.025,157.216 158.025,159.216 158.5,161.5C 157.833,161.5 157.167,161.5 156.5,161.5C 154.816,157.796 152.983,154.129 151,150.5C 150.51,149.207 150.343,147.873 150.5,146.5C 150.5,145.167 150.5,143.833 150.5,142.5 Z"/></g>
<g><path style="opacity:1" fill="#fdc928" d="M 156.5,146.5 C 156.833,146.5 157.167,146.5 157.5,146.5C 158.659,150.151 160.326,153.485 162.5,156.5C 163.167,157.5 163.833,158.5 164.5,159.5C 162.689,158.178 160.689,157.678 158.5,158C 159.337,159.011 159.67,160.178 159.5,161.5C 159.167,161.5 158.833,161.5 158.5,161.5C 158.025,159.216 157.025,157.216 155.5,155.5C 156.967,156.292 158.3,156.292 159.5,155.5C 157.629,152.766 156.629,149.766 156.5,146.5 Z"/></g>
<g><path style="opacity:1" fill="#d93c01" d="M 162.5,156.5 C 164.911,158.219 167.577,159.552 170.5,160.5C 173.315,158.765 176.315,158.265 179.5,159C 180.337,160.011 180.67,161.178 180.5,162.5C 179.508,162.672 178.842,162.338 178.5,161.5C 175.348,160.761 172.015,160.761 168.5,161.5C 166.847,161.34 165.514,160.674 164.5,159.5C 163.833,158.5 163.167,157.5 162.5,156.5 Z"/></g>
<g><path style="opacity:1" fill="#e97c10" d="M 178.5,161.5 C 175.001,162.444 171.668,162.444 168.5,161.5C 172.015,160.761 175.348,160.761 178.5,161.5 Z"/></g>
<g><path style="opacity:1" fill="#f50502" d="M 150.5,146.5 C 150.343,147.873 150.51,149.207 151,150.5C 152.983,154.129 154.816,157.796 156.5,161.5C 156.5,163.167 156.5,164.833 156.5,166.5C 154.801,166.34 153.134,166.506 151.5,167C 149.718,172.359 146.218,173.859 141,171.5C 140.51,169.455 140.677,167.455 141.5,165.5C 143.558,160.408 144.558,155.075 144.5,149.5C 145.911,147.461 147.911,146.461 150.5,146.5 Z"/></g>
<g><path style="opacity:1" fill="#d72c29" d="M 262.5,150.5 C 263.458,150.953 264.292,151.619 265,152.5C 266.565,156.402 268.398,160.069 270.5,163.5C 270.5,163.833 270.5,164.167 270.5,164.5C 270.5,165.5 270.5,166.5 270.5,167.5C 268.365,169.369 265.698,170.036 262.5,169.5C 263.609,168.71 264.942,168.21 266.5,168C 267.081,167.107 267.415,166.107 267.5,165C 266.474,159.817 264.808,154.984 262.5,150.5 Z"/></g>
<g><path style="opacity:1" fill="#fba829" d="M 133.5,161.5 C 133.741,163.898 133.074,165.898 131.5,167.5C 131.259,165.102 131.926,163.102 133.5,161.5 Z"/></g>
<g><path style="opacity:1" fill="#f10903" d="M 87.5,132.5 C 84.6255,134.075 81.4589,135.408 78,136.5C 77.2042,139.039 77.3709,141.372 78.5,143.5C 78.8007,146.359 80.4673,147.693 83.5,147.5C 86.1875,147.519 88.6875,146.852 91,145.5C 92.9214,147.003 95.088,147.669 97.5,147.5C 98.1667,147.833 98.8333,148.167 99.5,148.5C 100.5,149.833 101.5,151.167 102.5,152.5C 102.99,158.842 103.657,165.175 104.5,171.5C 106.702,172.434 108.702,172.1 110.5,170.5C 111.167,170.5 111.833,170.5 112.5,170.5C 113.5,170.5 114.5,170.5 115.5,170.5C 115.334,166.154 115.501,161.821 116,157.5C 118.039,156.022 118.872,154.022 118.5,151.5C 118.833,150.5 119.5,149.833 120.5,149.5C 125.224,147.578 129.558,144.912 133.5,141.5C 133.833,143.167 134.167,144.833 134.5,146.5C 132.266,154.015 130.6,161.681 129.5,169.5C 127.5,171.5 125.5,173.5 123.5,175.5C 121.589,176.075 119.922,177.075 118.5,178.5C 115.941,180.793 115.941,183.293 118.5,186C 122.872,187.419 126.206,186.252 128.5,182.5C 133.255,183.683 137.921,185.183 142.5,187C 141.95,190.578 142.617,194.078 144.5,197.5C 145.842,199.005 147.508,199.672 149.5,199.5C 149.611,200.117 149.944,200.617 150.5,201C 146.277,203.271 142.277,205.771 138.5,208.5C 137.791,209.404 136.791,209.737 135.5,209.5C 132.813,209.336 130.146,209.503 127.5,210C 124.938,211.793 122.272,213.293 119.5,214.5C 118.833,214.5 118.167,214.5 117.5,214.5C 110.275,216.016 102.942,216.85 95.5,217C 90.8024,217.649 86.8024,219.482 83.5,222.5C 82.8333,222.5 82.1667,222.5 81.5,222.5C 75.2251,224.088 68.8918,225.588 62.5,227C 56.8431,227.499 51.1764,227.666 45.5,227.5C 44.4097,226.143 43.0764,225.143 41.5,224.5C 48.9114,222.449 56.5781,221.116 64.5,220.5C 66.601,220.632 68.101,221.632 69,223.5C 73.3914,222.3 77.8914,221.466 82.5,221C 83.7887,217.803 85.7887,215.137 88.5,213C 88.1667,212.667 87.8333,212.333 87.5,212C 89.1667,211.167 90.8333,210.333 92.5,209.5C 94.6128,212.721 97.6128,214.055 101.5,213.5C 101.238,212.022 101.571,210.689 102.5,209.5C 105.768,213.388 109.101,213.388 112.5,209.5C 113.814,210.313 114.981,211.313 116,212.5C 118.304,210.932 120.804,209.765 123.5,209C 124.167,207.333 124.833,205.667 125.5,204C 130.059,203.9 134.392,204.566 138.5,206C 139.24,203.728 139.24,201.728 138.5,200C 134.413,196.987 135.08,195.487 140.5,195.5C 139.828,192.656 138.495,190.156 136.5,188C 134.479,187.86 132.645,187.693 131,187.5C 127.405,189.456 123.572,189.956 119.5,189C 118.371,186.832 116.871,186.332 115,187.5C 113.595,184.381 113.095,181.048 113.5,177.5C 114.5,177.5 115.5,177.5 116.5,177.5C 116.5,176.167 116.5,174.833 116.5,173.5C 111.5,173.5 106.5,173.5 101.5,173.5C 100.021,168.873 100.354,164.373 102.5,160C 100.688,149.094 95.0214,146.26 85.5,151.5C 81.2514,150.62 78.0847,148.287 76,144.5C 74.5223,135.624 78.3556,131.624 87.5,132.5 Z"/></g>
<g><path style="opacity:1" fill="#fee624" d="M 112.5,159.5 C 112.665,162.518 112.498,165.518 112,168.5C 110.301,169.406 108.467,169.739 106.5,169.5C 105.833,169.5 105.5,169.167 105.5,168.5C 105.054,165.99 105.72,163.99 107.5,162.5C 107.215,164.288 107.548,165.955 108.5,167.5C 108.833,167.333 109.167,167.167 109.5,167C 109.846,164.06 110.846,161.56 112.5,159.5 Z"/></g>
<g><path style="opacity:1" fill="#f9a628" d="M 113.5,157.5 C 113.833,157.5 114.167,157.5 114.5,157.5C 113.898,161.87 113.231,166.203 112.5,170.5C 111.833,170.5 111.167,170.5 110.5,170.5C 108.901,170.768 107.568,170.434 106.5,169.5C 108.467,169.739 110.301,169.406 112,168.5C 112.498,165.518 112.665,162.518 112.5,159.5C 112.833,158.833 113.167,158.167 113.5,157.5 Z"/></g>
<g><path style="opacity:1" fill="#d73c00" d="M 118.5,151.5 C 118.872,154.022 118.039,156.022 116,157.5C 115.501,161.821 115.334,166.154 115.5,170.5C 114.5,170.5 113.5,170.5 112.5,170.5C 113.231,166.203 113.898,161.87 114.5,157.5C 114.845,154.802 116.178,152.802 118.5,151.5 Z"/></g>
<g><path style="opacity:1" fill="#faf80e" d="M 113.5,157.5 C 113.167,158.167 112.833,158.833 112.5,159.5C 110.846,161.56 109.846,164.06 109.5,167C 109.167,167.167 108.833,167.333 108.5,167.5C 107.548,165.955 107.215,164.288 107.5,162.5C 107.5,159.833 107.5,157.167 107.5,154.5C 107.343,153.127 107.51,151.793 108,150.5C 110.041,151.423 112.208,151.756 114.5,151.5C 114.167,153.5 113.833,155.5 113.5,157.5 Z"/></g>
<g><path style="opacity:1" fill="#fec82b" d="M 105.5,154.5 C 106.167,154.5 106.833,154.5 107.5,154.5C 107.5,157.167 107.5,159.833 107.5,162.5C 105.72,163.99 105.054,165.99 105.5,168.5C 105.799,164.017 105.799,159.351 105.5,154.5 Z"/></g>
<g><path style="opacity:1" fill="#f7a020" d="M 99.5,148.5 C 102.167,149.167 103.833,150.833 104.5,153.5C 103.833,153.167 103.167,152.833 102.5,152.5C 101.5,151.167 100.5,149.833 99.5,148.5 Z"/></g>
<g><path style="opacity:1" fill="#dd3403" d="M 96.5,145.5 C 96.8333,146.167 97.1667,146.833 97.5,147.5C 95.088,147.669 92.9214,147.003 91,145.5C 88.6875,146.852 86.1875,147.519 83.5,147.5C 80.4673,147.693 78.8007,146.359 78.5,143.5C 82.3247,146.212 85.9913,145.878 89.5,142.5C 91.9738,143.32 94.3071,144.32 96.5,145.5 Z"/></g>
<g><path style="opacity:1" fill="#f8a720" d="M 119.5,142.5 C 117.5,145.167 115.167,147.5 112.5,149.5C 112.5,149.167 112.5,148.833 112.5,148.5C 114.239,145.757 116.573,143.757 119.5,142.5 Z"/></g>
<g><path style="opacity:1" fill="#e5700a" d="M 102.5,142.5 C 105.225,143.713 107.559,145.546 109.5,148C 110.448,148.483 111.448,148.649 112.5,148.5C 112.5,148.833 112.5,149.167 112.5,149.5C 108.119,148.804 104.786,146.471 102.5,142.5 Z"/></g>
<g><path style="opacity:1" fill="#f6acaa" d="M 34.5,148.5 C 35.1352,158.2 36.1352,167.867 37.5,177.5C 37.8278,188.346 37.4944,199.013 36.5,209.5C 36.6665,199.161 36.4998,188.828 36,178.5C 35.8171,175.635 35.3171,172.969 34.5,170.5C 34.5,163.167 34.5,155.833 34.5,148.5 Z"/></g>
<g><path style="opacity:1" fill="#dc6407" d="M 180.5,163.5 C 181.811,165.56 181.811,167.726 180.5,170C 174.833,170.333 169.167,170.667 163.5,171C 162.627,172.045 161.627,172.878 160.5,173.5C 160.916,171.248 162.249,169.748 164.5,169C 169.505,168.918 174.505,168.918 179.5,169C 180.406,167.301 180.739,165.467 180.5,163.5 Z"/></g>
<g><path style="opacity:1" fill="#e07f7e" d="M 270.5,167.5 C 271.404,168.209 271.737,169.209 271.5,170.5C 267.007,170.269 262.674,170.936 258.5,172.5C 259.59,171.143 260.924,170.143 262.5,169.5C 265.698,170.036 268.365,169.369 270.5,167.5 Z"/></g>
<g><path style="opacity:1" fill="#e34608" d="M 102.5,152.5 C 103.167,152.833 103.833,153.167 104.5,153.5C 105.167,153.5 105.5,153.833 105.5,154.5C 105.799,159.351 105.799,164.017 105.5,168.5C 105.5,169.167 105.833,169.5 106.5,169.5C 107.568,170.434 108.901,170.768 110.5,170.5C 108.702,172.1 106.702,172.434 104.5,171.5C 103.657,165.175 102.99,158.842 102.5,152.5 Z"/></g>
<g><path style="opacity:1" fill="#cf3e38" d="M 262.5,169.5 C 260.924,170.143 259.59,171.143 258.5,172.5C 254.571,174.133 250.904,176.133 247.5,178.5C 246.833,178.5 246.167,178.5 245.5,178.5C 250.049,173.425 255.716,170.425 262.5,169.5 Z"/></g>
<g><path style="opacity:1" fill="#fcf412" d="M 145.5,185.5 C 142.193,183.957 138.86,182.623 135.5,181.5C 134.378,180.844 133.045,180.511 131.5,180.5C 129.667,180.585 128.334,181.252 127.5,182.5C 126.5,183.167 125.5,183.833 124.5,184.5C 123.167,184.5 121.833,184.5 120.5,184.5C 119.924,180.888 120.924,177.888 123.5,175.5C 125.167,174.833 126.833,174.167 128.5,173.5C 129.5,173.5 130.5,173.5 131.5,173.5C 131.5,172.5 131.5,171.5 131.5,170.5C 132.5,170.5 133.5,170.5 134.5,170.5C 134.343,171.873 134.51,173.207 135,174.5C 136.487,175.155 137.653,176.155 138.5,177.5C 141.734,178.041 144.567,179.374 147,181.5C 148.814,180.24 150.647,180.24 152.5,181.5C 151.478,184.987 149.145,186.32 145.5,185.5 Z"/></g>
<g><path style="opacity:1" fill="#f00c02" d="M 172.5,193.5 C 172.389,194.117 172.056,194.617 171.5,195C 169.167,195.333 166.833,195.667 164.5,196C 163.619,196.708 162.953,197.542 162.5,198.5C 162.167,198.5 161.833,198.5 161.5,198.5C 159.167,198.5 156.833,198.5 154.5,198.5C 156.443,197.709 157.443,196.209 157.5,194C 155.851,189.668 155.185,185.168 155.5,180.5C 157.482,178.498 159.148,176.165 160.5,173.5C 161.627,172.878 162.627,172.045 163.5,171C 169.167,170.667 174.833,170.333 180.5,170C 181.811,167.726 181.811,165.56 180.5,163.5C 180.5,163.167 180.5,162.833 180.5,162.5C 180.67,161.178 180.337,160.011 179.5,159C 176.315,158.265 173.315,158.765 170.5,160.5C 167.577,159.552 164.911,158.219 162.5,156.5C 160.326,153.485 158.659,150.151 157.5,146.5C 157.5,141.5 157.5,136.5 157.5,131.5C 164.202,131.336 170.869,131.669 177.5,132.5C 180.812,135.812 184.146,139.146 187.5,142.5C 187.5,143.167 187.5,143.833 187.5,144.5C 188.618,149.254 191.618,150.754 196.5,149C 199.311,145.919 199.978,142.419 198.5,138.5C 195.711,136.632 194.378,133.966 194.5,130.5C 194.952,126.295 195.952,122.295 197.5,118.5C 197.833,117.833 198.167,117.167 198.5,116.5C 201.391,115.597 204.391,115.264 207.5,115.5C 207.5,111.5 207.5,107.5 207.5,103.5C 202.5,103.5 197.5,103.5 192.5,103.5C 191.925,101.589 190.925,99.922 189.5,98.5C 187.971,95.9789 186.971,93.1456 186.5,90C 186.481,86.9951 187.148,84.1618 188.5,81.5C 187.517,74.727 183.851,72.727 177.5,75.5C 177.5,74.5 177.5,73.5 177.5,72.5C 181.682,72.3204 185.682,72.987 189.5,74.5C 189.564,79.1928 189.231,83.8595 188.5,88.5C 188.833,89.8333 189.167,91.1667 189.5,92.5C 192.672,93.3314 194.338,95.3314 194.5,98.5C 198.795,98.7213 199.462,97.3879 196.5,94.5C 196.833,94.1667 197.167,93.8333 197.5,93.5C 200.897,95.164 204.564,95.9973 208.5,96C 209.833,97.3333 209.833,98.6667 208.5,100C 209.98,102.247 210.647,104.747 210.5,107.5C 210.217,111.196 209.717,114.863 209,118.5C 206.26,119.282 203.426,119.782 200.5,120C 198.359,123.575 196.693,127.409 195.5,131.5C 196.391,132.59 197.391,132.59 198.5,131.5C 199.187,133.274 200.02,134.941 201,136.5C 202.356,135.62 203.856,135.286 205.5,135.5C 204.705,140.586 202.705,145.086 199.5,149C 201.201,150.86 202.201,153.027 202.5,155.5C 199.956,155.896 197.789,155.229 196,153.5C 195.612,154.428 194.945,155.095 194,155.5C 192.526,153.084 190.36,152.084 187.5,152.5C 187.5,150.833 187.5,149.167 187.5,147.5C 185.173,147.753 183.173,147.086 181.5,145.5C 179.726,142.763 178.059,140.096 176.5,137.5C 173.23,137.698 171.23,136.198 170.5,133C 161.311,130.897 158.311,134.397 161.5,143.5C 162.167,142.833 162.833,142.167 163.5,141.5C 164.793,144.206 164.459,146.706 162.5,149C 162.862,150.225 163.362,151.391 164,152.5C 164.333,152.167 164.667,151.833 165,151.5C 165.494,153.134 165.66,154.801 165.5,156.5C 170.376,156.444 175.376,156.777 180.5,157.5C 180.709,158.086 181.043,158.586 181.5,159C 183.9,159.186 186.234,159.686 188.5,160.5C 187.687,161.814 186.687,162.981 185.5,164C 186.448,164.483 187.448,164.649 188.5,164.5C 188.258,169.018 188.092,173.684 188,178.5C 186.667,177.167 185.333,177.167 184,178.5C 183.5,177.333 182.667,176.5 181.5,176C 184.028,175.331 184.028,174.498 181.5,173.5C 180.833,174.833 180.167,176.167 179.5,177.5C 178.808,176.975 178.308,176.308 178,175.5C 177.275,177.158 176.108,177.658 174.5,177C 173.244,174.372 171.244,173.372 168.5,174C 171.226,177.63 170.226,178.963 165.5,178C 165.957,177.586 166.291,177.086 166.5,176.5C 161.21,175.462 160.21,177.295 163.5,182C 162.256,184.303 160.589,184.803 158.5,183.5C 158.167,184.667 157.833,185.833 157.5,187C 158.107,190.143 158.441,193.31 158.5,196.5C 159.873,196.657 161.207,196.49 162.5,196C 165.365,193.714 168.698,192.88 172.5,193.5 Z"/></g>
<g><path style="opacity:1" fill="#fa9e21" d="M 187.5,142.5 C 188.906,142.973 189.573,143.973 189.5,145.5C 188.833,145.167 188.167,144.833 187.5,144.5C 187.5,143.833 187.5,143.167 187.5,142.5 Z"/></g>
<g><path style="opacity:1" fill="#d74d01" d="M 177.5,132.5 C 179.167,133.167 180.833,133.833 182.5,134.5C 183.167,134.5 183.5,134.833 183.5,135.5C 184.861,137.85 186.194,140.184 187.5,142.5C 184.146,139.146 180.812,135.812 177.5,132.5 Z"/></g>
<g><path style="opacity:1" fill="#f7ac1f" d="M 129.5,169.5 C 129.833,169.5 130.167,169.5 130.5,169.5C 130.267,171.062 129.6,172.395 128.5,173.5C 126.833,174.167 125.167,174.833 123.5,175.5C 125.5,173.5 127.5,171.5 129.5,169.5 Z"/></g>
<g><path style="opacity:1" fill="#ee8517" d="M 160.5,173.5 C 159.148,176.165 157.482,178.498 155.5,180.5C 156.01,177.326 157.677,174.992 160.5,173.5 Z"/></g>
<g><path style="opacity:1" fill="#fee5e4" d="M 270.5,164.5 C 271.5,164.5 272.5,164.5 273.5,164.5C 273.5,166.833 273.5,169.167 273.5,171.5C 266.14,171.511 259.474,173.511 253.5,177.5C 251.604,178.466 249.604,178.799 247.5,178.5C 250.904,176.133 254.571,174.133 258.5,172.5C 262.674,170.936 267.007,170.269 271.5,170.5C 271.737,169.209 271.404,168.209 270.5,167.5C 270.5,166.5 270.5,165.5 270.5,164.5 Z"/></g>
<g><path style="opacity:1" fill="#fde521" d="M 137.5,139.5 C 138.164,141.81 138.497,144.31 138.5,147C 138.05,152.467 136.717,157.634 134.5,162.5C 134.833,163.833 135.167,165.167 135.5,166.5C 137.229,164.149 137.896,161.482 137.5,158.5C 138.5,158.5 139.5,158.5 140.5,158.5C 139.422,161.402 138.756,164.402 138.5,167.5C 137.307,167.97 136.64,168.97 136.5,170.5C 136.667,171.5 136.833,172.5 137,173.5C 139.542,175.182 142.375,176.182 145.5,176.5C 146.519,178.101 148.019,179.101 150,179.5C 151.03,179.164 151.53,178.497 151.5,177.5C 151.5,176.833 151.5,176.167 151.5,175.5C 153.543,174.421 154.876,172.754 155.5,170.5C 155.762,168.436 156.929,167.103 159,166.5C 159.494,164.866 159.66,163.199 159.5,161.5C 159.67,160.178 159.337,159.011 158.5,158C 160.689,157.678 162.689,158.178 164.5,159.5C 165.514,160.674 166.847,161.34 168.5,161.5C 171.668,162.444 175.001,162.444 178.5,161.5C 178.842,162.338 179.508,162.672 180.5,162.5C 180.5,162.833 180.5,163.167 180.5,163.5C 180.739,165.467 180.406,167.301 179.5,169C 174.505,168.918 169.505,168.918 164.5,169C 162.249,169.748 160.916,171.248 160.5,173.5C 157.677,174.992 156.01,177.326 155.5,180.5C 153.974,181.492 153.307,182.992 153.5,185C 153.872,187.743 154.539,190.41 155.5,193C 154.841,197.082 152.508,198.416 148.5,197C 146.231,194.638 145.898,191.971 147.5,189C 147.022,187.697 146.355,186.531 145.5,185.5C 149.145,186.32 151.478,184.987 152.5,181.5C 150.647,180.24 148.814,180.24 147,181.5C 144.567,179.374 141.734,178.041 138.5,177.5C 137.653,176.155 136.487,175.155 135,174.5C 134.51,173.207 134.343,171.873 134.5,170.5C 133.5,170.5 132.5,170.5 131.5,170.5C 131.5,171.5 131.5,172.5 131.5,173.5C 130.5,173.5 129.5,173.5 128.5,173.5C 129.6,172.395 130.267,171.062 130.5,169.5C 130.328,168.508 130.662,167.842 131.5,167.5C 133.074,165.898 133.741,163.898 133.5,161.5C 133.959,158.123 134.626,154.789 135.5,151.5C 136.989,147.764 137.656,143.764 137.5,139.5 Z"/></g>
<g><path style="opacity:1" fill="#f2b51a" d="M 145.5,176.5 C 147.435,177.15 149.435,177.483 151.5,177.5C 151.53,178.497 151.03,179.164 150,179.5C 148.019,179.101 146.519,178.101 145.5,176.5 Z"/></g>
<g><path style="opacity:1" fill="#dd6309" d="M 138.5,167.5 C 138.318,169.591 138.652,171.591 139.5,173.5C 141.884,174.011 143.884,175.011 145.5,176.5C 142.375,176.182 139.542,175.182 137,173.5C 136.833,172.5 136.667,171.5 136.5,170.5C 136.64,168.97 137.307,167.97 138.5,167.5 Z"/></g>
<g><path style="opacity:1" fill="#f8a921" d="M 155.5,170.5 C 154.876,172.754 153.543,174.421 151.5,175.5C 152.136,173.205 153.469,171.539 155.5,170.5 Z"/></g>
<g><path style="opacity:1" fill="#e21f00" d="M 156.5,161.5 C 157.167,161.5 157.833,161.5 158.5,161.5C 158.833,161.5 159.167,161.5 159.5,161.5C 159.66,163.199 159.494,164.866 159,166.5C 156.929,167.103 155.762,168.436 155.5,170.5C 153.469,171.539 152.136,173.205 151.5,175.5C 151.5,176.167 151.5,176.833 151.5,177.5C 149.435,177.483 147.435,177.15 145.5,176.5C 143.884,175.011 141.884,174.011 139.5,173.5C 138.652,171.591 138.318,169.591 138.5,167.5C 139.5,166.833 140.5,166.167 141.5,165.5C 140.677,167.455 140.51,169.455 141,171.5C 146.218,173.859 149.718,172.359 151.5,167C 153.134,166.506 154.801,166.34 156.5,166.5C 156.5,164.833 156.5,163.167 156.5,161.5 Z"/></g>
<g><path style="opacity:1" fill="#fdaa26" d="M 135.5,181.5 C 132.941,181.198 130.607,181.532 128.5,182.5C 128.167,182.5 127.833,182.5 127.5,182.5C 128.334,181.252 129.667,180.585 131.5,180.5C 133.045,180.511 134.378,180.844 135.5,181.5 Z"/></g>
<g><path style="opacity:1" fill="#cd3031" d="M 245.5,178.5 C 244.41,179.857 243.076,180.857 241.5,181.5C 240.167,181.833 238.833,182.167 237.5,182.5C 238.1,181.1 239.1,180.1 240.5,179.5C 242.216,179.371 243.883,179.038 245.5,178.5 Z"/></g>
<g><path style="opacity:1" fill="#e6570d" d="M 118.5,178.5 C 117.164,184.504 119.164,186.504 124.5,184.5C 125.5,183.833 126.5,183.167 127.5,182.5C 127.833,182.5 128.167,182.5 128.5,182.5C 126.206,186.252 122.872,187.419 118.5,186C 115.941,183.293 115.941,180.793 118.5,178.5 Z"/></g>
<g><path style="opacity:1" fill="#fec834" d="M 123.5,175.5 C 120.924,177.888 119.924,180.888 120.5,184.5C 121.833,184.5 123.167,184.5 124.5,184.5C 119.164,186.504 117.164,184.504 118.5,178.5C 119.922,177.075 121.589,176.075 123.5,175.5 Z"/></g>
<g><path style="opacity:1" fill="#ffe9e8" d="M 245.5,178.5 C 246.167,178.5 246.833,178.5 247.5,178.5C 246.208,180.702 244.374,182.369 242,183.5C 241.517,184.448 241.351,185.448 241.5,186.5C 237,186.162 233.333,187.662 230.5,191C 227.823,191.249 225.49,192.249 223.5,194C 221.19,194.497 218.857,194.663 216.5,194.5C 218.072,193.313 219.739,192.313 221.5,191.5C 224.649,191.585 227.316,190.585 229.5,188.5C 229.5,187.833 229.833,187.5 230.5,187.5C 234.918,186.72 238.585,184.72 241.5,181.5C 243.076,180.857 244.41,179.857 245.5,178.5 Z"/></g>
<g><path style="opacity:1" fill="#e68481" d="M 241.5,181.5 C 238.585,184.72 234.918,186.72 230.5,187.5C 231.306,186.272 232.306,185.272 233.5,184.5C 235.062,184.267 236.395,183.6 237.5,182.5C 238.833,182.167 240.167,181.833 241.5,181.5 Z"/></g>
<g><path style="opacity:1" fill="#cb2724" d="M 233.5,184.5 C 232.306,185.272 231.306,186.272 230.5,187.5C 229.833,187.5 229.5,187.833 229.5,188.5C 226.921,188.394 224.588,189.061 222.5,190.5C 225.152,186.89 228.819,184.89 233.5,184.5 Z"/></g>
<g><path style="opacity:1" fill="#de3903" d="M 155.5,180.5 C 155.185,185.168 155.851,189.668 157.5,194C 157.443,196.209 156.443,197.709 154.5,198.5C 153.081,199.451 151.415,199.784 149.5,199.5C 147.508,199.672 145.842,199.005 144.5,197.5C 142.617,194.078 141.95,190.578 142.5,187C 137.921,185.183 133.255,183.683 128.5,182.5C 130.607,181.532 132.941,181.198 135.5,181.5C 138.86,182.623 142.193,183.957 145.5,185.5C 146.355,186.531 147.022,187.697 147.5,189C 145.898,191.971 146.231,194.638 148.5,197C 152.508,198.416 154.841,197.082 155.5,193C 154.539,190.41 153.872,187.743 153.5,185C 153.307,182.992 153.974,181.492 155.5,180.5 Z"/></g>
<g><path style="opacity:1" fill="#f9acac" d="M 229.5,188.5 C 227.316,190.585 224.649,191.585 221.5,191.5C 221.5,191.167 221.5,190.833 221.5,190.5C 221.833,190.5 222.167,190.5 222.5,190.5C 224.588,189.061 226.921,188.394 229.5,188.5 Z"/></g>
<g><path style="opacity:1" fill="#ffe4e2" d="M 34.5,170.5 C 35.3171,172.969 35.8171,175.635 36,178.5C 36.4998,188.828 36.6665,199.161 36.5,209.5C 35.5269,211.948 35.1936,214.615 35.5,217.5C 35.1667,217.5 34.8333,217.5 34.5,217.5C 34.5,201.833 34.5,186.167 34.5,170.5 Z"/></g>
<g><path style="opacity:1" fill="#d51d19" d="M 221.5,190.5 C 221.5,190.833 221.5,191.167 221.5,191.5C 214.288,193.182 206.955,193.848 199.5,193.5C 191.638,192.318 183.638,192.484 175.5,194C 174.058,194.377 173.058,195.21 172.5,196.5C 172.167,196.5 171.833,196.5 171.5,196.5C 168.402,196.756 165.402,197.422 162.5,198.5C 162.953,197.542 163.619,196.708 164.5,196C 166.833,195.667 169.167,195.333 171.5,195C 172.056,194.617 172.389,194.117 172.5,193.5C 178.308,191.472 184.308,190.472 190.5,190.5C 200.841,191.793 211.174,191.793 221.5,190.5 Z"/></g>
<g><path style="opacity:1" fill="#f79f9c" d="M 221.5,191.5 C 219.739,192.313 218.072,193.313 216.5,194.5C 206.5,194.5 196.5,194.5 186.5,194.5C 190.634,193.515 194.968,193.182 199.5,193.5C 206.955,193.848 214.288,193.182 221.5,191.5 Z"/></g>
<g><path style="opacity:1" fill="#d52d26" d="M 37.5,177.5 C 38.1174,177.611 38.6174,177.944 39,178.5C 39.8012,193.247 39.4679,207.913 38,222.5C 38.8159,223.823 39.9826,224.489 41.5,224.5C 43.0764,225.143 44.4097,226.143 45.5,227.5C 43.5648,226.85 41.5648,226.517 39.5,226.5C 36.1696,224.591 34.8363,221.591 35.5,217.5C 35.1936,214.615 35.5269,211.948 36.5,209.5C 37.4944,199.013 37.8278,188.346 37.5,177.5 Z"/></g>
<g><path style="opacity:1" fill="#ee8178" d="M 199.5,193.5 C 194.968,193.182 190.634,193.515 186.5,194.5C 181.673,194.221 177.007,194.887 172.5,196.5C 173.058,195.21 174.058,194.377 175.5,194C 183.638,192.484 191.638,192.318 199.5,193.5 Z"/></g>
<g><path style="opacity:1" fill="#d13126" d="M 154.5,198.5 C 156.833,198.5 159.167,198.5 161.5,198.5C 158.372,199.983 155.372,201.649 152.5,203.5C 149.18,204.393 146.18,205.727 143.5,207.5C 141.883,208.038 140.216,208.371 138.5,208.5C 142.277,205.771 146.277,203.271 150.5,201C 149.944,200.617 149.611,200.117 149.5,199.5C 151.415,199.784 153.081,199.451 154.5,198.5 Z"/></g>
<g><path style="opacity:1" fill="#f39e9c" d="M 171.5,196.5 C 165.473,199.401 159.139,201.734 152.5,203.5C 155.372,201.649 158.372,199.983 161.5,198.5C 161.833,198.5 162.167,198.5 162.5,198.5C 165.402,197.422 168.402,196.756 171.5,196.5 Z"/></g>
<g><path style="opacity:1" fill="#fcc8cc" d="M 143.5,207.5 C 142.71,208.794 141.71,209.961 140.5,211C 137.522,211.696 134.522,212.196 131.5,212.5C 132.833,211.5 134.167,210.5 135.5,209.5C 136.791,209.737 137.791,209.404 138.5,208.5C 140.216,208.371 141.883,208.038 143.5,207.5 Z"/></g>
<g><path style="opacity:1" fill="#d1231f" d="M 135.5,209.5 C 134.167,210.5 132.833,211.5 131.5,212.5C 129.784,212.629 128.117,212.962 126.5,213.5C 124.139,213.674 121.806,214.007 119.5,214.5C 122.272,213.293 124.938,211.793 127.5,210C 130.146,209.503 132.813,209.336 135.5,209.5 Z"/></g>
<g><path style="opacity:1" fill="#ee0706" d="M 70.5,65.5 C 69.6266,68.5766 67.7932,70.91 65,72.5C 61.575,71.4921 57.7417,70.8254 53.5,70.5C 49.8965,70.2556 46.5632,70.9222 43.5,72.5C 40.972,71.4826 40.972,70.3159 43.5,69C 39.9305,67.8952 37.9305,69.2286 37.5,73C 38.8333,74 38.8333,75 37.5,76C 40.399,78.6418 41.0656,81.6418 39.5,85C 39.8623,86.2247 40.3623,87.3914 41,88.5C 41.1667,92.6667 41.3333,96.8333 41.5,101C 39.3554,112.789 38.3554,124.789 38.5,137C 39.3348,154.513 40.3348,172.013 41.5,189.5C 41.5672,199.72 40.9006,209.887 39.5,220C 39.5186,221.833 40.1852,223.333 41.5,224.5C 39.9826,224.489 38.8159,223.823 38,222.5C 39.4679,207.913 39.8012,193.247 39,178.5C 38.6174,177.944 38.1174,177.611 37.5,177.5C 37.1509,163.836 36.8175,150.169 36.5,136.5C 36.3897,124.767 37.0564,113.101 38.5,101.5C 38.2529,94.4398 37.5863,87.4398 36.5,80.5C 36.5,76.1667 36.5,71.8333 36.5,67.5C 46.4861,68.4236 56.4861,68.5902 66.5,68C 67.7356,66.9152 69.0689,66.0819 70.5,65.5 Z"/></g>
<g><path style="opacity:1" fill="#e2686a" d="M 126.5,213.5 C 122.8,215.245 118.8,216.245 114.5,216.5C 115.5,215.833 116.5,215.167 117.5,214.5C 118.167,214.5 118.833,214.5 119.5,214.5C 121.806,214.007 124.139,213.674 126.5,213.5 Z"/></g>
<g><path style="opacity:1" fill="#d22e29" d="M 117.5,214.5 C 116.5,215.167 115.5,215.833 114.5,216.5C 113.081,217.451 111.415,217.784 109.5,217.5C 105.154,217.334 100.821,217.501 96.5,218C 95.2625,218.232 94.2625,218.732 93.5,219.5C 91.6976,220.458 89.6976,221.125 87.5,221.5C 86.1667,221.833 84.8333,222.167 83.5,222.5C 86.8024,219.482 90.8024,217.649 95.5,217C 102.942,216.85 110.275,216.016 117.5,214.5 Z"/></g>
<g><path style="opacity:1" fill="#e77877" d="M 109.5,217.5 C 109.5,218.167 109.167,218.5 108.5,218.5C 103.463,218.413 98.4635,218.746 93.5,219.5C 94.2625,218.732 95.2625,218.232 96.5,218C 100.821,217.501 105.154,217.334 109.5,217.5 Z"/></g>
<g><path style="opacity:1" fill="#fee7e7" d="M 108.5,218.5 C 102.892,221.052 96.8917,222.552 90.5,223C 88.2746,223.561 86.2746,224.561 84.5,226C 79.6293,226.22 74.9626,227.054 70.5,228.5C 72.0764,227.857 73.4097,226.857 74.5,225.5C 76.2161,225.371 77.8828,225.038 79.5,224.5C 82.716,224.655 85.3826,223.655 87.5,221.5C 89.6976,221.125 91.6976,220.458 93.5,219.5C 98.4635,218.746 103.463,218.413 108.5,218.5 Z"/></g>
<g><path style="opacity:1" fill="#ec8f8b" d="M 87.5,221.5 C 85.3826,223.655 82.716,224.655 79.5,224.5C 80.1667,223.833 80.8333,223.167 81.5,222.5C 82.1667,222.5 82.8333,222.5 83.5,222.5C 84.8333,222.167 86.1667,221.833 87.5,221.5 Z"/></g>
<g><path style="opacity:1" fill="#fabdba" d="M 34.5,217.5 C 34.8333,217.5 35.1667,217.5 35.5,217.5C 34.8363,221.591 36.1696,224.591 39.5,226.5C 37.8333,226.5 36.1667,226.5 34.5,226.5C 34.5,223.5 34.5,220.5 34.5,217.5 Z"/></g>
<g><path style="opacity:1" fill="#ee8885" d="M 74.5,225.5 C 73.4097,226.857 72.0764,227.857 70.5,228.5C 69.8333,228.5 69.1667,228.5 68.5,228.5C 70.0326,226.755 72.0326,225.755 74.5,225.5 Z"/></g>
<g><path style="opacity:1" fill="#e36a67" d="M 39.5,226.5 C 41.5648,226.517 43.5648,226.85 45.5,227.5C 45.5,227.833 45.5,228.167 45.5,228.5C 43.1016,228.741 41.1016,228.074 39.5,226.5 Z"/></g>
<g><path style="opacity:1" fill="#ca2622" d="M 81.5,222.5 C 80.8333,223.167 80.1667,223.833 79.5,224.5C 77.8828,225.038 76.2161,225.371 74.5,225.5C 72.0326,225.755 70.0326,226.755 68.5,228.5C 68.1667,228.5 67.8333,228.5 67.5,228.5C 61.5362,229.307 55.5362,229.64 49.5,229.5C 48.1667,229.167 46.8333,228.833 45.5,228.5C 45.5,228.167 45.5,227.833 45.5,227.5C 51.1764,227.666 56.8431,227.499 62.5,227C 68.8918,225.588 75.2251,224.088 81.5,222.5 Z"/></g>
<g><path style="opacity:1" fill="#feb4ad" d="M 67.5,228.5 C 67.0825,229.222 66.4158,229.722 65.5,230C 59.9836,230.817 54.6503,230.651 49.5,229.5C 55.5362,229.64 61.5362,229.307 67.5,228.5 Z"/></g>
<g><path style="opacity:1" fill="#d4d7d6" d="M 82.5,241.5 C 79.6589,240.776 76.9922,239.61 74.5,238C 71.854,237.503 69.1873,237.336 66.5,237.5C 65.391,237.557 64.391,237.89 63.5,238.5C 63.5,237.5 63.5,236.5 63.5,235.5C 71.1022,234.067 77.4355,236.067 82.5,241.5 Z"/></g>
<g><path style="opacity:1" fill="#e4e4e4" d="M 108.5,237.5 C 118.167,236.167 127.833,236.167 137.5,237.5C 132.833,237.5 128.167,237.5 123.5,237.5C 123.5,246.5 123.5,255.5 123.5,264.5C 122.833,264.5 122.167,264.5 121.5,264.5C 121.5,264.167 121.5,263.833 121.5,263.5C 122.493,255.016 122.826,246.349 122.5,237.5C 117.833,237.5 113.167,237.5 108.5,237.5 Z"/></g>
<g><path style="opacity:1" fill="#696969" d="M 200.5,238.5 C 204.97,237.514 209.637,237.181 214.5,237.5C 214.737,238.791 214.404,239.791 213.5,240.5C 209.627,238.57 205.294,237.903 200.5,238.5 Z"/></g>
<g><path style="opacity:1" fill="#1f1f1f" d="M 53.5,238.5 C 52.9898,241.388 53.6565,243.721 55.5,245.5C 54.4835,248.797 53.1501,251.797 51.5,254.5C 51.8333,252.5 52.1667,250.5 52.5,248.5C 52.5,248.167 52.5,247.833 52.5,247.5C 52.5,244.833 52.5,242.167 52.5,239.5C 44.5,239.5 36.5,239.5 28.5,239.5C 28.5,242.167 28.5,244.833 28.5,247.5C 27.5233,244.713 27.19,241.713 27.5,238.5C 36.1667,238.5 44.8333,238.5 53.5,238.5 Z"/></g>
<g><path style="opacity:1" fill="#090909" d="M 66.5,237.5 C 69.1873,237.336 71.854,237.503 74.5,238C 76.9922,239.61 79.6589,240.776 82.5,241.5C 83.8333,243.167 85.1667,244.833 86.5,246.5C 88.1517,251.341 88.8183,256.341 88.5,261.5C 88.5,262.167 88.5,262.833 88.5,263.5C 86.9899,265.322 85.6566,267.322 84.5,269.5C 83.5,269.833 82.8333,270.5 82.5,271.5C 80.847,271.66 79.5137,272.326 78.5,273.5C 72.8333,273.5 67.1667,273.5 61.5,273.5C 60.2511,271.864 58.5844,270.697 56.5,270C 55.5119,267.833 54.1786,266 52.5,264.5C 51.9492,261.193 51.6159,257.86 51.5,254.5C 53.1501,251.797 54.4835,248.797 55.5,245.5C 56.1112,243.225 57.4446,241.559 59.5,240.5C 62.491,240.834 64.8243,239.834 66.5,237.5 Z"/></g>
<g><path style="opacity:1" fill="#0b0b0b" d="M 165.5,237.5 C 167.176,239.834 169.509,240.834 172.5,240.5C 176.343,243.684 179.01,247.684 180.5,252.5C 180.5,254.833 180.5,257.167 180.5,259.5C 180.371,261.216 180.038,262.883 179.5,264.5C 178.094,264.973 177.427,265.973 177.5,267.5C 167.453,277.716 157.12,278.05 146.5,268.5C 146.631,267.624 146.298,266.957 145.5,266.5C 144.526,268.743 144.192,271.076 144.5,273.5C 138.167,273.5 131.833,273.5 125.5,273.5C 125.5,261.833 125.5,250.167 125.5,238.5C 129.167,238.5 132.833,238.5 136.5,238.5C 136.5,247.167 136.5,255.833 136.5,264.5C 139.059,264.802 141.393,264.468 143.5,263.5C 141.928,258.253 142.261,253.253 144.5,248.5C 145.906,248.027 146.573,247.027 146.5,245.5C 146.957,243.227 148.29,241.894 150.5,241.5C 152.75,240.87 154.75,239.87 156.5,238.5C 159.287,237.523 162.287,237.19 165.5,237.5 Z"/></g>
<g><path style="opacity:1" fill="#636363" d="M 165.5,237.5 C 168.157,237.935 170.491,238.935 172.5,240.5C 169.509,240.834 167.176,239.834 165.5,237.5 Z"/></g>
<g><path style="opacity:1" fill="#020202" d="M 52.5,247.5 C 50.1667,247.5 47.8333,247.5 45.5,247.5C 45.5,256.167 45.5,264.833 45.5,273.5C 41.8333,273.5 38.1667,273.5 34.5,273.5C 34.5,264.833 34.5,256.167 34.5,247.5C 32.5,247.5 30.5,247.5 28.5,247.5C 28.5,244.833 28.5,242.167 28.5,239.5C 36.5,239.5 44.5,239.5 52.5,239.5C 52.5,242.167 52.5,244.833 52.5,247.5 Z"/></g>
<g><path style="opacity:1" fill="#494747" d="M 66.5,237.5 C 64.8243,239.834 62.491,240.834 59.5,240.5C 60.5137,239.326 61.847,238.66 63.5,238.5C 64.391,237.89 65.391,237.557 66.5,237.5 Z"/></g>
<g><path style="opacity:1" fill="#0b0b0b" d="M 102.5,240.5 C 102.334,248.174 102.5,255.841 103,263.5C 104.943,264.807 106.777,264.807 108.5,263.5C 109.492,256.018 109.825,248.352 109.5,240.5C 111.048,239.206 113.048,238.539 115.5,238.5C 117.952,238.539 119.952,239.206 121.5,240.5C 120.781,249.37 120.114,258.37 119.5,267.5C 114.647,274.61 107.981,276.777 99.5,274C 95.9231,271.926 93.2565,269.093 91.5,265.5C 91.5,256.5 91.5,247.5 91.5,238.5C 95.649,237.92 99.3157,238.586 102.5,240.5 Z"/></g>
<g><path style="opacity:1" fill="#595959" d="M 156.5,238.5 C 154.75,239.87 152.75,240.87 150.5,241.5C 151.607,239.031 153.607,238.031 156.5,238.5 Z"/></g>
<g><path style="opacity:1" fill="#0a0a0a" d="M 194.5,240.5 C 193.345,247.321 193.179,254.321 194,261.5C 195.896,264.946 198.23,265.28 201,262.5C 201.77,254.452 201.603,246.452 200.5,238.5C 205.294,237.903 209.627,238.57 213.5,240.5C 212.508,247.982 212.175,255.648 212.5,263.5C 212.5,264.167 212.5,264.833 212.5,265.5C 212.5,265.833 212.5,266.167 212.5,266.5C 210.118,269.548 207.452,272.215 204.5,274.5C 196.634,276.7 190.134,274.7 185,268.5C 184.155,266.389 183.322,264.389 182.5,262.5C 182.5,254.5 182.5,246.5 182.5,238.5C 186.971,237.911 190.971,238.577 194.5,240.5 Z"/></g>
<g><path style="opacity:1" fill="#6b6b6b" d="M 221.5,238.5 C 220.713,240.104 219.38,240.771 217.5,240.5C 218.514,239.326 219.847,238.66 221.5,238.5 Z"/></g>
<g><path style="opacity:1" fill="#0a0a0a" d="M 221.5,238.5 C 225.833,238.5 230.167,238.5 234.5,238.5C 234.813,242.042 234.479,245.375 233.5,248.5C 231.824,246.166 229.491,245.166 226.5,245.5C 226.955,249.082 228.955,251.415 232.5,252.5C 234.473,253.806 236.139,255.473 237.5,257.5C 238.234,258.708 238.567,260.041 238.5,261.5C 238.5,263.167 238.5,264.833 238.5,266.5C 237.583,269.321 235.916,271.654 233.5,273.5C 232.833,273.5 232.167,273.5 231.5,273.5C 226.167,273.5 220.833,273.5 215.5,273.5C 215.185,269.629 215.518,265.962 216.5,262.5C 218.227,264.757 220.56,266.091 223.5,266.5C 226.91,265.418 227.41,263.418 225,260.5C 221.056,258.72 217.89,256.054 215.5,252.5C 215.342,249.098 215.676,245.764 216.5,242.5C 216.833,241.833 217.167,241.167 217.5,240.5C 219.38,240.771 220.713,240.104 221.5,238.5 Z"/></g>
<g><path style="opacity:1" fill="#060606" d="M 256.5,252.5 C 256.5,254.833 256.5,257.167 256.5,259.5C 253.918,259.025 251.918,259.692 250.5,261.5C 250.5,262.5 250.5,263.5 250.5,264.5C 253.833,264.5 257.167,264.5 260.5,264.5C 260.5,267.5 260.5,270.5 260.5,273.5C 253.833,273.5 247.167,273.5 240.5,273.5C 240.828,262.321 240.495,251.321 239.5,240.5C 246.424,238.537 253.757,237.87 261.5,238.5C 261.5,241.833 261.5,245.167 261.5,248.5C 257.881,247.756 254.215,247.423 250.5,247.5C 250.5,249.167 250.5,250.833 250.5,252.5C 252.5,252.5 254.5,252.5 256.5,252.5 Z"/></g>
<g><path style="opacity:1" fill="#393939" d="M 121.5,240.5 C 121.5,248.167 121.5,255.833 121.5,263.5C 121.5,263.833 121.5,264.167 121.5,264.5C 121.573,266.027 120.906,267.027 119.5,267.5C 120.114,258.37 120.781,249.37 121.5,240.5 Z"/></g>
<g><path style="opacity:1" fill="#828282" d="M 108.5,237.5 C 113.167,237.5 117.833,237.5 122.5,237.5C 122.826,246.349 122.493,255.016 121.5,263.5C 121.5,255.833 121.5,248.167 121.5,240.5C 119.952,239.206 117.952,238.539 115.5,238.5C 113.048,238.539 111.048,239.206 109.5,240.5C 108.596,239.791 108.263,238.791 108.5,237.5 Z"/></g>
<g><path style="opacity:1" fill="#929393" d="M 102.5,240.5 C 102.833,240.5 103.167,240.5 103.5,240.5C 103.334,247.508 103.5,254.508 104,261.5C 105.049,263.107 106.549,263.773 108.5,263.5C 106.777,264.807 104.943,264.807 103,263.5C 102.5,255.841 102.334,248.174 102.5,240.5 Z"/></g>
<g><path style="opacity:1" fill="#3c3c3c" d="M 125.5,238.5 C 125.5,250.167 125.5,261.833 125.5,273.5C 131.833,273.5 138.167,273.5 144.5,273.5C 144.5,273.833 144.5,274.167 144.5,274.5C 137.833,274.5 131.167,274.5 124.5,274.5C 124.172,262.322 124.505,250.322 125.5,238.5 Z"/></g>
<g><path style="opacity:1" fill="#a8a8a8" d="M 221.5,238.5 C 225.97,237.514 230.637,237.181 235.5,237.5C 235.824,241.555 235.491,245.555 234.5,249.5C 233.893,249.376 233.56,249.043 233.5,248.5C 234.479,245.375 234.813,242.042 234.5,238.5C 230.167,238.5 225.833,238.5 221.5,238.5 Z"/></g>
<g><path style="opacity:1" fill="#878787" d="M 251.5,261.5 C 253.265,260.539 255.265,260.205 257.5,260.5C 257.806,257.615 257.473,254.948 256.5,252.5C 254.5,252.5 252.5,252.5 250.5,252.5C 250.5,250.833 250.5,249.167 250.5,247.5C 254.215,247.423 257.881,247.756 261.5,248.5C 261.5,245.167 261.5,241.833 261.5,238.5C 253.757,237.87 246.424,238.537 239.5,240.5C 239.825,247.687 239.491,254.687 238.5,261.5C 238.567,260.041 238.234,258.708 237.5,257.5C 238.491,251.021 238.824,244.354 238.5,237.5C 246.5,237.5 254.5,237.5 262.5,237.5C 262.5,241.5 262.5,245.5 262.5,249.5C 258.802,249.448 255.135,249.114 251.5,248.5C 251.5,249.5 251.5,250.5 251.5,251.5C 253.833,251.5 256.167,251.5 258.5,251.5C 258.5,254.833 258.5,258.167 258.5,261.5C 256.167,261.5 253.833,261.5 251.5,261.5 Z"/></g>
<g><path style="opacity:1" fill="#707070" d="M 103.5,240.5 C 103.167,240.5 102.833,240.5 102.5,240.5C 99.3157,238.586 95.649,237.92 91.5,238.5C 91.5,247.5 91.5,256.5 91.5,265.5C 90.7548,256.31 90.0881,246.977 89.5,237.5C 94.1667,237.5 98.8333,237.5 103.5,237.5C 103.5,238.5 103.5,239.5 103.5,240.5 Z"/></g>
<g><path style="opacity:1" fill="#5b5b5b" d="M 146.5,245.5 C 146.573,247.027 145.906,248.027 144.5,248.5C 144.427,246.973 145.094,245.973 146.5,245.5 Z"/></g>
<g><path style="opacity:1" fill="#808080" d="M 194.5,240.5 C 190.971,238.577 186.971,237.911 182.5,238.5C 182.5,246.5 182.5,254.5 182.5,262.5C 181.833,261.5 181.167,260.5 180.5,259.5C 180.5,257.167 180.5,254.833 180.5,252.5C 181.487,247.695 181.821,242.695 181.5,237.5C 186.167,237.5 190.833,237.5 195.5,237.5C 195.737,238.791 195.404,239.791 194.5,240.5 Z"/></g>
<g><path style="opacity:1" fill="#696969" d="M 213.5,240.5 C 213.338,242.527 213.505,244.527 214,246.5C 214.2,244.68 215.034,243.347 216.5,242.5C 215.676,245.764 215.342,249.098 215.5,252.5C 214.732,251.737 214.232,250.737 214,249.5C 213.826,254.351 213.326,259.018 212.5,263.5C 212.175,255.648 212.508,247.982 213.5,240.5 Z"/></g>
<g><path style="opacity:1" fill="#c8c8c8" d="M 233.5,248.5 C 232.504,248.586 231.671,248.252 231,247.5C 230.387,249.495 230.887,251.162 232.5,252.5C 228.955,251.415 226.955,249.082 226.5,245.5C 229.491,245.166 231.824,246.166 233.5,248.5 Z"/></g>
<g><path style="opacity:1" fill="#f2f2f2" d="M 73.5,263.5 C 71.0504,263.702 68.717,263.369 66.5,262.5C 65.2719,261.694 64.2719,260.694 63.5,259.5C 63.4013,256.763 63.7347,254.096 64.5,251.5C 68.2245,248.853 72.0579,248.853 76,251.5C 78.2807,256.269 77.4474,260.269 73.5,263.5 Z"/></g>
<g><path style="opacity:1" fill="#ececec" d="M 164.5,263.5 C 162.05,263.702 159.717,263.369 157.5,262.5C 153.58,258.374 153.58,254.207 157.5,250C 166.88,248.061 170.213,251.728 167.5,261C 166.87,262.31 165.87,263.144 164.5,263.5 Z"/></g>
<g><path style="opacity:1" fill="#7e7e7e" d="M 53.5,238.5 C 44.8333,238.5 36.1667,238.5 27.5,238.5C 27.19,241.713 27.5233,244.713 28.5,247.5C 30.5,247.5 32.5,247.5 34.5,247.5C 34.5,256.167 34.5,264.833 34.5,273.5C 38.1667,273.5 41.8333,273.5 45.5,273.5C 45.5,264.833 45.5,256.167 45.5,247.5C 47.8333,247.5 50.1667,247.5 52.5,247.5C 52.5,247.833 52.5,248.167 52.5,248.5C 51.5,248.5 50.5,248.5 49.5,248.5C 48.5,248.5 47.5,248.5 46.5,248.5C 46.1968,256.889 46.5301,265.222 47.5,273.5C 42.8804,274.493 38.2137,274.827 33.5,274.5C 33.5,265.833 33.5,257.167 33.5,248.5C 31.1667,248.5 28.8333,248.5 26.5,248.5C 26.5,244.833 26.5,241.167 26.5,237.5C 35.6822,237.173 44.6822,237.507 53.5,238.5 Z"/></g>
<g><path style="opacity:1" fill="#565656" d="M 64.5,251.5 C 63.7347,254.096 63.4013,256.763 63.5,259.5C 62.8476,258.551 62.5143,257.385 62.5,256C 62.3068,253.992 62.9735,252.492 64.5,251.5 Z"/></g>
<g><path style="opacity:1" fill="#8b8b8b" d="M 137.5,237.5 C 137.5,246.167 137.5,254.833 137.5,263.5C 139.5,263.5 141.5,263.5 143.5,263.5C 141.393,264.468 139.059,264.802 136.5,264.5C 136.5,255.833 136.5,247.167 136.5,238.5C 132.833,238.5 129.167,238.5 125.5,238.5C 124.505,250.322 124.172,262.322 124.5,274.5C 123.521,271.375 123.187,268.042 123.5,264.5C 123.5,255.5 123.5,246.5 123.5,237.5C 128.167,237.5 132.833,237.5 137.5,237.5 Z"/></g>
<g><path style="opacity:1" fill="#464646" d="M 86.5,246.5 C 87.9663,247.347 88.7996,248.68 89,250.5C 89.8099,254.358 89.6433,258.024 88.5,261.5C 88.8183,256.341 88.1517,251.341 86.5,246.5 Z"/></g>
<g><path style="opacity:1" fill="#d9d9d9" d="M 215.5,252.5 C 217.89,256.054 221.056,258.72 225,260.5C 227.41,263.418 226.91,265.418 223.5,266.5C 220.56,266.091 218.227,264.757 216.5,262.5C 216.44,261.957 216.107,261.624 215.5,261.5C 214.508,265.783 214.174,270.116 214.5,274.5C 213.833,271.5 213.167,268.5 212.5,265.5C 212.5,264.833 212.5,264.167 212.5,263.5C 213.326,259.018 213.826,254.351 214,249.5C 214.232,250.737 214.732,251.737 215.5,252.5 Z"/></g>
<g><path style="opacity:1" fill="#353535" d="M 256.5,252.5 C 257.473,254.948 257.806,257.615 257.5,260.5C 255.265,260.205 253.265,260.539 251.5,261.5C 251.167,261.5 250.833,261.5 250.5,261.5C 251.918,259.692 253.918,259.025 256.5,259.5C 256.5,257.167 256.5,254.833 256.5,252.5 Z"/></g>
<g><path style="opacity:1" fill="#bfbfbf" d="M 49.5,248.5 C 50.5,248.5 51.5,248.5 52.5,248.5C 52.1667,250.5 51.8333,252.5 51.5,254.5C 51.6159,257.86 51.9492,261.193 52.5,264.5C 50.9532,262.193 50.2865,259.527 50.5,256.5C 50.5323,254.241 50.8656,252.075 51.5,250C 50.5842,249.722 49.9175,249.222 49.5,248.5 Z"/></g>
<g><path style="opacity:1" fill="#5d5d5d" d="M 66.5,262.5 C 68.717,263.369 71.0504,263.702 73.5,263.5C 72.5514,264.152 71.3847,264.486 70,264.5C 68.3189,264.392 67.1522,263.725 66.5,262.5 Z"/></g>
<g><path style="opacity:1" fill="#5d5d5d" d="M 157.5,262.5 C 159.717,263.369 162.05,263.702 164.5,263.5C 163.551,264.152 162.385,264.486 161,264.5C 159.319,264.392 158.152,263.725 157.5,262.5 Z"/></g>
<g><path style="opacity:1" fill="#858585" d="M 250.5,261.5 C 250.833,261.5 251.167,261.5 251.5,261.5C 254.684,263.414 258.351,264.08 262.5,263.5C 262.815,267.371 262.482,271.038 261.5,274.5C 261.813,270.958 261.479,267.625 260.5,264.5C 257.167,264.5 253.833,264.5 250.5,264.5C 250.5,263.5 250.5,262.5 250.5,261.5 Z"/></g>
<g><path style="opacity:1" fill="#959595" d="M 179.5,264.5 C 179.573,266.027 178.906,267.027 177.5,267.5C 177.427,265.973 178.094,264.973 179.5,264.5 Z"/></g>
<g><path style="opacity:1" fill="#b3b3b3" d="M 88.5,263.5 C 88.4191,266.513 87.0858,268.513 84.5,269.5C 85.6566,267.322 86.9899,265.322 88.5,263.5 Z"/></g>
<g><path style="opacity:1" fill="#979797" d="M 146.5,268.5 C 145.833,270.5 145.167,272.5 144.5,274.5C 144.5,274.167 144.5,273.833 144.5,273.5C 144.192,271.076 144.526,268.743 145.5,266.5C 146.298,266.957 146.631,267.624 146.5,268.5 Z"/></g>
<g><path style="opacity:1" fill="#c7c7c7" d="M 212.5,266.5 C 211.37,268.315 210.704,270.315 210.5,272.5C 208.315,272.704 206.315,273.37 204.5,274.5C 207.452,272.215 210.118,269.548 212.5,266.5 Z"/></g>
<g><path style="opacity:1" fill="#878787" d="M 82.5,271.5 C 81.713,273.104 80.3797,273.771 78.5,273.5C 79.5137,272.326 80.847,271.66 82.5,271.5 Z"/></g>
<g><path style="opacity:1" fill="#cbcbcb" d="M 238.5,266.5 C 239.657,269.026 239.657,271.693 238.5,274.5C 236.958,273.699 235.292,273.366 233.5,273.5C 235.916,271.654 237.583,269.321 238.5,266.5 Z"/></g>
<g><path style="opacity:1" fill="#323232" d="M 61.5,273.5 C 67.1667,273.5 72.8333,273.5 78.5,273.5C 72.8333,276.167 67.1667,276.167 61.5,273.5 Z"/></g>
<g><path style="opacity:1" fill="#343434" d="M 216.5,262.5 C 215.518,265.962 215.185,269.629 215.5,273.5C 220.833,273.5 226.167,273.5 231.5,273.5C 229.362,274.404 227.029,275.071 224.5,275.5C 221.217,274.673 217.884,274.34 214.5,274.5C 214.174,270.116 214.508,265.783 215.5,261.5C 216.107,261.624 216.44,261.957 216.5,262.5 Z"/></g>
<g><path style="opacity:1" fill="#434343" d="M 239.5,240.5 C 240.495,251.321 240.828,262.321 240.5,273.5C 247.167,273.5 253.833,273.5 260.5,273.5C 260.5,270.5 260.5,267.5 260.5,264.5C 261.479,267.625 261.813,270.958 261.5,274.5C 253.833,274.5 246.167,274.5 238.5,274.5C 239.657,271.693 239.657,269.026 238.5,266.5C 238.5,264.833 238.5,263.167 238.5,261.5C 239.491,254.687 239.825,247.687 239.5,240.5 Z"/></g>
<g><path style="opacity:1" fill="#cfcfcf" d="M 231.5,273.5 C 232.167,273.5 232.833,273.5 233.5,273.5C 232.942,274.79 231.942,275.623 230.5,276C 228.333,276.167 226.167,276.333 224,276.5C 220.523,276.672 217.356,276.006 214.5,274.5C 217.884,274.34 221.217,274.673 224.5,275.5C 227.029,275.071 229.362,274.404 231.5,273.5 Z"/></g>
</svg>
