<?xml version="1.0" encoding="UTF-8"?>
<!DOCTYPE svg PUBLIC "-//W3C//DTD SVG 1.1//EN" "http://www.w3.org/Graphics/SVG/1.1/DTD/svg11.dtd">
<svg xmlns="http://www.w3.org/2000/svg" version="1.1" width="403px" height="405px" style="shape-rendering:geometricPrecision; text-rendering:geometricPrecision; image-rendering:optimizeQuality; fill-rule:evenodd; clip-rule:evenodd" xmlns:xlink="http://www.w3.org/1999/xlink">
<g><path style="opacity:1" fill="#94b9a7" d="M -0.5,-0.5 C 133.833,-0.5 268.167,-0.5 402.5,-0.5C 402.5,134.5 402.5,269.5 402.5,404.5C 268.167,404.5 133.833,404.5 -0.5,404.5C -0.5,269.5 -0.5,134.5 -0.5,-0.5 Z"/></g>
<g><path style="opacity:1" fill="#f1cd61" d="M 197.5,27.5 C 198.75,27.5774 199.583,28.244 200,29.5C 200.667,33.8333 200.667,38.1667 200,42.5C 199.804,44.2861 198.971,45.6195 197.5,46.5C 196.21,40.1115 196.21,33.7782 197.5,27.5 Z"/></g>
<g><path style="opacity:1" fill="#f6cd5e" d="M 179.5,35.5 C 181.624,36.0312 183.124,37.3645 184,39.5C 184.579,41.6487 185.079,43.8154 185.5,46C 185.612,47.6624 184.946,48.8291 183.5,49.5C 180.754,45.2601 179.421,40.5934 179.5,35.5 Z"/></g>
<g><path style="opacity:1" fill="#f3cc60" d="M 214.5,34.5 C 215.586,34.62 216.253,35.2867 216.5,36.5C 215.458,41.6402 213.458,46.3069 210.5,50.5C 209.119,50.0004 208.453,49.0004 208.5,47.5C 209.739,42.7692 211.739,38.4359 214.5,34.5 Z"/></g>
<g><path style="opacity:1" fill="#f3ce60" d="M 228.5,42.5 C 229.5,42.5 230.5,42.5 231.5,42.5C 229.317,47.3579 226.317,51.6912 222.5,55.5C 222.006,50.1463 224.006,45.813 228.5,42.5 Z"/></g>
<g><path style="opacity:1" fill="#f4cd5f" d="M 163.5,39.5 C 165.017,39.5106 166.184,40.1772 167,41.5C 168.333,44.1667 169.667,46.8333 171,49.5C 171.798,51.2588 171.631,52.9255 170.5,54.5C 165.881,50.5532 163.548,45.5532 163.5,39.5 Z"/></g>
<g><path style="opacity:1" fill="#f8cd5a" d="M 209.5,135.5 C 207.167,135.5 204.833,135.5 202.5,135.5C 204.992,117.238 206.492,98.9047 207,80.5C 206.653,78.8198 205.653,77.8198 204,77.5C 201.797,78.8771 200.297,80.8771 199.5,83.5C 198.573,81.0544 196.906,80.2211 194.5,81C 192.396,83.0424 191.229,85.5424 191,88.5C 190.308,85.1935 188.808,82.3602 186.5,80C 184.633,79.2888 183.133,79.7888 182,81.5C 180.504,88.0992 180.171,94.7658 181,101.5C 182.394,111.229 183.894,120.896 185.5,130.5C 185.5,131.833 185.5,133.167 185.5,134.5C 183.833,134.5 182.167,134.5 180.5,134.5C 180.66,132.801 180.494,131.134 180,129.5C 174.333,119.5 168.667,109.5 163,99.5C 158.468,74.0223 169.135,60.0223 195,57.5C 212.812,58.7304 223.479,68.0637 227,85.5C 227.692,90.8913 227.359,96.2247 226,101.5C 220.508,109.808 215.508,118.474 211,127.5C 210.178,130.117 209.678,132.784 209.5,135.5 Z"/></g>
<g><path style="opacity:1" fill="#f3cd60" d="M 150.5,52.5 C 155.944,55.2815 159.611,59.6148 161.5,65.5C 157.698,64.2214 154.531,61.8881 152,58.5C 150.872,56.6547 150.372,54.6547 150.5,52.5 Z"/></g>
<g><path style="opacity:1" fill="#f5cd5e" d="M 238.5,54.5 C 241.998,54.5653 242.498,55.8986 240,58.5C 237.469,61.8881 234.302,64.2214 230.5,65.5C 230.351,64.448 230.517,63.448 231,62.5C 233.366,59.636 235.866,56.9693 238.5,54.5 Z"/></g>
<g><path style="opacity:1" fill="#fddf95" d="M 171.5,71.5 C 172.675,71.281 173.675,71.6143 174.5,72.5C 170.67,77.8317 167.67,83.4984 165.5,89.5C 164.353,87.2351 164.186,84.9018 165,82.5C 166.661,78.5083 168.827,74.8417 171.5,71.5 Z"/></g>
<g><path style="opacity:1" fill="#fcde94" d="M 219.5,98.5 C 220.5,98.5 221.5,98.5 222.5,98.5C 222.587,103.59 220.587,107.59 216.5,110.5C 215.369,108.926 215.202,107.259 216,105.5C 217.705,103.423 218.872,101.09 219.5,98.5 Z"/></g>
<g><path style="opacity:1" fill="#372e24" d="M 202.5,135.5 C 201.833,135.5 201.167,135.5 200.5,135.5C 202.331,117.519 203.997,99.5192 205.5,81.5C 204.5,81.5 203.5,81.5 202.5,81.5C 201.142,86.723 200.142,92.0563 199.5,97.5C 198.914,97.2907 198.414,96.9574 198,96.5C 197.667,92.8333 197.333,89.1667 197,85.5C 194.443,84.3543 193.11,85.3543 193,88.5C 192.827,92.5408 192.327,96.5408 191.5,100.5C 190.914,100.291 190.414,99.9574 190,99.5C 189.954,93.8995 188.787,88.5662 186.5,83.5C 185.675,82.6143 184.675,82.281 183.5,82.5C 182.461,88.7967 182.294,95.1301 183,101.5C 184.644,112.881 186.477,124.214 188.5,135.5C 187.833,135.5 187.167,135.5 186.5,135.5C 186.784,133.585 186.451,131.919 185.5,130.5C 183.894,120.896 182.394,111.229 181,101.5C 180.171,94.7658 180.504,88.0992 182,81.5C 183.133,79.7888 184.633,79.2888 186.5,80C 188.808,82.3602 190.308,85.1935 191,88.5C 191.229,85.5424 192.396,83.0424 194.5,81C 196.906,80.2211 198.573,81.0544 199.5,83.5C 200.297,80.8771 201.797,78.8771 204,77.5C 205.653,77.8198 206.653,78.8198 207,80.5C 206.492,98.9047 204.992,117.238 202.5,135.5 Z"/></g>
<g><path style="opacity:1" fill="#f6ca58" d="M 200.5,135.5 C 196.5,135.5 192.5,135.5 188.5,135.5C 186.477,124.214 184.644,112.881 183,101.5C 182.294,95.1301 182.461,88.7967 183.5,82.5C 184.675,82.281 185.675,82.6143 186.5,83.5C 188.787,88.5662 189.954,93.8995 190,99.5C 190.414,99.9574 190.914,100.291 191.5,100.5C 192.327,96.5408 192.827,92.5408 193,88.5C 193.11,85.3543 194.443,84.3543 197,85.5C 197.333,89.1667 197.667,92.8333 198,96.5C 198.414,96.9574 198.914,97.2907 199.5,97.5C 200.142,92.0563 201.142,86.723 202.5,81.5C 203.5,81.5 204.5,81.5 205.5,81.5C 203.997,99.5192 202.331,117.519 200.5,135.5 Z"/></g>
<g><path style="opacity:1" fill="#a78947" d="M 185.5,130.5 C 186.451,131.919 186.784,133.585 186.5,135.5C 184.5,135.5 182.5,135.5 180.5,135.5C 180.5,135.167 180.5,134.833 180.5,134.5C 182.167,134.5 183.833,134.5 185.5,134.5C 185.5,133.167 185.5,131.833 185.5,130.5 Z"/></g>
<g><path style="opacity:1" fill="#242020" d="M 180.5,135.5 C 182.5,135.5 184.5,135.5 186.5,135.5C 187.167,135.5 187.833,135.5 188.5,135.5C 192.5,135.5 196.5,135.5 200.5,135.5C 201.167,135.5 201.833,135.5 202.5,135.5C 204.833,135.5 207.167,135.5 209.5,135.5C 212.148,137.798 212.148,140.132 209.5,142.5C 209.667,146.167 209.833,149.833 210,153.5C 205.249,153.459 201.416,155.293 198.5,159C 193.472,160.548 189.472,159.215 186.5,155C 183.666,154.955 181.166,154.121 179,152.5C 179.504,150.138 179.337,147.805 178.5,145.5C 178.529,143.971 179.196,142.804 180.5,142C 177.866,139.707 177.866,137.54 180.5,135.5 Z"/></g>
<g><path style="opacity:1" fill="#fad0a7" d="M 210.5,208.5 C 201.5,208.5 192.5,208.5 183.5,208.5C 183.808,206.076 183.474,203.743 182.5,201.5C 173.685,207.383 164.018,210.55 153.5,211C 148.167,207.667 148.167,204.333 153.5,201C 163.211,201.194 172.211,198.861 180.5,194C 175.088,194.686 169.755,196.02 164.5,198C 157.215,199.414 149.882,199.747 142.5,199C 137.552,198.367 134.552,195.701 133.5,191C 133.586,186.251 135.92,184.585 140.5,186C 151.571,191.144 162.905,191.811 174.5,188C 166.136,187.685 157.803,187.018 149.5,186C 142.278,183.489 136.778,178.989 133,172.5C 131.902,168.495 132.735,164.995 135.5,162C 137.289,161.48 138.956,161.813 140.5,163C 150.662,174.418 163.328,179.751 178.5,179C 171.413,177.042 165.579,173.209 161,167.5C 160.182,161.098 160.516,154.765 162,148.5C 163.78,144.383 166.78,141.716 171,140.5C 177.04,141.315 179.04,144.648 177,150.5C 175.08,153.838 173.58,157.338 172.5,161C 172.703,163.406 173.703,165.406 175.5,167C 187.796,172.893 200.463,173.893 213.5,170C 217.01,168.093 218.176,165.26 217,161.5C 214.601,156.808 212.768,151.974 211.5,147C 211.261,141.246 213.928,139.246 219.5,141C 229.662,146.5 233.495,155 231,166.5C 230.146,171.364 227.646,175.197 223.5,178C 219.137,179.948 214.804,181.782 210.5,183.5C 210.5,191.833 210.5,200.167 210.5,208.5 Z"/></g>
<g><path style="opacity:1" fill="#f5efe1" d="M 183.5,208.5 C 192.5,208.5 201.5,208.5 210.5,208.5C 211.5,208.5 212.5,208.5 213.5,208.5C 213.5,210.167 213.5,211.833 213.5,213.5C 202.5,213.5 191.5,213.5 180.5,213.5C 180.5,211.833 180.5,210.167 180.5,208.5C 181.5,208.5 182.5,208.5 183.5,208.5 Z"/></g>
<g><path style="opacity:1" fill="#231f20" d="M 180.5,214.5 C 192.167,214.5 203.833,214.5 215.5,214.5C 215.5,216.167 215.5,217.833 215.5,219.5C 214.778,219.918 214.278,220.584 214,221.5C 213.131,218.606 211.298,217.439 208.5,218C 207.594,219.699 207.261,221.533 207.5,223.5C 209.5,223.5 211.5,223.5 213.5,223.5C 214.838,230.225 215.838,236.891 216.5,243.5C 216.5,247.167 216.5,250.833 216.5,254.5C 216.5,262.167 216.5,269.833 216.5,277.5C 210.688,279.104 205.022,281.104 199.5,283.5C 198.5,283.5 197.5,283.5 196.5,283.5C 191.001,280.922 185.334,278.589 179.5,276.5C 178.523,265.581 178.19,254.581 178.5,243.5C 178.5,239.833 178.5,236.167 178.5,232.5C 178.5,229.167 178.5,225.833 178.5,222.5C 177.964,219.302 178.631,216.635 180.5,214.5 Z"/></g>
<g><path style="opacity:1" fill="#be8b50" d="M 216.5,214.5 C 228.171,214.333 239.838,214.5 251.5,215C 281.982,225.272 312.648,234.938 343.5,244C 329.224,245.725 315.224,248.225 301.5,251.5C 300.167,251.5 298.833,251.5 297.5,251.5C 294.972,249.22 291.972,247.386 288.5,246C 265.151,237.882 241.818,229.549 218.5,221C 216.771,219.211 216.104,217.044 216.5,214.5 Z"/></g>
<g><path style="opacity:1" fill="#d9a35a" d="M 180.5,213.5 C 180.5,213.833 180.5,214.167 180.5,214.5C 178.631,216.635 177.964,219.302 178.5,222.5C 153.457,230.069 128.79,238.403 104.5,247.5C 103.5,247.5 102.5,247.5 101.5,247.5C 86.9922,247.178 72.6588,246.011 58.5,244C 86.5389,234.099 114.539,224.433 142.5,215C 155.106,213.58 167.772,213.08 180.5,213.5 Z"/></g>
<g><path style="opacity:1" fill="#3d3734" d="M 215.5,219.5 C 216.074,225.484 216.407,231.484 216.5,237.5C 216.5,239.5 216.5,241.5 216.5,243.5C 215.838,236.891 214.838,230.225 213.5,223.5C 211.5,223.5 209.5,223.5 207.5,223.5C 207.261,221.533 207.594,219.699 208.5,218C 211.298,217.439 213.131,218.606 214,221.5C 214.278,220.584 214.778,219.918 215.5,219.5 Z"/></g>
<g><path style="opacity:1" fill="#525254" d="M 208.5,227.5 C 212.485,227.629 213.818,229.463 212.5,233C 207.728,233.81 206.395,231.977 208.5,227.5 Z"/></g>
<g><path style="opacity:1" fill="#9a7040" d="M 178.5,222.5 C 178.5,225.833 178.5,229.167 178.5,232.5C 177.681,235.305 177.181,238.305 177,241.5C 176.028,243.305 174.861,244.972 173.5,246.5C 161.482,250.117 149.816,254.617 138.5,260C 140.32,260.2 141.653,261.034 142.5,262.5C 129.407,258.254 116.74,253.254 104.5,247.5C 128.79,238.403 153.457,230.069 178.5,222.5 Z"/></g>
<g><path style="opacity:1" fill="#99703f" d="M 215.5,214.5 C 215.833,214.5 216.167,214.5 216.5,214.5C 216.104,217.044 216.771,219.211 218.5,221C 241.818,229.549 265.151,237.882 288.5,246C 291.972,247.386 294.972,249.22 297.5,251.5C 287.641,254.897 277.641,257.897 267.5,260.5C 264.517,259.612 261.35,258.946 258,258.5C 244.745,252.817 231.245,247.817 217.5,243.5C 217.795,241.265 217.461,239.265 216.5,237.5C 216.407,231.484 216.074,225.484 215.5,219.5C 215.5,217.833 215.5,216.167 215.5,214.5 Z"/></g>
<g><path style="opacity:1" fill="#535254" d="M 208.5,237.5 C 212.909,236.899 214.242,238.566 212.5,242.5C 208.317,243.309 206.984,241.642 208.5,237.5 Z"/></g>
<g><path style="opacity:1" fill="#c89353" d="M 101.5,247.5 C 102.5,247.5 103.5,247.5 104.5,247.5C 116.74,253.254 129.407,258.254 142.5,262.5C 153.849,267.398 165.516,271.731 177.5,275.5C 177.842,276.338 178.508,276.672 179.5,276.5C 185.334,278.589 191.001,280.922 196.5,283.5C 197.167,284.167 197.833,284.833 198.5,285.5C 197.833,285.833 197.167,286.167 196.5,286.5C 187.841,296.469 179.174,306.469 170.5,316.5C 168.967,318.289 167.967,320.289 167.5,322.5C 165.564,323.259 163.731,324.259 162,325.5C 143.119,318.044 124.286,310.711 105.5,303.5C 105.5,306.5 105.5,309.5 105.5,312.5C 105.167,312.5 104.833,312.5 104.5,312.5C 104.823,308.774 104.489,305.107 103.5,301.5C 92.9648,296.925 82.2981,292.425 71.5,288C 70.3281,286.132 70.4947,284.298 72,282.5C 81.3432,271.659 90.8432,260.992 100.5,250.5C 101.386,249.675 101.719,248.675 101.5,247.5 Z"/></g>
<g><path style="opacity:1" fill="#e2a65d" d="M 297.5,251.5 C 298.833,251.5 300.167,251.5 301.5,251.5C 313.364,261.601 325.03,271.934 336.5,282.5C 325.516,287.137 314.516,291.804 303.5,296.5C 279.475,306.214 255.475,315.881 231.5,325.5C 229.959,324.714 228.626,323.714 227.5,322.5C 219.077,310.655 210.41,298.988 201.5,287.5C 200.4,286.395 199.733,285.062 199.5,283.5C 205.022,281.104 210.688,279.104 216.5,277.5C 222.742,275.213 229.075,273.213 235.5,271.5C 246.377,268.123 257.044,264.457 267.5,260.5C 277.641,257.897 287.641,254.897 297.5,251.5 Z"/></g>
<g><path style="opacity:1" fill="#876338" d="M 216.5,237.5 C 217.461,239.265 217.795,241.265 217.5,243.5C 231.245,247.817 244.745,252.817 258,258.5C 261.35,258.946 264.517,259.612 267.5,260.5C 257.044,264.457 246.377,268.123 235.5,271.5C 236.234,270.292 236.567,268.959 236.5,267.5C 238.124,267.64 239.29,266.973 240,265.5C 240.427,268.493 241.594,268.993 243.5,267C 243.002,265.842 242.169,265.009 241,264.5C 234.287,262.741 227.787,260.575 221.5,258C 219.804,256.824 218.138,255.657 216.5,254.5C 216.5,250.833 216.5,247.167 216.5,243.5C 216.5,241.5 216.5,239.5 216.5,237.5 Z"/></g>
<g><path style="opacity:1" fill="#785732" d="M 216.5,254.5 C 218.138,255.657 219.804,256.824 221.5,258C 227.787,260.575 234.287,262.741 241,264.5C 242.169,265.009 243.002,265.842 243.5,267C 241.594,268.993 240.427,268.493 240,265.5C 239.29,266.973 238.124,267.64 236.5,267.5C 236.567,268.959 236.234,270.292 235.5,271.5C 229.075,273.213 222.742,275.213 216.5,277.5C 216.5,269.833 216.5,262.167 216.5,254.5 Z"/></g>
<g><path style="opacity:1" fill="#805e35" d="M 178.5,232.5 C 178.5,236.167 178.5,239.833 178.5,243.5C 177.506,253.987 177.172,264.654 177.5,275.5C 165.516,271.731 153.849,267.398 142.5,262.5C 141.653,261.034 140.32,260.2 138.5,260C 149.816,254.617 161.482,250.117 173.5,246.5C 174.861,244.972 176.028,243.305 177,241.5C 177.181,238.305 177.681,235.305 178.5,232.5 Z"/></g>
<g><path style="opacity:1" fill="#503e2a" d="M 178.5,243.5 C 178.19,254.581 178.523,265.581 179.5,276.5C 178.508,276.672 177.842,276.338 177.5,275.5C 177.172,264.654 177.506,253.987 178.5,243.5 Z"/></g>
<g><path style="opacity:1" fill="#be8b4f" d="M 196.5,283.5 C 197.5,283.5 198.5,283.5 199.5,283.5C 199.733,285.062 200.4,286.395 201.5,287.5C 206.603,299.727 212.437,312.06 219,324.5C 222.096,325.216 224.93,324.549 227.5,322.5C 228.626,323.714 229.959,324.714 231.5,325.5C 255.475,315.881 279.475,306.214 303.5,296.5C 302.534,304.08 302.201,311.747 302.5,319.5C 302.832,328.525 302.498,337.525 301.5,346.5C 267.096,357.222 232.596,367.889 198,378.5C 197.235,378.43 196.735,378.097 196.5,377.5C 198.492,347.185 199.159,316.518 198.5,285.5C 197.833,284.833 197.167,284.167 196.5,283.5 Z"/></g>
<g><path style="opacity:1" fill="#daa259" d="M 198.5,285.5 C 199.159,316.518 198.492,347.185 196.5,377.5C 193.729,377.579 191.063,377.079 188.5,376C 161.254,365.863 133.921,356.03 106.5,346.5C 105.501,335.186 105.168,323.853 105.5,312.5C 105.5,309.5 105.5,306.5 105.5,303.5C 124.286,310.711 143.119,318.044 162,325.5C 163.731,324.259 165.564,323.259 167.5,322.5C 170.035,323.349 172.535,324.349 175,325.5C 175.772,325.355 176.439,325.022 177,324.5C 183.751,311.999 190.251,299.332 196.5,286.5C 197.167,286.167 197.833,285.833 198.5,285.5 Z"/></g>
<g><path style="opacity:1" fill="#b3864a" d="M 196.5,286.5 C 190.251,299.332 183.751,311.999 177,324.5C 176.439,325.022 175.772,325.355 175,325.5C 172.535,324.349 170.035,323.349 167.5,322.5C 167.967,320.289 168.967,318.289 170.5,316.5C 179.174,306.469 187.841,296.469 196.5,286.5 Z"/></g>
<g><path style="opacity:1" fill="#a07541" d="M 201.5,287.5 C 210.41,298.988 219.077,310.655 227.5,322.5C 224.93,324.549 222.096,325.216 219,324.5C 212.437,312.06 206.603,299.727 201.5,287.5 Z"/></g>
<g><path style="opacity:1" fill="#8eb09d" d="M 104.5,312.5 C 104.833,312.5 105.167,312.5 105.5,312.5C 105.168,323.853 105.501,335.186 106.5,346.5C 133.921,356.03 161.254,365.863 188.5,376C 191.063,377.079 193.729,377.579 196.5,377.5C 196.735,378.097 197.235,378.43 198,378.5C 232.596,367.889 267.096,357.222 301.5,346.5C 302.498,337.525 302.832,328.525 302.5,319.5C 303.49,325.31 303.823,331.31 303.5,337.5C 312.96,338.584 320.46,342.917 326,350.5C 326.635,352.635 326.301,354.635 325,356.5C 318.171,363.501 310.004,368.335 300.5,371C 236.394,388.157 172.394,388.823 108.5,373C 101.422,370.53 94.422,367.863 87.5,365C 83.2075,362.702 79.5408,359.702 76.5,356C 75.0856,353.073 75.2522,350.239 77,347.5C 85.1136,341.196 94.2803,337.196 104.5,335.5C 104.5,327.833 104.5,320.167 104.5,312.5 Z"/></g>
</svg>
