<?xml version="1.0" encoding="UTF-8"?>
<!DOCTYPE svg PUBLIC "-//W3C//DTD SVG 1.1//EN" "http://www.w3.org/Graphics/SVG/1.1/DTD/svg11.dtd">
<svg xmlns="http://www.w3.org/2000/svg" version="1.1" width="336px" height="333px" style="shape-rendering:geometricPrecision; text-rendering:geometricPrecision; image-rendering:optimizeQuality; fill-rule:evenodd; clip-rule:evenodd" xmlns:xlink="http://www.w3.org/1999/xlink">
<g><path style="opacity:1" fill="#fefefe" d="M -0.5,-0.5 C 111.5,-0.5 223.5,-0.5 335.5,-0.5C 335.5,110.5 335.5,221.5 335.5,332.5C 223.5,332.5 111.5,332.5 -0.5,332.5C -0.5,221.5 -0.5,110.5 -0.5,-0.5 Z"/></g>
<g><path style="opacity:1" fill="#f3edde" d="M 247.5,42.5 C 247.167,42.5 246.833,42.5 246.5,42.5C 246.5,40.5 245.5,39.5 243.5,39.5C 234.265,38.1841 224.932,38.1841 215.5,39.5C 215.414,38.5041 215.748,37.6708 216.5,37C 226.86,36.2667 237.194,36.4334 247.5,37.5C 247.5,39.1667 247.5,40.8333 247.5,42.5 Z"/></g>
<g><path style="opacity:1" fill="#fbf8ef" d="M 183.5,61.5 C 187.97,62.4861 192.637,62.8195 197.5,62.5C 199.045,63.6396 200.712,64.6396 202.5,65.5C 202.5,65.8333 202.5,66.1667 202.5,66.5C 195.109,66.7988 187.776,66.4655 180.5,65.5C 179.784,63.518 178.617,61.8513 177,60.5C 176.501,55.1771 176.334,49.8437 176.5,44.5C 169.5,44.5 162.5,44.5 155.5,44.5C 155.666,50.5092 155.499,56.5092 155,62.5C 154.626,63.4162 154.126,64.2496 153.5,65C 151.942,65.21 150.609,65.71 149.5,66.5C 144.5,66.5 139.5,66.5 134.5,66.5C 136.369,65.8354 138.369,65.1687 140.5,64.5C 137.358,63.8326 134.358,63.166 131.5,62.5C 137.176,62.6661 142.843,62.4994 148.5,62C 149.333,61.1667 150.167,60.3333 151,59.5C 151.333,53.5 151.667,47.5 152,41.5C 161.089,40.3497 170.255,40.183 179.5,41C 180,41.5 180.5,42 181,42.5C 181.333,48.5 181.667,54.5 182,60.5C 182.383,61.056 182.883,61.3893 183.5,61.5 Z"/></g>
<g><path style="opacity:1" fill="#c8664b" d="M 243.5,40.5 C 243.5,40.8333 243.5,41.1667 243.5,41.5C 241.712,41.2148 240.045,41.5481 238.5,42.5C 239.243,43.1818 239.909,43.8485 240.5,44.5C 237.833,44.5 235.167,44.5 232.5,44.5C 230.631,43.8354 228.631,43.1687 226.5,42.5C 232.023,40.789 237.69,40.1224 243.5,40.5 Z"/></g>
<g><path style="opacity:1" fill="#d79475" d="M 243.5,39.5 C 243.5,39.8333 243.5,40.1667 243.5,40.5C 237.69,40.1224 232.023,40.789 226.5,42.5C 228.631,43.1687 230.631,43.8354 232.5,44.5C 228.167,44.5 223.833,44.5 219.5,44.5C 219.666,50.1764 219.499,55.8431 219,61.5C 217.306,62.6988 215.806,64.0322 214.5,65.5C 214.714,63.8561 214.38,62.3561 213.5,61C 214,60.5 214.5,60 215,59.5C 215.333,53.8333 215.667,48.1667 216,42.5C 216.5,42 217,41.5 217.5,41C 226.151,40.1678 234.817,39.6678 243.5,39.5 Z"/></g>
<g><path style="opacity:1" fill="#f0e7d9" d="M 212.5,59.5 C 203.348,60.4936 194.015,60.8269 184.5,60.5C 183.871,54.2196 183.204,47.8863 182.5,41.5C 181.354,40.8551 180.354,40.0217 179.5,39C 170.84,38.5002 162.173,38.3336 153.5,38.5C 161.002,37.6964 168.669,37.0298 176.5,36.5C 179.331,37.2743 181.997,38.2743 184.5,39.5C 184.334,45.1764 184.501,50.8431 185,56.5C 185.374,57.4162 185.874,58.2496 186.5,59C 195.16,59.4998 203.827,59.6664 212.5,59.5 Z"/></g>
<g><path style="opacity:1" fill="#c4ac97" d="M 246.5,42.5 C 246.833,42.5 247.167,42.5 247.5,42.5C 247.5,42.8333 247.5,43.1667 247.5,43.5C 247.792,88.8466 247.458,134.18 246.5,179.5C 246.167,179.5 245.833,179.5 245.5,179.5C 245.5,178.167 245.5,176.833 245.5,175.5C 245.5,173.833 245.5,172.167 245.5,170.5C 246.499,128.003 246.832,85.3366 246.5,42.5 Z"/></g>
<g><path style="opacity:1" fill="#faf6ed" d="M 147.5,59.5 C 138.348,60.4936 129.015,60.8269 119.5,60.5C 119.823,54.31 119.49,48.31 118.5,42.5C 118.063,40.9256 117.063,39.7589 115.5,39C 106.167,38.3333 96.8333,38.3333 87.5,39C 86.6667,39.8333 85.8333,40.6667 85,41.5C 84.5,85.4987 84.3333,129.499 84.5,173.5C 83.7784,173.082 83.2784,172.416 83,171.5C 82.8333,169 82.6667,166.5 82.5,164C 82.6062,138.022 82.9395,112.022 83.5,86C 83.4901,73.1098 82.8234,60.4431 81.5,48C 83.2913,44.8012 84.2913,41.3012 84.5,37.5C 83.0222,37.762 81.6888,37.4287 80.5,36.5C 82.3066,35.2009 83.9732,35.3676 85.5,37C 96.5151,37.1676 107.515,37.6676 118.5,38.5C 121.802,44.8535 122.469,51.5202 120.5,58.5C 129.472,59.3471 138.472,59.6805 147.5,59.5 Z"/></g>
<g><path style="opacity:1" fill="#b5a191" d="M 118.5,42.5 C 117.559,47.0704 117.226,51.737 117.5,56.5C 117.167,56.5 116.833,56.5 116.5,56.5C 116.781,51.4351 116.448,46.4351 115.5,41.5C 109.537,40.5041 103.537,40.1707 97.5,40.5C 94.4816,40.3354 91.4816,40.502 88.5,41C 88,41.5 87.5,42 87,42.5C 86.1667,86.8371 86.3334,131.17 87.5,175.5C 88.9149,179.409 89.9149,183.409 90.5,187.5C 92.2928,192.419 94.6261,197.086 97.5,201.5C 100.54,207.591 104.54,212.924 109.5,217.5C 112.821,222.486 116.821,226.82 121.5,230.5C 124.653,234.517 128.319,237.851 132.5,240.5C 134.139,241.473 135.473,242.806 136.5,244.5C 135.5,244.5 134.5,244.5 133.5,244.5C 120.159,233.658 108.326,221.325 98,207.5C 91.6362,196.909 87.1362,185.575 84.5,173.5C 84.3333,129.499 84.5,85.4987 85,41.5C 85.8333,40.6667 86.6667,39.8333 87.5,39C 96.8333,38.3333 106.167,38.3333 115.5,39C 117.063,39.7589 118.063,40.9256 118.5,42.5 Z"/></g>
<g><path style="opacity:1" fill="#bdc58c" d="M 91.5,44.5 C 98.5,44.5 105.5,44.5 112.5,44.5C 112.179,50.0262 112.512,55.3595 113.5,60.5C 113.5,61.1667 113.5,61.8333 113.5,62.5C 111.55,57.2649 110.883,51.5982 111.5,45.5C 105.167,45.5 98.8333,45.5 92.5,45.5C 92.5,46.5 92.5,47.5 92.5,48.5C 92.5,89.8333 92.5,131.167 92.5,172.5C 92.1667,172.5 91.8333,172.5 91.5,172.5C 91.5,129.833 91.5,87.1667 91.5,44.5 Z"/></g>
<g><path style="opacity:1" fill="#898db3" d="M 97.5,40.5 C 103.537,40.1707 109.537,40.5041 115.5,41.5C 116.448,46.4351 116.781,51.4351 116.5,56.5C 116.5,57.8333 116.5,59.1667 116.5,60.5C 115.5,60.5 114.5,60.5 113.5,60.5C 112.512,55.3595 112.179,50.0262 112.5,44.5C 105.5,44.5 98.5,44.5 91.5,44.5C 96.3963,43.8314 101.396,42.998 106.5,42C 103.305,41.8195 100.305,41.3195 97.5,40.5 Z"/></g>
<g><path style="opacity:1" fill="#f7f0a8" d="M 202.5,66.5 C 205.833,66.5 209.167,66.5 212.5,66.5C 205.647,67.275 198.647,67.9417 191.5,68.5C 191.5,69.8333 191.5,71.1667 191.5,72.5C 190.5,72.5 189.5,72.5 188.5,72.5C 187.833,72.5 187.167,72.5 186.5,72.5C 184.369,71.6862 182.036,71.1862 179.5,71C 178.624,69.4152 177.291,68.4152 175.5,68C 174.594,66.3005 174.261,64.4672 174.5,62.5C 172.641,62.4609 171.308,63.2942 170.5,65C 169.5,65.6667 168.5,65.6667 167.5,65C 164.511,62.517 163.178,59.3504 163.5,55.5C 163.427,53.9731 164.094,52.9731 165.5,52.5C 163.659,61.3548 166.326,63.3548 173.5,58.5C 174.222,58.0825 174.722,57.4158 175,56.5C 175.499,52.8484 175.665,49.1817 175.5,45.5C 170.5,45.5 165.5,45.5 160.5,45.5C 159.167,45.5 157.833,45.5 156.5,45.5C 156.183,48.5719 156.516,51.5719 157.5,54.5C 158.429,53.3112 158.762,51.9778 158.5,50.5C 159.5,50.5 160.5,50.5 161.5,50.5C 161.5,50.8333 161.5,51.1667 161.5,51.5C 160.262,55.6195 159.429,59.9528 159,64.5C 156.833,65.3333 155.333,66.8333 154.5,69C 152.942,69.21 151.609,69.71 150.5,70.5C 147.865,71.8109 145.531,73.4776 143.5,75.5C 143.167,75.5 142.833,75.5 142.5,75.5C 142.5,74.5 142.5,73.5 142.5,72.5C 143.5,72.5 144.5,72.5 145.5,72.5C 145.5,71.5 145.5,70.5 145.5,69.5C 147.483,69.8432 148.817,69.1765 149.5,67.5C 149.5,67.1667 149.5,66.8333 149.5,66.5C 150.609,65.71 151.942,65.21 153.5,65C 154.126,64.2496 154.626,63.4162 155,62.5C 155.499,56.5092 155.666,50.5092 155.5,44.5C 162.5,44.5 169.5,44.5 176.5,44.5C 176.334,49.8437 176.501,55.1771 177,60.5C 178.617,61.8513 179.784,63.518 180.5,65.5C 187.776,66.4655 195.109,66.7988 202.5,66.5 Z"/></g>
<g><path style="opacity:1" fill="#bba98f" d="M 153.5,38.5 C 162.173,38.3336 170.84,38.5002 179.5,39C 180.354,40.0217 181.354,40.8551 182.5,41.5C 183.204,47.8863 183.871,54.2196 184.5,60.5C 183.833,60.5 183.5,60.8333 183.5,61.5C 182.883,61.3893 182.383,61.056 182,60.5C 181.667,54.5 181.333,48.5 181,42.5C 180.5,42 180,41.5 179.5,41C 170.255,40.183 161.089,40.3497 152,41.5C 151.667,47.5 151.333,53.5 151,59.5C 150.167,60.3333 149.333,61.1667 148.5,62C 142.843,62.4994 137.176,62.6661 131.5,62.5C 128.833,62.5 126.167,62.5 123.5,62.5C 119.237,62.6319 117.237,60.6319 117.5,56.5C 117.226,51.737 117.559,47.0704 118.5,42.5C 119.49,48.31 119.823,54.31 119.5,60.5C 129.015,60.8269 138.348,60.4936 147.5,59.5C 148.327,54.0149 148.827,48.3482 149,42.5C 149.748,40.249 151.248,38.9156 153.5,38.5 Z"/></g>
<g><path style="opacity:1" fill="#f6ee8a" d="M 160.5,45.5 C 159.859,46.4822 159.193,47.4822 158.5,48.5C 161.086,49.48 163.753,49.8134 166.5,49.5C 166.338,51.5273 166.505,53.5273 167,55.5C 168.049,54.4829 169.216,54.3162 170.5,55C 171.163,56.5185 172.163,57.6851 173.5,58.5C 166.326,63.3548 163.659,61.3548 165.5,52.5C 164.817,50.8235 163.483,50.1568 161.5,50.5C 160.5,50.5 159.5,50.5 158.5,50.5C 158.762,51.9778 158.429,53.3112 157.5,54.5C 156.516,51.5719 156.183,48.5719 156.5,45.5C 157.833,45.5 159.167,45.5 160.5,45.5 Z"/></g>
<g><path style="opacity:1" fill="#ca9765" d="M 161.5,50.5 C 163.483,50.1568 164.817,50.8235 165.5,52.5C 164.094,52.9731 163.427,53.9731 163.5,55.5C 162.883,55.6107 162.383,55.944 162,56.5C 161.506,54.8659 161.34,53.1992 161.5,51.5C 161.5,51.1667 161.5,50.8333 161.5,50.5 Z"/></g>
<g><path style="opacity:1" fill="#f5ed73" d="M 160.5,45.5 C 165.5,45.5 170.5,45.5 175.5,45.5C 175.665,49.1817 175.499,52.8484 175,56.5C 174.722,57.4158 174.222,58.0825 173.5,58.5C 172.163,57.6851 171.163,56.5185 170.5,55C 169.216,54.3162 168.049,54.4829 167,55.5C 166.505,53.5273 166.338,51.5273 166.5,49.5C 163.753,49.8134 161.086,49.48 158.5,48.5C 159.193,47.4822 159.859,46.4822 160.5,45.5 Z"/></g>
<g><path style="opacity:1" fill="#a2a5bb" d="M 116.5,56.5 C 116.833,56.5 117.167,56.5 117.5,56.5C 117.237,60.6319 119.237,62.6319 123.5,62.5C 124.609,63.29 125.942,63.79 127.5,64C 126.058,64.3768 125.058,65.2101 124.5,66.5C 121.833,66.1667 119.167,65.8333 116.5,65.5C 115.167,64.8333 114.167,63.8333 113.5,62.5C 113.5,61.8333 113.5,61.1667 113.5,60.5C 114.5,60.5 115.5,60.5 116.5,60.5C 116.5,59.1667 116.5,57.8333 116.5,56.5 Z"/></g>
<g><path style="opacity:1" fill="#c4a285" d="M 243.5,39.5 C 234.817,39.6678 226.151,40.1678 217.5,41C 217,41.5 216.5,42 216,42.5C 215.667,48.1667 215.333,53.8333 215,59.5C 214.5,60 214,60.5 213.5,61C 214.38,62.3561 214.714,63.8561 214.5,65.5C 213.508,65.3284 212.842,65.6618 212.5,66.5C 209.167,66.5 205.833,66.5 202.5,66.5C 202.5,66.1667 202.5,65.8333 202.5,65.5C 205.187,65.6641 207.854,65.4974 210.5,65C 206.423,62.9514 202.089,62.118 197.5,62.5C 192.637,62.8195 187.97,62.4861 183.5,61.5C 183.5,60.8333 183.833,60.5 184.5,60.5C 194.015,60.8269 203.348,60.4936 212.5,59.5C 213.328,53.6807 213.828,47.6807 214,41.5C 214.278,40.5842 214.778,39.9175 215.5,39.5C 224.932,38.1841 234.265,38.1841 243.5,39.5 Z"/></g>
<g><path style="opacity:1" fill="#faf6cb" d="M 161.5,51.5 C 161.34,53.1992 161.506,54.8659 162,56.5C 162.383,55.944 162.883,55.6107 163.5,55.5C 163.178,59.3504 164.511,62.517 167.5,65C 168.5,65.6667 169.5,65.6667 170.5,65C 171.308,63.2942 172.641,62.4609 174.5,62.5C 174.261,64.4672 174.594,66.3005 175.5,68C 177.291,68.4152 178.624,69.4152 179.5,71C 182.036,71.1862 184.369,71.6862 186.5,72.5C 185.391,72.5569 184.391,72.8902 183.5,73.5C 178.07,72.8295 172.737,71.6628 167.5,70C 166,68.8333 164.5,67.6667 163,66.5C 161.972,68.3615 160.472,69.6948 158.5,70.5C 157.526,72.7427 157.192,75.076 157.5,77.5C 156.167,77.5 154.833,77.5 153.5,77.5C 153.795,75.2646 153.461,73.2646 152.5,71.5C 152.158,70.6618 151.492,70.3284 150.5,70.5C 151.609,69.71 152.942,69.21 154.5,69C 155.333,66.8333 156.833,65.3333 159,64.5C 159.429,59.9528 160.262,55.6195 161.5,51.5 Z"/></g>
<g><path style="opacity:1" fill="#d0d0e0" d="M 123.5,62.5 C 126.167,62.5 128.833,62.5 131.5,62.5C 134.358,63.166 137.358,63.8326 140.5,64.5C 138.369,65.1687 136.369,65.8354 134.5,66.5C 131.167,66.5 127.833,66.5 124.5,66.5C 125.058,65.2101 126.058,64.3768 127.5,64C 125.942,63.79 124.609,63.29 123.5,62.5 Z"/></g>
<g><path style="opacity:1" fill="#edcabd" d="M 197.5,62.5 C 202.089,62.118 206.423,62.9514 210.5,65C 207.854,65.4974 205.187,65.6641 202.5,65.5C 200.712,64.6396 199.045,63.6396 197.5,62.5 Z"/></g>
<g><path style="opacity:1" fill="#f4eb5e" d="M 111.5,65.5 C 110.167,65.5 108.833,65.5 107.5,65.5C 107.5,92.8333 107.5,120.167 107.5,147.5C 107.707,161.549 107.873,175.549 108,189.5C 108.383,188.944 108.883,188.611 109.5,188.5C 109.5,188.833 109.5,189.167 109.5,189.5C 109.031,192.393 110.031,194.393 112.5,195.5C 113.278,196.156 113.944,196.989 114.5,198C 114.167,198.5 113.833,199 113.5,199.5C 111.615,198.391 109.615,197.557 107.5,197C 106.663,195.989 106.33,194.822 106.5,193.5C 104.549,193.227 103.049,193.893 102,195.5C 100.641,194.635 99.4745,193.635 98.5,192.5C 99.2631,189.859 99.4298,187.192 99,184.5C 98.2569,186.645 97.4235,186.811 96.5,185C 98.149,181.112 99.4823,177.112 100.5,173C 100.167,172.167 99.8333,171.333 99.5,170.5C 98.3939,174.135 97.3939,177.802 96.5,181.5C 95.8165,181.137 95.1499,180.804 94.5,180.5C 94.5979,178.447 93.9313,176.78 92.5,175.5C 92.5,174.5 92.5,173.5 92.5,172.5C 92.5,131.167 92.5,89.8333 92.5,48.5C 98.2415,46.2843 104.242,45.951 110.5,47.5C 109.675,48.3857 108.675,48.719 107.5,48.5C 107.804,51.5219 108.304,54.5219 109,57.5C 109.728,51.3781 110.228,51.2114 110.5,57C 110.309,59.0499 109.642,60.8832 108.5,62.5C 110.274,63.1867 111.941,64.0201 113.5,65C 112.906,65.4643 112.239,65.631 111.5,65.5 Z"/></g>
<g><path style="opacity:1" fill="#c79734" d="M 98.5,51.5 C 98.2627,52.791 98.596,53.791 99.5,54.5C 99.719,55.675 99.3857,56.675 98.5,57.5C 97.2072,55.3635 97.2072,53.3635 98.5,51.5 Z"/></g>
<g><path style="opacity:1" fill="#ae5c1f" d="M 99.5,54.5 C 98.596,53.791 98.2627,52.791 98.5,51.5C 99.6009,50.4017 100.934,50.235 102.5,51C 101.364,52.1451 100.364,53.3117 99.5,54.5 Z"/></g>
<g><path style="opacity:1" fill="#dfdeb1" d="M 116.5,65.5 C 119.167,65.8333 121.833,66.1667 124.5,66.5C 127.833,66.5 131.167,66.5 134.5,66.5C 139.5,66.5 144.5,66.5 149.5,66.5C 149.5,66.8333 149.5,67.1667 149.5,67.5C 138.782,67.7871 128.115,67.4538 117.5,66.5C 116.833,66.5 116.5,66.1667 116.5,65.5 Z"/></g>
<g><path style="opacity:1" fill="#f4eb5d" d="M 239.5,54.5 C 239.594,92.4567 239.428,130.457 239,168.5C 237.846,173.798 237.013,179.131 236.5,184.5C 236.007,186.806 235.674,189.139 235.5,191.5C 235.5,191.833 235.5,192.167 235.5,192.5C 235.167,192.5 234.833,192.5 234.5,192.5C 232.626,193.63 230.626,194.63 228.5,195.5C 228.218,193.013 228.218,190.347 228.5,187.5C 227.5,187.5 226.5,187.5 225.5,187.5C 225.5,185.167 225.5,182.833 225.5,180.5C 226.317,178.031 226.817,175.365 227,172.5C 227.889,173.888 228.389,173.722 228.5,172C 227.531,160.205 227.197,148.372 227.5,136.5C 228.332,117.338 228.832,98.0043 229,78.5C 229.333,78.1667 229.667,77.8333 230,77.5C 230.256,80.557 230.756,83.557 231.5,86.5C 230.342,113.791 230.176,141.124 231,168.5C 231.333,168.167 231.667,167.833 232,167.5C 232.333,133.833 232.667,100.167 233,66.5C 234.144,64.2906 234.977,61.9572 235.5,59.5C 236.165,57.3021 236.832,54.9688 237.5,52.5C 238.182,53.2427 238.849,53.9094 239.5,54.5 Z"/></g>
<g><path style="opacity:1" fill="#425b92" d="M 97.5,40.5 C 100.305,41.3195 103.305,41.8195 106.5,42C 101.396,42.998 96.3963,43.8314 91.5,44.5C 91.5,87.1667 91.5,129.833 91.5,172.5C 90.9458,177.643 91.9458,182.31 94.5,186.5C 94.6495,187.552 94.4828,188.552 94,189.5C 92.8873,188.695 91.7206,188.028 90.5,187.5C 89.9149,183.409 88.9149,179.409 87.5,175.5C 86.3334,131.17 86.1667,86.8371 87,42.5C 87.5,42 88,41.5 88.5,41C 91.4816,40.502 94.4816,40.3354 97.5,40.5 Z"/></g>
<g><path style="opacity:1" fill="#f3e47e" d="M 117.5,66.5 C 128.115,67.4538 138.782,67.7871 149.5,67.5C 148.817,69.1765 147.483,69.8432 145.5,69.5C 145.5,70.5 145.5,71.5 145.5,72.5C 144.5,72.5 143.5,72.5 142.5,72.5C 142.5,73.5 142.5,74.5 142.5,75.5C 141.518,76.1408 140.518,76.8075 139.5,77.5C 138.505,82.7921 138.172,88.1254 138.5,93.5C 138.5,97.5 138.5,101.5 138.5,105.5C 138.5,107.5 138.5,109.5 138.5,111.5C 137.506,120.652 137.173,129.985 137.5,139.5C 137.5,139.833 137.5,140.167 137.5,140.5C 136.669,129.341 136.169,118.007 136,106.5C 135.077,104.966 134.577,103.299 134.5,101.5C 135.246,97.8683 135.579,94.2017 135.5,90.5C 132.477,90.8948 131.477,89.8948 132.5,87.5C 132.023,86.5224 131.357,85.6891 130.5,85C 132.74,84.023 135.073,83.523 137.5,83.5C 137.672,81.5082 137.005,79.8415 135.5,78.5C 136.5,77.1667 137.5,75.8333 138.5,74.5C 137.624,73.7492 136.624,73.2492 135.5,73C 136.167,72.6667 136.833,72.3333 137.5,72C 135.833,71.6667 134.167,71.3333 132.5,71C 134.715,70.8295 136.715,70.1628 138.5,69C 131.833,68.6667 125.167,68.3333 118.5,68C 117.944,67.6174 117.611,67.1174 117.5,66.5 Z"/></g>
<g><path style="opacity:1" fill="#fcf9e2" d="M 183.5,73.5 C 181.848,78.3409 181.182,83.3409 181.5,88.5C 177.225,91.1052 175.891,94.7719 177.5,99.5C 176.833,98.8333 176.167,98.1667 175.5,97.5C 175.5,96.8333 175.5,96.1667 175.5,95.5C 175.454,92.4485 176.454,89.7819 178.5,87.5C 178.357,83.4436 177.857,79.4436 177,75.5C 172.057,71.7254 166.557,70.392 160.5,71.5C 159.365,73.7067 158.699,76.0401 158.5,78.5C 157.167,78.5 155.833,78.5 154.5,78.5C 153.833,78.5 153.5,78.1667 153.5,77.5C 154.833,77.5 156.167,77.5 157.5,77.5C 157.192,75.076 157.526,72.7427 158.5,70.5C 160.472,69.6948 161.972,68.3615 163,66.5C 164.5,67.6667 166,68.8333 167.5,70C 172.737,71.6628 178.07,72.8295 183.5,73.5 Z"/></g>
<g><path style="opacity:1" fill="#fcfcf5" d="M 175.5,95.5 C 174.182,93.249 172.516,91.249 170.5,89.5C 166.169,84.6354 160.836,83.302 154.5,85.5C 153.637,83.2287 153.637,80.8954 154.5,78.5C 155.833,78.5 157.167,78.5 158.5,78.5C 158.699,76.0401 159.365,73.7067 160.5,71.5C 166.557,70.392 172.057,71.7254 177,75.5C 177.857,79.4436 178.357,83.4436 178.5,87.5C 176.454,89.7819 175.454,92.4485 175.5,95.5 Z"/></g>
<g><path style="opacity:1" fill="#f9e57a" d="M 212.5,66.5 C 213.5,66.5 214.5,66.5 215.5,66.5C 215.082,67.2216 214.416,67.7216 213.5,68C 207.833,68.3333 202.167,68.6667 196.5,69C 194.729,69.5354 194.396,70.3687 195.5,71.5C 197.071,72.3094 198.738,72.6427 200.5,72.5C 198.199,87.0337 197.199,101.7 197.5,116.5C 197.167,116.5 196.833,116.5 196.5,116.5C 196.667,102.163 196.5,87.8295 196,73.5C 194.644,72.6198 193.144,72.2865 191.5,72.5C 191.5,71.1667 191.5,69.8333 191.5,68.5C 198.647,67.9417 205.647,67.275 212.5,66.5 Z"/></g>
<g><path style="opacity:1" fill="#ebb7b5" d="M 186.5,72.5 C 187.167,72.5 187.833,72.5 188.5,72.5C 187.791,73.404 186.791,73.7373 185.5,73.5C 185.5,74.8333 185.5,76.1667 185.5,77.5C 186.242,79.4258 187.242,81.2591 188.5,83C 186.083,84.1437 185.416,85.8103 186.5,88C 185.207,88.49 183.873,88.6567 182.5,88.5C 182.167,88.5 181.833,88.5 181.5,88.5C 181.182,83.3409 181.848,78.3409 183.5,73.5C 184.391,72.8902 185.391,72.5569 186.5,72.5 Z"/></g>
<g><path style="opacity:1" fill="#efeded" d="M 152.5,71.5 C 153.461,73.2646 153.795,75.2646 153.5,77.5C 153.5,78.1667 153.833,78.5 154.5,78.5C 153.637,80.8954 153.637,83.2287 154.5,85.5C 160.836,83.302 166.169,84.6354 170.5,89.5C 172.212,91.8957 172.712,94.5624 172,97.5C 165.982,89.1319 164.482,89.7985 167.5,99.5C 165.654,99.2222 164.32,99.8888 163.5,101.5C 164.776,102.645 166.109,102.645 167.5,101.5C 168.429,102.689 168.762,104.022 168.5,105.5C 167.85,105.804 167.183,106.137 166.5,106.5C 165.389,105.389 164.055,104.722 162.5,104.5C 160.184,105.805 157.851,107.138 155.5,108.5C 159.703,108.587 163.87,108.587 168,108.5C 168.142,112.36 166.142,114.36 162,114.5C 160.124,114.475 158.624,113.809 157.5,112.5C 156.391,111.71 155.058,111.21 153.5,111C 151.797,108.668 149.797,106.835 147.5,105.5C 147.126,102.028 148.126,99.0283 150.5,96.5C 150.333,96.1667 150.167,95.8333 150,95.5C 149.085,96.3279 148.419,97.3279 148,98.5C 148.396,94.388 150.229,90.888 153.5,88C 152.423,87.5304 151.423,87.6971 150.5,88.5C 149.859,87.5178 149.193,86.5178 148.5,85.5C 151.058,83.8799 151.058,82.3799 148.5,81C 149.793,80.51 151.127,80.3433 152.5,80.5C 152.5,77.5 152.5,74.5 152.5,71.5 Z"/></g>
<g><path style="opacity:1" fill="#f8f0e4" d="M 247.5,43.5 C 248.665,87.6648 248.831,131.998 248,176.5C 247.768,177.737 247.268,178.737 246.5,179.5C 247.458,134.18 247.792,88.8466 247.5,43.5 Z"/></g>
<g><path style="opacity:1" fill="#e6acaa" d="M 150.5,70.5 C 151.492,70.3284 152.158,70.6618 152.5,71.5C 152.5,74.5 152.5,77.5 152.5,80.5C 151.127,80.3433 149.793,80.51 148.5,81C 151.058,82.3799 151.058,83.8799 148.5,85.5C 149.193,86.5178 149.859,87.5178 150.5,88.5C 149.974,90.2303 148.974,91.5637 147.5,92.5C 144.343,90.6797 142.343,88.0131 141.5,84.5C 144.921,84.7616 145.921,83.4283 144.5,80.5C 146.756,79.5791 147.756,77.9124 147.5,75.5C 146.167,75.5 144.833,75.5 143.5,75.5C 145.531,73.4776 147.865,71.8109 150.5,70.5 Z"/></g>
<g><path style="opacity:1" fill="#e19595" d="M 185.5,77.5 C 187.379,78.3414 189.379,78.6747 191.5,78.5C 191.421,79.9305 191.754,81.2638 192.5,82.5C 190.947,83.439 189.613,84.6057 188.5,86C 190.153,88.411 189.487,89.5777 186.5,89.5C 186.662,91.5273 186.495,93.5273 186,95.5C 185.184,96.8228 184.017,97.4894 182.5,97.5C 182.5,94.5 182.5,91.5 182.5,88.5C 183.873,88.6567 185.207,88.49 186.5,88C 185.416,85.8103 186.083,84.1437 188.5,83C 187.242,81.2591 186.242,79.4258 185.5,77.5 Z"/></g>
<g><path style="opacity:1" fill="#d6766b" d="M 188.5,72.5 C 189.5,72.5 190.5,72.5 191.5,72.5C 193.144,72.2865 194.644,72.6198 196,73.5C 196.5,87.8295 196.667,102.163 196.5,116.5C 196.5,116.833 196.5,117.167 196.5,117.5C 195.509,110.687 195.175,103.687 195.5,96.5C 195.5,94.5 195.5,92.5 195.5,90.5C 194.5,90.5 193.5,90.5 192.5,90.5C 192.414,92.677 191.747,94.677 190.5,96.5C 188.148,97.9847 185.814,99.318 183.5,100.5C 183.802,103.059 183.468,105.393 182.5,107.5C 182.5,104.167 182.5,100.833 182.5,97.5C 184.017,97.4894 185.184,96.8228 186,95.5C 186.495,93.5273 186.662,91.5273 186.5,89.5C 189.487,89.5777 190.153,88.411 188.5,86C 189.613,84.6057 190.947,83.439 192.5,82.5C 191.754,81.2638 191.421,79.9305 191.5,78.5C 189.379,78.6747 187.379,78.3414 185.5,77.5C 185.5,76.1667 185.5,74.8333 185.5,73.5C 186.791,73.7373 187.791,73.404 188.5,72.5 Z"/></g>
<g><path style="opacity:1" fill="#dc8d85" d="M 142.5,75.5 C 142.833,75.5 143.167,75.5 143.5,75.5C 144.833,75.5 146.167,75.5 147.5,75.5C 147.756,77.9124 146.756,79.5791 144.5,80.5C 145.921,83.4283 144.921,84.7616 141.5,84.5C 142.343,88.0131 144.343,90.6797 147.5,92.5C 146.676,95.7644 146.342,99.0977 146.5,102.5C 145.849,101.909 145.182,101.243 144.5,100.5C 143.264,101.246 141.93,101.579 140.5,101.5C 140.749,98.9979 141.083,96.4979 141.5,94C 141.088,89.637 140.088,89.4703 138.5,93.5C 138.172,88.1254 138.505,82.7921 139.5,77.5C 140.518,76.8075 141.518,76.1408 142.5,75.5 Z"/></g>
<g><path style="opacity:1" fill="#c7b5b2" d="M 147.5,105.5 C 146.596,104.791 146.263,103.791 146.5,102.5C 146.342,99.0977 146.676,95.7644 147.5,92.5C 148.974,91.5637 149.974,90.2303 150.5,88.5C 151.423,87.6971 152.423,87.5304 153.5,88C 150.229,90.888 148.396,94.388 148,98.5C 148.419,97.3279 149.085,96.3279 150,95.5C 150.167,95.8333 150.333,96.1667 150.5,96.5C 148.126,99.0283 147.126,102.028 147.5,105.5 Z"/></g>
<g><path style="opacity:1" fill="#f4ea61" d="M 239.5,54.5 C 238.849,53.9094 238.182,53.2427 237.5,52.5C 236.832,54.9688 236.165,57.3021 235.5,59.5C 234.977,61.9572 234.144,64.2906 233,66.5C 232.667,100.167 232.333,133.833 232,167.5C 231.667,167.833 231.333,168.167 231,168.5C 230.176,141.124 230.342,113.791 231.5,86.5C 230.756,83.557 230.256,80.557 230,77.5C 229.667,77.8333 229.333,78.1667 229,78.5C 228.832,98.0043 228.332,117.338 227.5,136.5C 227.5,116.5 227.5,96.5 227.5,76.5C 228.578,69.9347 225.911,67.768 219.5,70C 216.98,71.6971 214.647,73.5305 212.5,75.5C 210.521,87.1201 209.854,99.1201 210.5,111.5C 210.394,137.504 210.06,163.504 209.5,189.5C 210.505,193.521 210.505,197.521 209.5,201.5C 208.667,200.5 207.833,199.5 207,198.5C 206.833,199.333 206.667,200.167 206.5,201C 208.217,204.925 208.884,209.092 208.5,213.5C 209.873,213.657 211.207,213.49 212.5,213C 216.049,209.953 219.049,206.453 221.5,202.5C 223.812,201.522 225.478,199.855 226.5,197.5C 227.614,198.723 227.781,200.056 227,201.5C 224.782,203.645 223.449,206.312 223,209.5C 222.311,210.357 221.478,211.023 220.5,211.5C 219.28,210.289 218.113,210.289 217,211.5C 215.798,213.677 215.298,216.011 215.5,218.5C 212.122,222.174 208.789,225.841 205.5,229.5C 201.195,231.85 197.528,234.85 194.5,238.5C 191.709,240.735 188.709,242.735 185.5,244.5C 180.5,244.5 175.5,244.5 170.5,244.5C 170.5,243.167 170.5,241.833 170.5,240.5C 171.007,236.14 171.673,231.807 172.5,227.5C 175.198,222.288 176.198,216.622 175.5,210.5C 177.167,210.5 178.833,210.5 180.5,210.5C 180.5,216.167 180.5,221.833 180.5,227.5C 179.842,228.793 179.508,230.293 179.5,232C 179.336,234.544 180.003,236.71 181.5,238.5C 182.458,238.047 183.292,237.381 184,236.5C 184.735,234.129 185.568,231.795 186.5,229.5C 186.167,228.833 185.833,228.167 185.5,227.5C 186.952,226.06 187.952,224.394 188.5,222.5C 190.5,220.833 192.5,219.167 194.5,217.5C 196.031,212.75 196.698,207.75 196.5,202.5C 197.19,188.844 197.523,175.178 197.5,161.5C 198.488,156.36 198.821,151.026 198.5,145.5C 198.693,135.806 198.36,126.139 197.5,116.5C 197.199,101.7 198.199,87.0337 200.5,72.5C 198.738,72.6427 197.071,72.3094 195.5,71.5C 194.396,70.3687 194.729,69.5354 196.5,69C 202.167,68.6667 207.833,68.3333 213.5,68C 214.416,67.7216 215.082,67.2216 215.5,66.5C 217.785,65.7755 219.618,64.4422 221,62.5C 221.499,56.8431 221.666,51.1764 221.5,45.5C 226.844,45.334 232.177,45.5006 237.5,46C 239.179,48.5645 239.846,51.3979 239.5,54.5 Z"/></g>
<g><path style="opacity:1" fill="#f4ce68" d="M 212.5,75.5 C 212.5,75.8333 212.5,76.1667 212.5,76.5C 211.505,87.988 211.172,99.6547 211.5,111.5C 211.167,111.5 210.833,111.5 210.5,111.5C 209.854,99.1201 210.521,87.1201 212.5,75.5 Z"/></g>
<g><path style="opacity:1" fill="#a3a3a1" d="M 155.5,92.5 C 156.239,92.369 156.906,92.5357 157.5,93C 156.565,95.3806 156.232,97.8806 156.5,100.5C 158.288,100.215 159.955,100.548 161.5,101.5C 159.604,102.466 157.604,102.799 155.5,102.5C 155.5,99.1667 155.5,95.8333 155.5,92.5 Z"/></g>
<g><path style="opacity:1" fill="#f8f1b5" d="M 181.5,88.5 C 181.824,95.3543 181.491,102.021 180.5,108.5C 179.5,109.167 178.5,109.833 177.5,110.5C 177.5,110.167 177.5,109.833 177.5,109.5C 179.884,106.054 179.884,102.72 177.5,99.5C 175.891,94.7719 177.225,91.1052 181.5,88.5 Z"/></g>
<g><path style="opacity:1" fill="#ce5a53" d="M 195.5,96.5 C 194.698,97.9516 194.198,99.6183 194,101.5C 189.376,105.76 187.209,111.093 187.5,117.5C 185.833,117.5 184.167,117.5 182.5,117.5C 182.5,119.167 182.5,120.833 182.5,122.5C 185.958,122.414 187.958,124.081 188.5,127.5C 187.5,126.833 186.5,126.167 185.5,125.5C 183.999,124.248 182.332,123.248 180.5,122.5C 181.361,117.567 182.028,112.567 182.5,107.5C 183.468,105.393 183.802,103.059 183.5,100.5C 185.814,99.318 188.148,97.9847 190.5,96.5C 191.747,94.677 192.414,92.677 192.5,90.5C 193.5,90.5 194.5,90.5 195.5,90.5C 195.5,92.5 195.5,94.5 195.5,96.5 Z"/></g>
<g><path style="opacity:1" fill="#c56963" d="M 146.5,102.5 C 146.263,103.791 146.596,104.791 147.5,105.5C 149.644,108.122 150.977,111.122 151.5,114.5C 150.024,112.938 148.524,111.271 147,109.5C 146.275,107.051 145.275,104.717 144,102.5C 141.974,102.915 140.474,103.915 139.5,105.5C 139.167,105.5 138.833,105.5 138.5,105.5C 138.5,101.5 138.5,97.5 138.5,93.5C 140.088,89.4703 141.088,89.637 141.5,94C 141.083,96.4979 140.749,98.9979 140.5,101.5C 141.93,101.579 143.264,101.246 144.5,100.5C 145.182,101.243 145.849,101.909 146.5,102.5 Z"/></g>
<g><path style="opacity:1" fill="#e4ab52" d="M 111.5,65.5 C 111.5,65.8333 111.5,66.1667 111.5,66.5C 110.5,66.5 109.5,66.5 108.5,66.5C 108.5,93.5 108.5,120.5 108.5,147.5C 108.167,147.5 107.833,147.5 107.5,147.5C 107.5,120.167 107.5,92.8333 107.5,65.5C 108.833,65.5 110.167,65.5 111.5,65.5 Z"/></g>
<g><path style="opacity:1" fill="#bab98e" d="M 175.5,97.5 C 176.167,98.1667 176.833,98.8333 177.5,99.5C 179.884,102.72 179.884,106.054 177.5,109.5C 177.167,109.5 176.833,109.5 176.5,109.5C 177.994,105.975 177.661,102.642 175.5,99.5C 175.5,98.8333 175.5,98.1667 175.5,97.5 Z"/></g>
<g><path style="opacity:1" fill="#f4ea68" d="M 113.5,62.5 C 114.167,63.8333 115.167,64.8333 116.5,65.5C 116.5,66.1667 116.833,66.5 117.5,66.5C 117.611,67.1174 117.944,67.6174 118.5,68C 125.167,68.3333 131.833,68.6667 138.5,69C 136.715,70.1628 134.715,70.8295 132.5,71C 134.167,71.3333 135.833,71.6667 137.5,72C 136.833,72.3333 136.167,72.6667 135.5,73C 136.624,73.2492 137.624,73.7492 138.5,74.5C 137.5,75.8333 136.5,77.1667 135.5,78.5C 137.005,79.8415 137.672,81.5082 137.5,83.5C 135.073,83.523 132.74,84.023 130.5,85C 131.357,85.6891 132.023,86.5224 132.5,87.5C 131.477,89.8948 132.477,90.8948 135.5,90.5C 135.579,94.2017 135.246,97.8683 134.5,101.5C 134.577,103.299 135.077,104.966 136,106.5C 136.169,118.007 136.669,129.341 137.5,140.5C 137.5,141.5 137.5,142.5 137.5,143.5C 136.766,144.708 136.433,146.041 136.5,147.5C 135.272,148.306 134.272,149.306 133.5,150.5C 131.136,142.71 129.136,134.71 127.5,126.5C 125.993,122.958 124.993,119.292 124.5,115.5C 123.743,102.525 123.243,89.5249 123,76.5C 120.287,74.2805 117.454,72.2805 114.5,70.5C 113.789,68.9699 112.789,67.6366 111.5,66.5C 111.5,66.1667 111.5,65.8333 111.5,65.5C 112.239,65.631 112.906,65.4643 113.5,65C 111.941,64.0201 110.274,63.1867 108.5,62.5C 109.642,60.8832 110.309,59.0499 110.5,57C 110.228,51.2114 109.728,51.3781 109,57.5C 108.304,54.5219 107.804,51.5219 107.5,48.5C 108.675,48.719 109.675,48.3857 110.5,47.5C 104.242,45.951 98.2415,46.2843 92.5,48.5C 92.5,47.5 92.5,46.5 92.5,45.5C 98.8333,45.5 105.167,45.5 111.5,45.5C 110.883,51.5982 111.55,57.2649 113.5,62.5 Z"/></g>
<g><path style="opacity:1" fill="#b3b5b3" d="M 170.5,89.5 C 172.516,91.249 174.182,93.249 175.5,95.5C 175.5,96.1667 175.5,96.8333 175.5,97.5C 175.5,98.1667 175.5,98.8333 175.5,99.5C 174.425,98.4376 173.425,98.4376 172.5,99.5C 174.024,103.135 173.691,106.469 171.5,109.5C 169.771,108.764 168.771,107.43 168.5,105.5C 168.762,104.022 168.429,102.689 167.5,101.5C 166.109,102.645 164.776,102.645 163.5,101.5C 164.32,99.8888 165.654,99.2222 167.5,99.5C 164.482,89.7985 165.982,89.1319 172,97.5C 172.712,94.5624 172.212,91.8957 170.5,89.5 Z"/></g>
<g><path style="opacity:1" fill="#f3f3f1" d="M 175.5,99.5 C 177.661,102.642 177.994,105.975 176.5,109.5C 175.264,111.043 173.598,112.043 171.5,112.5C 170.913,111.767 170.913,110.767 171.5,109.5C 173.691,106.469 174.024,103.135 172.5,99.5C 173.425,98.4376 174.425,98.4376 175.5,99.5 Z"/></g>
<g><path style="opacity:1" fill="#a0a09c" d="M 168.5,105.5 C 168.771,107.43 169.771,108.764 171.5,109.5C 170.913,110.767 170.913,111.767 171.5,112.5C 173.598,112.043 175.264,111.043 176.5,109.5C 176.833,109.5 177.167,109.5 177.5,109.5C 177.5,109.833 177.5,110.167 177.5,110.5C 176.41,111.857 175.076,112.857 173.5,113.5C 171.195,115.045 170.862,117.045 172.5,119.5C 172.5,120.167 172.167,120.5 171.5,120.5C 170.962,118.883 170.629,117.216 170.5,115.5C 166.585,115.666 162.585,115.666 158.5,115.5C 157.602,114.842 156.602,114.176 155.5,113.5C 155.957,112.702 156.624,112.369 157.5,112.5C 158.624,113.809 160.124,114.475 162,114.5C 166.142,114.36 168.142,112.36 168,108.5C 163.87,108.587 159.703,108.587 155.5,108.5C 157.851,107.138 160.184,105.805 162.5,104.5C 164.055,104.722 165.389,105.389 166.5,106.5C 167.183,106.137 167.85,105.804 168.5,105.5 Z"/></g>
<g><path style="opacity:1" fill="#bc4f27" d="M 111.5,66.5 C 112.789,67.6366 113.789,68.9699 114.5,70.5C 113.193,69.8466 111.86,69.1799 110.5,68.5C 109.5,102.493 109.167,136.493 109.5,170.5C 108.508,163.018 108.175,155.352 108.5,147.5C 108.5,120.5 108.5,93.5 108.5,66.5C 109.5,66.5 110.5,66.5 111.5,66.5 Z"/></g>
<g><path style="opacity:1" fill="#c5524c" d="M 151.5,114.5 C 151.675,116.621 151.341,118.621 150.5,120.5C 149.041,120.433 147.708,120.766 146.5,121.5C 146.712,119.616 147.712,118.283 149.5,117.5C 147.148,116.015 144.814,114.682 142.5,113.5C 142.5,111.167 142.5,108.833 142.5,106.5C 141.209,106.737 140.209,106.404 139.5,105.5C 140.474,103.915 141.974,102.915 144,102.5C 145.275,104.717 146.275,107.051 147,109.5C 148.524,111.271 150.024,112.938 151.5,114.5 Z"/></g>
<g><path style="opacity:1" fill="#bc4b33" d="M 243.5,41.5 C 244.117,41.6107 244.617,41.944 245,42.5C 245.5,85.1654 245.667,127.832 245.5,170.5C 245.5,172.167 245.5,173.833 245.5,175.5C 243.899,178.55 242.899,181.884 242.5,185.5C 241.883,185.611 241.383,185.944 241,186.5C 240.506,184.866 240.34,183.199 240.5,181.5C 240.5,178.5 240.5,175.5 240.5,172.5C 240.5,129.833 240.5,87.1667 240.5,44.5C 239.909,43.8485 239.243,43.1818 238.5,42.5C 240.045,41.5481 241.712,41.2148 243.5,41.5 Z"/></g>
<g><path style="opacity:1" fill="#cac5b8" d="M 147.5,105.5 C 149.797,106.835 151.797,108.668 153.5,111C 155.058,111.21 156.391,111.71 157.5,112.5C 156.624,112.369 155.957,112.702 155.5,113.5C 156.602,114.176 157.602,114.842 158.5,115.5C 157.533,116.806 156.199,117.473 154.5,117.5C 154.5,118.5 154.5,119.5 154.5,120.5C 153.167,120.5 151.833,120.5 150.5,120.5C 151.341,118.621 151.675,116.621 151.5,114.5C 150.977,111.122 149.644,108.122 147.5,105.5 Z"/></g>
<g><path style="opacity:1" fill="#f2eb7e" d="M 180.5,108.5 C 180.666,112.514 180.499,116.514 180,120.5C 178.814,118.323 176.981,117.323 174.5,117.5C 173.766,116.292 173.433,114.959 173.5,113.5C 175.076,112.857 176.41,111.857 177.5,110.5C 178.5,109.833 179.5,109.167 180.5,108.5 Z"/></g>
<g><path style="opacity:1" fill="#c84539" d="M 195.5,96.5 C 195.175,103.687 195.509,110.687 196.5,117.5C 197.317,126.809 197.65,136.143 197.5,145.5C 197.5,146.167 197.167,146.5 196.5,146.5C 196.296,144.315 195.63,142.315 194.5,140.5C 194.241,136.932 192.241,135.599 188.5,136.5C 188.5,133.5 188.5,130.5 188.5,127.5C 187.958,124.081 185.958,122.414 182.5,122.5C 182.5,120.833 182.5,119.167 182.5,117.5C 184.167,117.5 185.833,117.5 187.5,117.5C 187.209,111.093 189.376,105.76 194,101.5C 194.198,99.6183 194.698,97.9516 195.5,96.5 Z"/></g>
<g><path style="opacity:1" fill="#dbbe86" d="M 181.5,88.5 C 181.833,88.5 182.167,88.5 182.5,88.5C 182.5,91.5 182.5,94.5 182.5,97.5C 182.5,100.833 182.5,104.167 182.5,107.5C 182.028,112.567 181.361,117.567 180.5,122.5C 178.7,120.529 176.7,118.862 174.5,117.5C 176.981,117.323 178.814,118.323 180,120.5C 180.499,116.514 180.666,112.514 180.5,108.5C 181.491,102.021 181.824,95.3543 181.5,88.5 Z"/></g>
<g><path style="opacity:1" fill="#f8f8f8" d="M 173.5,113.5 C 173.433,114.959 173.766,116.292 174.5,117.5C 176.7,118.862 178.7,120.529 180.5,122.5C 182.332,123.248 183.999,124.248 185.5,125.5C 186.324,128.764 186.658,132.098 186.5,135.5C 185.406,134.418 184.073,133.752 182.5,133.5C 177.742,134.188 174.076,136.522 171.5,140.5C 172.758,139.984 173.758,140.65 174.5,142.5C 177.597,141.229 177.931,139.729 175.5,138C 177.909,136.293 180.575,135.46 183.5,135.5C 183.56,138.341 184.226,141.007 185.5,143.5C 184.2,144.108 182.867,144.775 181.5,145.5C 180.558,145.392 179.725,145.059 179,144.5C 178.833,144.833 178.667,145.167 178.5,145.5C 180.274,146.187 181.941,147.02 183.5,148C 181.067,149.862 178.734,151.695 176.5,153.5C 175.442,154.6 174.608,155.934 174,157.5C 173.84,154.102 175.007,151.102 177.5,148.5C 175.966,147.264 174.3,146.764 172.5,147C 173.641,147.741 173.641,148.575 172.5,149.5C 173.025,150.192 173.692,150.692 174.5,151C 172.844,152.797 171.844,154.964 171.5,157.5C 173.242,159.973 175.075,159.973 177,157.5C 178.557,160.294 178.89,163.294 178,166.5C 176.757,171.239 175.59,175.906 174.5,180.5C 172.234,182.763 169.567,183.096 166.5,181.5C 165.417,182.365 165.251,183.365 166,184.5C 168.369,184.273 170.869,184.107 173.5,184C 175.891,181.363 177.891,178.53 179.5,175.5C 179.5,177.5 179.5,179.5 179.5,181.5C 178.528,183.92 179.195,185.92 181.5,187.5C 183.175,190.877 184.842,194.211 186.5,197.5C 188.113,198.838 188.613,200.505 188,202.5C 185.522,204.82 182.689,206.486 179.5,207.5C 176.014,208.171 173.347,207.171 171.5,204.5C 170.945,198.28 169.445,192.28 167,186.5C 167.211,191.986 168.378,197.319 170.5,202.5C 168.604,203.466 166.604,203.799 164.5,203.5C 162.692,203.509 161.025,203.009 159.5,202C 161.74,201.023 164.073,200.523 166.5,200.5C 166.723,194.676 165.89,189.01 164,183.5C 164.164,188.833 164.664,194.166 165.5,199.5C 162.447,199.111 159.78,199.777 157.5,201.5C 156.533,202.806 155.199,203.473 153.5,203.5C 151.181,203.008 149.181,202.008 147.5,200.5C 146.791,199.596 145.791,199.263 144.5,199.5C 143.167,193.833 141.833,188.167 140.5,182.5C 141.773,180.287 142.773,177.954 143.5,175.5C 144.338,175.158 144.672,174.492 144.5,173.5C 144.833,173.5 145.167,173.5 145.5,173.5C 150.327,174.437 154.993,175.604 159.5,177C 155.656,174.883 151.656,173.049 147.5,171.5C 150.215,168.118 153.215,165.118 156.5,162.5C 152.498,163.989 149.164,166.489 146.5,170C 145.552,170.483 144.552,170.649 143.5,170.5C 143.421,169.07 143.754,167.736 144.5,166.5C 143.606,166.483 142.606,166.149 141.5,165.5C 140.299,163.091 138.633,161.091 136.5,159.5C 135.844,157.516 135.178,155.516 134.5,153.5C 135.178,151.484 135.844,149.484 136.5,147.5C 137.222,147.918 137.722,148.584 138,149.5C 139.676,142.489 142.176,135.822 145.5,129.5C 147.316,127.383 147.65,125.049 146.5,122.5C 146.5,122.167 146.5,121.833 146.5,121.5C 147.708,120.766 149.041,120.433 150.5,120.5C 151.833,120.5 153.167,120.5 154.5,120.5C 154.5,119.5 154.5,118.5 154.5,117.5C 156.199,117.473 157.533,116.806 158.5,115.5C 162.585,115.666 166.585,115.666 170.5,115.5C 170.629,117.216 170.962,118.883 171.5,120.5C 170.069,120.119 169.236,119.119 169,117.5C 168.283,118.044 167.783,118.711 167.5,119.5C 164.091,119.751 160.758,119.417 157.5,118.5C 156.396,119.631 156.729,120.465 158.5,121C 160.81,121.497 163.143,121.663 165.5,121.5C 166.239,121.369 166.906,121.536 167.5,122C 163.469,123.173 159.469,124.34 155.5,125.5C 154.624,125.369 153.957,125.702 153.5,126.5C 159.571,128.829 165.571,128.496 171.5,125.5C 173.461,123.68 173.794,121.68 172.5,119.5C 170.862,117.045 171.195,115.045 173.5,113.5 Z"/></g>
<g><path style="opacity:1" fill="#898a8b" d="M 167.5,119.5 C 167.938,119.435 168.272,119.601 168.5,120C 167.263,120.232 166.263,120.732 165.5,121.5C 163.143,121.663 160.81,121.497 158.5,121C 156.729,120.465 156.396,119.631 157.5,118.5C 160.758,119.417 164.091,119.751 167.5,119.5 Z"/></g>
<g><path style="opacity:1" fill="#c8463a" d="M 138.5,105.5 C 138.833,105.5 139.167,105.5 139.5,105.5C 140.209,106.404 141.209,106.737 142.5,106.5C 142.5,108.833 142.5,111.167 142.5,113.5C 144.814,114.682 147.148,116.015 149.5,117.5C 147.712,118.283 146.712,119.616 146.5,121.5C 144.856,121.286 143.356,121.62 142,122.5C 140.137,126.633 139.304,130.967 139.5,135.5C 138.508,127.684 138.174,119.684 138.5,111.5C 138.5,109.5 138.5,107.5 138.5,105.5 Z"/></g>
<g><path style="opacity:1" fill="#c6c6c6" d="M 171.5,120.5 C 172.167,120.5 172.5,120.167 172.5,119.5C 173.794,121.68 173.461,123.68 171.5,125.5C 166.232,126.141 160.899,126.141 155.5,125.5C 159.469,124.34 163.469,123.173 167.5,122C 166.906,121.536 166.239,121.369 165.5,121.5C 166.263,120.732 167.263,120.232 168.5,120C 168.272,119.601 167.938,119.435 167.5,119.5C 167.783,118.711 168.283,118.044 169,117.5C 169.236,119.119 170.069,120.119 171.5,120.5 Z"/></g>
<g><path style="opacity:1" fill="#f1c35f" d="M 196.5,116.5 C 196.833,116.5 197.167,116.5 197.5,116.5C 198.36,126.139 198.693,135.806 198.5,145.5C 198.167,145.5 197.833,145.5 197.5,145.5C 197.65,136.143 197.317,126.809 196.5,117.5C 196.5,117.167 196.5,116.833 196.5,116.5 Z"/></g>
<g><path style="opacity:1" fill="#be4524" d="M 227.5,76.5 C 226.502,102.995 226.169,129.661 226.5,156.5C 226.167,156.5 225.833,156.5 225.5,156.5C 225.833,128.159 225.5,99.8255 224.5,71.5C 223.813,73.2744 222.98,74.9411 222,76.5C 220.938,75.1007 219.605,74.1007 218,73.5C 216.235,74.6321 214.402,75.6321 212.5,76.5C 212.5,76.1667 212.5,75.8333 212.5,75.5C 214.647,73.5305 216.98,71.6971 219.5,70C 225.911,67.768 228.578,69.9347 227.5,76.5 Z"/></g>
<g><path style="opacity:1" fill="#d7d4d0" d="M 146.5,122.5 C 147.65,125.049 147.316,127.383 145.5,129.5C 145.631,128.761 145.464,128.094 145,127.5C 144.059,129.727 142.892,131.727 141.5,133.5C 140.756,128.66 142.422,124.993 146.5,122.5 Z"/></g>
<g><path style="opacity:1" fill="#696969" d="M 171.5,125.5 C 165.571,128.496 159.571,128.829 153.5,126.5C 153.957,125.702 154.624,125.369 155.5,125.5C 160.899,126.141 166.232,126.141 171.5,125.5 Z"/></g>
<g><path style="opacity:1" fill="#9c4540" d="M 146.5,121.5 C 146.5,121.833 146.5,122.167 146.5,122.5C 142.422,124.993 140.756,128.66 141.5,133.5C 141.5,133.833 141.5,134.167 141.5,134.5C 140.833,134.833 140.167,135.167 139.5,135.5C 139.304,130.967 140.137,126.633 142,122.5C 143.356,121.62 144.856,121.286 146.5,121.5 Z"/></g>
<g><path style="opacity:1" fill="#eccf67" d="M 124.5,115.5 C 124.993,119.292 125.993,122.958 127.5,126.5C 126.307,126.97 125.64,127.97 125.5,129.5C 125.728,131.207 126.062,132.874 126.5,134.5C 125.515,138.634 125.182,142.968 125.5,147.5C 124.506,137.013 124.172,126.346 124.5,115.5 Z"/></g>
<g><path style="opacity:1" fill="#636462" d="M 145.5,129.5 C 142.176,135.822 139.676,142.489 138,149.5C 137.722,148.584 137.222,147.918 136.5,147.5C 136.433,146.041 136.766,144.708 137.5,143.5C 139.204,140.744 140.537,137.744 141.5,134.5C 141.5,134.167 141.5,133.833 141.5,133.5C 142.892,131.727 144.059,129.727 145,127.5C 145.464,128.094 145.631,128.761 145.5,129.5 Z"/></g>
<g><path style="opacity:1" fill="#bc5934" d="M 138.5,111.5 C 138.174,119.684 138.508,127.684 139.5,135.5C 139.34,137.153 138.674,138.486 137.5,139.5C 137.173,129.985 137.506,120.652 138.5,111.5 Z"/></g>
<g><path style="opacity:1" fill="#c39177" d="M 243.5,39.5 C 245.5,39.5 246.5,40.5 246.5,42.5C 246.832,85.3366 246.499,128.003 245.5,170.5C 245.667,127.832 245.5,85.1654 245,42.5C 244.617,41.944 244.117,41.6107 243.5,41.5C 243.5,41.1667 243.5,40.8333 243.5,40.5C 243.5,40.1667 243.5,39.8333 243.5,39.5 Z"/></g>
<g><path style="opacity:1" fill="#b3af7b" d="M 127.5,126.5 C 129.136,134.71 131.136,142.71 133.5,150.5C 132.766,151.708 132.433,153.041 132.5,154.5C 132.704,157.518 133.037,160.518 133.5,163.5C 130.712,154.066 128.379,144.399 126.5,134.5C 126.062,132.874 125.728,131.207 125.5,129.5C 125.64,127.97 126.307,126.97 127.5,126.5 Z"/></g>
<g><path style="opacity:1" fill="#934b45" d="M 185.5,125.5 C 186.5,126.167 187.5,126.833 188.5,127.5C 188.5,130.5 188.5,133.5 188.5,136.5C 192.241,135.599 194.241,136.932 194.5,140.5C 192.08,138.08 189.08,136.913 185.5,137C 186.056,136.617 186.389,136.117 186.5,135.5C 186.658,132.098 186.324,128.764 185.5,125.5 Z"/></g>
<g><path style="opacity:1" fill="#ddc0b9" d="M 141.5,134.5 C 140.537,137.744 139.204,140.744 137.5,143.5C 137.5,142.5 137.5,141.5 137.5,140.5C 137.5,140.167 137.5,139.833 137.5,139.5C 138.674,138.486 139.34,137.153 139.5,135.5C 140.167,135.167 140.833,134.833 141.5,134.5 Z"/></g>
<g><path style="opacity:1" fill="#f3f3f5" d="M 186.5,146.5 C 186.5,145.5 186.5,144.5 186.5,143.5C 186.45,141.41 187.45,140.077 189.5,139.5C 191.288,141.791 193.288,143.957 195.5,146C 193.714,146.785 192.214,147.951 191,149.5C 190.717,146.258 189.883,145.924 188.5,148.5C 187.478,148.145 186.811,147.478 186.5,146.5 Z"/></g>
<g><path style="opacity:1" fill="#9c9e9d" d="M 185.5,143.5 C 185.833,143.5 186.167,143.5 186.5,143.5C 186.5,144.5 186.5,145.5 186.5,146.5C 185.711,146.783 185.044,147.283 184.5,148C 186.602,149.397 187.769,151.231 188,153.5C 183.929,148.12 182.096,148.786 182.5,155.5C 181.158,154.098 180.324,154.431 180,156.5C 179.517,155.552 179.351,154.552 179.5,153.5C 178.5,153.5 177.5,153.5 176.5,153.5C 178.734,151.695 181.067,149.862 183.5,148C 181.941,147.02 180.274,146.187 178.5,145.5C 178.667,145.167 178.833,144.833 179,144.5C 179.725,145.059 180.558,145.392 181.5,145.5C 182.867,144.775 184.2,144.108 185.5,143.5 Z"/></g>
<g><path style="opacity:1" fill="#f7d86c" d="M 232.5,44.5 C 235.167,44.5 237.833,44.5 240.5,44.5C 240.5,87.1667 240.5,129.833 240.5,172.5C 239.476,176.591 238.143,180.591 236.5,184.5C 237.013,179.131 237.846,173.798 239,168.5C 239.428,130.457 239.594,92.4567 239.5,54.5C 239.846,51.3979 239.179,48.5645 237.5,46C 232.177,45.5006 226.844,45.334 221.5,45.5C 221.666,51.1764 221.499,56.8431 221,62.5C 219.618,64.4422 217.785,65.7755 215.5,66.5C 214.5,66.5 213.5,66.5 212.5,66.5C 212.842,65.6618 213.508,65.3284 214.5,65.5C 215.806,64.0322 217.306,62.6988 219,61.5C 219.499,55.8431 219.666,50.1764 219.5,44.5C 223.833,44.5 228.167,44.5 232.5,44.5 Z"/></g>
<g><path style="opacity:1" fill="#e3b64e" d="M 234.5,50.5 C 235.477,53.2869 235.81,56.2869 235.5,59.5C 232.916,58.9517 231.916,57.285 232.5,54.5C 233.117,54.6107 233.617,54.944 234,55.5C 234.494,53.8659 234.66,52.1992 234.5,50.5 Z"/></g>
<g><path style="opacity:1" fill="#b25618" d="M 234.5,50.5 C 234.66,52.1992 234.494,53.8659 234,55.5C 233.617,54.944 233.117,54.6107 232.5,54.5C 232.461,53.4168 232.127,52.4168 231.5,51.5C 232.325,50.6143 233.325,50.281 234.5,50.5 Z"/></g>
<g><path style="opacity:1" fill="#c8c8c8" d="M 165.5,143.5 C 164.383,147.295 163.717,151.295 163.5,155.5C 163.167,155.5 162.833,155.5 162.5,155.5C 161.632,151.192 161.466,146.859 162,142.5C 163.756,141.015 164.923,141.348 165.5,143.5 Z"/></g>
<g><path style="opacity:1" fill="#393939" d="M 165.5,143.5 C 165.5,146.5 165.5,149.5 165.5,152.5C 164.833,153.5 164.167,154.5 163.5,155.5C 163.717,151.295 164.383,147.295 165.5,143.5 Z"/></g>
<g><path style="opacity:1" fill="#cd8546" d="M 197.5,145.5 C 197.833,145.5 198.167,145.5 198.5,145.5C 198.821,151.026 198.488,156.36 197.5,161.5C 197.815,157.629 197.482,153.962 196.5,150.5C 196.5,149.167 196.5,147.833 196.5,146.5C 197.167,146.5 197.5,146.167 197.5,145.5 Z"/></g>
<g><path style="opacity:1" fill="#5f605b" d="M 136.5,147.5 C 135.844,149.484 135.178,151.484 134.5,153.5C 135.178,155.516 135.844,157.516 136.5,159.5C 134.461,158.328 133.128,156.662 132.5,154.5C 132.433,153.041 132.766,151.708 133.5,150.5C 134.272,149.306 135.272,148.306 136.5,147.5 Z"/></g>
<g><path style="opacity:1" fill="#c73f32" d="M 225.5,156.5 C 224.797,169.488 224.463,182.488 224.5,195.5C 223.758,197.98 222.758,200.313 221.5,202.5C 219.833,203.833 218.167,205.167 216.5,206.5C 215.167,206.5 213.833,206.5 212.5,206.5C 212.819,201.637 212.486,196.97 211.5,192.5C 210.596,191.791 210.263,190.791 210.5,189.5C 211.083,163.504 211.417,137.504 211.5,111.5C 211.172,99.6547 211.505,87.988 212.5,76.5C 214.402,75.6321 216.235,74.6321 218,73.5C 219.605,74.1007 220.938,75.1007 222,76.5C 222.98,74.9411 223.813,73.2744 224.5,71.5C 225.5,99.8255 225.833,128.159 225.5,156.5 Z"/></g>
<g><path style="opacity:1" fill="#7b7b7b" d="M 162.5,155.5 C 162.833,155.5 163.167,155.5 163.5,155.5C 163.025,157.784 162.025,159.784 160.5,161.5C 159.167,161.833 157.833,162.167 156.5,162.5C 159.19,160.807 161.19,158.473 162.5,155.5 Z"/></g>
<g><path style="opacity:1" fill="#574f4f" d="M 136.5,159.5 C 138.633,161.091 140.299,163.091 141.5,165.5C 141.5,165.833 141.5,166.167 141.5,166.5C 140.833,166.167 140.167,165.833 139.5,165.5C 138.248,163.999 137.248,162.332 136.5,160.5C 136.5,160.167 136.5,159.833 136.5,159.5 Z"/></g>
<g><path style="opacity:1" fill="#c4c2c2" d="M 186.5,135.5 C 186.389,136.117 186.056,136.617 185.5,137C 189.08,136.913 192.08,138.08 194.5,140.5C 195.63,142.315 196.296,144.315 196.5,146.5C 196.5,147.833 196.5,149.167 196.5,150.5C 196.167,151.5 195.5,152.167 194.5,152.5C 193.504,152.414 192.671,152.748 192,153.5C 190.556,156.055 189.389,158.721 188.5,161.5C 184.669,161.895 182.335,163.895 181.5,167.5C 179.357,171.924 177.024,176.257 174.5,180.5C 175.59,175.906 176.757,171.239 178,166.5C 178.89,163.294 178.557,160.294 177,157.5C 175.075,159.973 173.242,159.973 171.5,157.5C 171.844,154.964 172.844,152.797 174.5,151C 173.692,150.692 173.025,150.192 172.5,149.5C 173.641,148.575 173.641,147.741 172.5,147C 174.3,146.764 175.966,147.264 177.5,148.5C 175.007,151.102 173.84,154.102 174,157.5C 174.608,155.934 175.442,154.6 176.5,153.5C 177.5,153.5 178.5,153.5 179.5,153.5C 179.351,154.552 179.517,155.552 180,156.5C 180.324,154.431 181.158,154.098 182.5,155.5C 182.096,148.786 183.929,148.12 188,153.5C 187.769,151.231 186.602,149.397 184.5,148C 185.044,147.283 185.711,146.783 186.5,146.5C 186.811,147.478 187.478,148.145 188.5,148.5C 189.883,145.924 190.717,146.258 191,149.5C 192.214,147.951 193.714,146.785 195.5,146C 193.288,143.957 191.288,141.791 189.5,139.5C 187.45,140.077 186.45,141.41 186.5,143.5C 186.167,143.5 185.833,143.5 185.5,143.5C 184.226,141.007 183.56,138.341 183.5,135.5C 180.575,135.46 177.909,136.293 175.5,138C 177.931,139.729 177.597,141.229 174.5,142.5C 173.758,140.65 172.758,139.984 171.5,140.5C 174.076,136.522 177.742,134.188 182.5,133.5C 184.073,133.752 185.406,134.418 186.5,135.5 Z"/></g>
<g><path style="opacity:1" fill="#cbcbcb" d="M 165.5,152.5 C 165.067,158.367 162.734,163.367 158.5,167.5C 158.167,167.167 157.833,166.833 157.5,166.5C 158.952,165.06 159.952,163.394 160.5,161.5C 162.025,159.784 163.025,157.784 163.5,155.5C 164.167,154.5 164.833,153.5 165.5,152.5 Z"/></g>
<g><path style="opacity:1" fill="#a54941" d="M 194.5,152.5 C 192.593,155.543 191.26,158.876 190.5,162.5C 186.691,163.062 184.025,165.062 182.5,168.5C 182.167,168.5 181.833,168.5 181.5,168.5C 181.5,168.167 181.5,167.833 181.5,167.5C 182.335,163.895 184.669,161.895 188.5,161.5C 189.389,158.721 190.556,156.055 192,153.5C 192.671,152.748 193.504,152.414 194.5,152.5 Z"/></g>
<g><path style="opacity:1" fill="#f8d365" d="M 107.5,147.5 C 107.833,147.5 108.167,147.5 108.5,147.5C 108.175,155.352 108.508,163.018 109.5,170.5C 109.5,176.5 109.5,182.5 109.5,188.5C 108.883,188.611 108.383,188.944 108,189.5C 107.873,175.549 107.707,161.549 107.5,147.5 Z"/></g>
<g><path style="opacity:1" fill="#9b8d87" d="M 141.5,165.5 C 142.606,166.149 143.606,166.483 144.5,166.5C 143.754,167.736 143.421,169.07 143.5,170.5C 142.833,169.833 142.167,169.167 141.5,168.5C 141.5,167.833 141.5,167.167 141.5,166.5C 141.5,166.167 141.5,165.833 141.5,165.5 Z"/></g>
<g><path style="opacity:1" fill="#c64132" d="M 196.5,150.5 C 197.482,153.962 197.815,157.629 197.5,161.5C 197.523,175.178 197.19,188.844 196.5,202.5C 195.111,207.269 194.444,212.269 194.5,217.5C 192.5,219.167 190.5,220.833 188.5,222.5C 187.206,223.29 186.039,224.29 185,225.5C 184.605,228.207 184.105,230.873 183.5,233.5C 182.85,233.804 182.183,234.137 181.5,234.5C 180.526,232.257 180.192,229.924 180.5,227.5C 180.5,221.833 180.5,216.167 180.5,210.5C 180.5,210.167 180.5,209.833 180.5,209.5C 185.791,209.025 189.457,206.358 191.5,201.5C 191.36,199.97 190.693,198.97 189.5,198.5C 188.833,198.5 188.5,198.167 188.5,197.5C 186.646,193.779 184.313,190.446 181.5,187.5C 182.418,181.225 182.751,174.892 182.5,168.5C 184.025,165.062 186.691,163.062 190.5,162.5C 191.26,158.876 192.593,155.543 194.5,152.5C 195.5,152.167 196.167,151.5 196.5,150.5 Z"/></g>
<g><path style="opacity:1" fill="#c74332" d="M 114.5,70.5 C 117.454,72.2805 120.287,74.2805 123,76.5C 123.243,89.5249 123.743,102.525 124.5,115.5C 124.172,126.346 124.506,137.013 125.5,147.5C 125.763,165.19 125.43,182.857 124.5,200.5C 120.625,201.126 118.791,199.459 119,195.5C 118.31,194.262 117.81,194.262 117.5,195.5C 116.833,195.5 116.167,195.5 115.5,195.5C 114.5,195.5 113.5,195.5 112.5,195.5C 112.5,193.5 112.5,191.5 112.5,189.5C 111.5,189.5 110.5,189.5 109.5,189.5C 109.5,189.167 109.5,188.833 109.5,188.5C 109.5,182.5 109.5,176.5 109.5,170.5C 109.167,136.493 109.5,102.493 110.5,68.5C 111.86,69.1799 113.193,69.8466 114.5,70.5 Z"/></g>
<g><path style="opacity:1" fill="#a0494b" d="M 139.5,165.5 C 140.167,165.833 140.833,166.167 141.5,166.5C 141.5,167.167 141.5,167.833 141.5,168.5C 141.31,170.959 142.31,172.626 144.5,173.5C 144.672,174.492 144.338,175.158 143.5,175.5C 142.833,175.5 142.167,175.5 141.5,175.5C 140.833,174.167 140.167,172.833 139.5,171.5C 139.5,169.5 139.5,167.5 139.5,165.5 Z"/></g>
<g><path style="opacity:1" fill="#f5f2ef" d="M 136.5,160.5 C 137.248,162.332 138.248,163.999 139.5,165.5C 139.5,167.5 139.5,169.5 139.5,171.5C 139.5,172.833 139.5,174.167 139.5,175.5C 137.801,175.66 136.134,175.494 134.5,175C 133.919,174.107 133.585,173.107 133.5,172C 133.924,167.887 134.924,164.054 136.5,160.5 Z"/></g>
<g><path style="opacity:1" fill="#ebbc58" d="M 227.5,76.5 C 227.5,96.5 227.5,116.5 227.5,136.5C 227.197,148.372 227.531,160.205 228.5,172C 228.389,173.722 227.889,173.888 227,172.5C 226.817,175.365 226.317,178.031 225.5,180.5C 226.023,172.51 226.356,164.51 226.5,156.5C 226.169,129.661 226.502,102.995 227.5,76.5 Z"/></g>
<g><path style="opacity:1" fill="#492e28" d="M 141.5,168.5 C 142.167,169.167 142.833,169.833 143.5,170.5C 144.263,171.268 145.263,171.768 146.5,172C 145.944,172.383 145.611,172.883 145.5,173.5C 145.167,173.5 144.833,173.5 144.5,173.5C 142.31,172.626 141.31,170.959 141.5,168.5 Z"/></g>
<g><path style="opacity:1" fill="#8f8f8f" d="M 156.5,162.5 C 153.215,165.118 150.215,168.118 147.5,171.5C 151.656,173.049 155.656,174.883 159.5,177C 154.993,175.604 150.327,174.437 145.5,173.5C 145.611,172.883 145.944,172.383 146.5,172C 145.263,171.768 144.263,171.268 143.5,170.5C 144.552,170.649 145.552,170.483 146.5,170C 149.164,166.489 152.498,163.989 156.5,162.5 Z"/></g>
<g><path style="opacity:1" fill="#efe66c" d="M 98.5,192.5 C 96.6583,190.81 95.325,188.81 94.5,186.5C 94.5,185.167 94.5,183.833 94.5,182.5C 94.5,181.833 94.5,181.167 94.5,180.5C 95.1499,180.804 95.8165,181.137 96.5,181.5C 97.3939,177.802 98.3939,174.135 99.5,170.5C 99.8333,171.333 100.167,172.167 100.5,173C 99.4823,177.112 98.149,181.112 96.5,185C 97.4235,186.811 98.2569,186.645 99,184.5C 99.4298,187.192 99.2631,189.859 98.5,192.5 Z"/></g>
<g><path style="opacity:1" fill="#e9d873" d="M 181.5,170.5 C 181.666,174.514 181.499,178.514 181,182.5C 180.617,181.944 180.117,181.611 179.5,181.5C 179.5,179.5 179.5,177.5 179.5,175.5C 179.402,173.447 180.069,171.78 181.5,170.5 Z"/></g>
<g><path style="opacity:1" fill="#ca7738" d="M 210.5,111.5 C 210.833,111.5 211.167,111.5 211.5,111.5C 211.417,137.504 211.083,163.504 210.5,189.5C 210.167,189.5 209.833,189.5 209.5,189.5C 210.06,163.504 210.394,137.504 210.5,111.5 Z"/></g>
<g><path style="opacity:1" fill="#c4682d" d="M 225.5,156.5 C 225.833,156.5 226.167,156.5 226.5,156.5C 226.356,164.51 226.023,172.51 225.5,180.5C 225.5,182.833 225.5,185.167 225.5,187.5C 225.806,190.385 225.473,193.052 224.5,195.5C 224.463,182.488 224.797,169.488 225.5,156.5 Z"/></g>
<g><path style="opacity:1" fill="#554744" d="M 141.5,175.5 C 142.167,175.5 142.833,175.5 143.5,175.5C 142.773,177.954 141.773,180.287 140.5,182.5C 139.957,182.44 139.624,182.107 139.5,181.5C 140.747,179.677 141.414,177.677 141.5,175.5 Z"/></g>
<g><path style="opacity:1" fill="#cad08b" d="M 92.5,175.5 C 93.9313,176.78 94.5979,178.447 94.5,180.5C 94.5,181.167 94.5,181.833 94.5,182.5C 93.0762,180.485 92.4095,178.152 92.5,175.5 Z"/></g>
<g><path style="opacity:1" fill="#b5b4ae" d="M 132.5,154.5 C 133.128,156.662 134.461,158.328 136.5,159.5C 136.5,159.833 136.5,160.167 136.5,160.5C 134.924,164.054 133.924,167.887 133.5,172C 133.585,173.107 133.919,174.107 134.5,175C 136.134,175.494 137.801,175.66 139.5,175.5C 139.5,174.167 139.5,172.833 139.5,171.5C 140.167,172.833 140.833,174.167 141.5,175.5C 141.414,177.677 140.747,179.677 139.5,181.5C 139.624,182.107 139.957,182.44 140.5,182.5C 141.833,188.167 143.167,193.833 144.5,199.5C 145.791,199.263 146.791,199.596 147.5,200.5C 146.508,200.328 145.842,200.662 145.5,201.5C 145.465,202.404 144.965,203.07 144,203.5C 143.098,203.257 142.265,202.923 141.5,202.5C 140.89,200.566 139.89,198.899 138.5,197.5C 137.833,197.5 137.5,197.167 137.5,196.5C 137.5,196.167 137.5,195.833 137.5,195.5C 138.93,193.545 138.597,191.879 136.5,190.5C 136.5,190.167 136.5,189.833 136.5,189.5C 136.663,187.143 136.497,184.81 136,182.5C 134.26,181.284 133.26,179.618 133,177.5C 132.539,172.816 132.705,168.149 133.5,163.5C 133.037,160.518 132.704,157.518 132.5,154.5 Z"/></g>
<g><path style="opacity:1" fill="#536983" d="M 91.5,172.5 C 91.8333,172.5 92.1667,172.5 92.5,172.5C 92.5,173.5 92.5,174.5 92.5,175.5C 92.4095,178.152 93.0762,180.485 94.5,182.5C 94.5,183.833 94.5,185.167 94.5,186.5C 91.9458,182.31 90.9458,177.643 91.5,172.5 Z"/></g>
<g><path style="opacity:1" fill="#7a7a75" d="M 181.5,167.5 C 181.5,167.833 181.5,168.167 181.5,168.5C 181.5,169.167 181.5,169.833 181.5,170.5C 180.069,171.78 179.402,173.447 179.5,175.5C 177.891,178.53 175.891,181.363 173.5,184C 170.869,184.107 168.369,184.273 166,184.5C 165.251,183.365 165.417,182.365 166.5,181.5C 169.567,183.096 172.234,182.763 174.5,180.5C 177.024,176.257 179.357,171.924 181.5,167.5 Z"/></g>
<g><path style="opacity:1" fill="#d1a975" d="M 181.5,168.5 C 181.833,168.5 182.167,168.5 182.5,168.5C 182.751,174.892 182.418,181.225 181.5,187.5C 179.195,185.92 178.528,183.92 179.5,181.5C 180.117,181.611 180.617,181.944 181,182.5C 181.499,178.514 181.666,174.514 181.5,170.5C 181.5,169.833 181.5,169.167 181.5,168.5 Z"/></g>
<g><path style="opacity:1" fill="#c67439" d="M 240.5,172.5 C 240.5,175.5 240.5,178.5 240.5,181.5C 239.739,185.268 238.073,188.601 235.5,191.5C 235.674,189.139 236.007,186.806 236.5,184.5C 238.143,180.591 239.476,176.591 240.5,172.5 Z"/></g>
<g><path style="opacity:1" fill="#7a7a7a" d="M 164.5,203.5 C 164.5,203.833 164.5,204.167 164.5,204.5C 162.167,204.5 159.833,204.5 157.5,204.5C 157.5,203.5 157.5,202.5 157.5,201.5C 159.78,199.777 162.447,199.111 165.5,199.5C 164.664,194.166 164.164,188.833 164,183.5C 165.89,189.01 166.723,194.676 166.5,200.5C 164.073,200.523 161.74,201.023 159.5,202C 161.025,203.009 162.692,203.509 164.5,203.5 Z"/></g>
<g><path style="opacity:1" fill="#56679d" d="M 94.5,186.5 C 95.325,188.81 96.6583,190.81 98.5,192.5C 98.6036,194.703 99.2702,196.703 100.5,198.5C 100.5,199.833 100.5,201.167 100.5,202.5C 99.609,201.89 98.609,201.557 97.5,201.5C 94.6261,197.086 92.2928,192.419 90.5,187.5C 91.7206,188.028 92.8873,188.695 94,189.5C 94.4828,188.552 94.6495,187.552 94.5,186.5 Z"/></g>
<g><path style="opacity:1" fill="#edc05d" d="M 109.5,189.5 C 110.5,189.5 111.5,189.5 112.5,189.5C 112.5,191.5 112.5,193.5 112.5,195.5C 110.031,194.393 109.031,192.393 109.5,189.5 Z"/></g>
<g><path style="opacity:1" fill="#635c37" d="M 136.5,189.5 C 136.5,189.833 136.5,190.167 136.5,190.5C 134.977,192.586 135.31,194.252 137.5,195.5C 137.5,195.833 137.5,196.167 137.5,196.5C 132.636,195 132.303,192.666 136.5,189.5 Z"/></g>
<g><path style="opacity:1" fill="#c09577" d="M 245.5,175.5 C 245.5,176.833 245.5,178.167 245.5,179.5C 242.553,193.732 236.219,206.065 226.5,216.5C 227.016,213.347 228.35,210.68 230.5,208.5C 232.292,205.976 233.958,203.31 235.5,200.5C 238.389,195.868 240.722,190.868 242.5,185.5C 242.899,181.884 243.899,178.55 245.5,175.5 Z"/></g>
<g><path style="opacity:1" fill="#ebeded" d="M 136.5,190.5 C 138.597,191.879 138.93,193.545 137.5,195.5C 135.31,194.252 134.977,192.586 136.5,190.5 Z"/></g>
<g><path style="opacity:1" fill="#99423b" d="M 181.5,187.5 C 184.313,190.446 186.646,193.779 188.5,197.5C 187.833,197.5 187.167,197.5 186.5,197.5C 184.842,194.211 183.175,190.877 181.5,187.5 Z"/></g>
<g><path style="opacity:1" fill="#c65d43" d="M 240.5,181.5 C 240.34,183.199 240.506,184.866 241,186.5C 241.383,185.944 241.883,185.611 242.5,185.5C 240.722,190.868 238.389,195.868 235.5,200.5C 234.233,201.087 233.233,201.087 232.5,200.5C 234.494,198.184 235.494,195.518 235.5,192.5C 235.5,192.167 235.5,191.833 235.5,191.5C 238.073,188.601 239.739,185.268 240.5,181.5 Z"/></g>
<g><path style="opacity:1" fill="#f6e165" d="M 225.5,187.5 C 226.5,187.5 227.5,187.5 228.5,187.5C 228.218,190.347 228.218,193.013 228.5,195.5C 230.626,194.63 232.626,193.63 234.5,192.5C 233.071,195.696 231.405,198.696 229.5,201.5C 226.484,207.514 222.484,212.847 217.5,217.5C 216.833,217.833 216.167,218.167 215.5,218.5C 215.298,216.011 215.798,213.677 217,211.5C 218.113,210.289 219.28,210.289 220.5,211.5C 221.478,211.023 222.311,210.357 223,209.5C 223.449,206.312 224.782,203.645 227,201.5C 227.781,200.056 227.614,198.723 226.5,197.5C 225.478,199.855 223.812,201.522 221.5,202.5C 222.758,200.313 223.758,197.98 224.5,195.5C 225.473,193.052 225.806,190.385 225.5,187.5 Z"/></g>
<g><path style="opacity:1" fill="#878d8e" d="M 100.5,198.5 C 101.89,199.899 102.89,201.566 103.5,203.5C 102.609,202.89 101.609,202.557 100.5,202.5C 100.5,201.167 100.5,199.833 100.5,198.5 Z"/></g>
<g><path style="opacity:1" fill="#f3ea61" d="M 126.5,134.5 C 128.379,144.399 130.712,154.066 133.5,163.5C 132.705,168.149 132.539,172.816 133,177.5C 133.26,179.618 134.26,181.284 136,182.5C 136.497,184.81 136.663,187.143 136.5,189.5C 132.303,192.666 132.636,195 137.5,196.5C 137.5,197.167 137.833,197.5 138.5,197.5C 138.5,208.5 138.5,219.5 138.5,230.5C 142.391,230.984 144.724,228.984 145.5,224.5C 147.199,224.527 148.533,225.194 149.5,226.5C 150.954,230.807 151.954,235.14 152.5,239.5C 152.629,241.216 152.962,242.883 153.5,244.5C 153.167,244.5 152.833,244.5 152.5,244.5C 149.813,244.664 147.146,244.497 144.5,244C 141.038,241.585 137.705,239.085 134.5,236.5C 130.61,233.729 126.943,230.729 123.5,227.5C 118.805,222.474 114.139,217.474 109.5,212.5C 107.735,209.291 105.735,206.291 103.5,203.5C 102.89,201.566 101.89,199.899 100.5,198.5C 99.2702,196.703 98.6036,194.703 98.5,192.5C 99.4745,193.635 100.641,194.635 102,195.5C 103.049,193.893 104.549,193.227 106.5,193.5C 106.33,194.822 106.663,195.989 107.5,197C 109.615,197.557 111.615,198.391 113.5,199.5C 113.833,199 114.167,198.5 114.5,198C 113.944,196.989 113.278,196.156 112.5,195.5C 113.5,195.5 114.5,195.5 115.5,195.5C 116.436,199.735 116.769,204.069 116.5,208.5C 116.5,209.5 116.5,210.5 116.5,211.5C 117.833,211.5 119.167,211.5 120.5,211.5C 120.784,208.746 121.451,206.08 122.5,203.5C 123.149,205.624 123.983,207.624 125,209.5C 125.044,206.525 124.877,203.525 124.5,200.5C 125.43,182.857 125.763,165.19 125.5,147.5C 125.182,142.968 125.515,138.634 126.5,134.5 Z"/></g>
<g><path style="opacity:1" fill="#5e5d5c" d="M 145.5,201.5 C 145.842,200.662 146.508,200.328 147.5,200.5C 149.181,202.008 151.181,203.008 153.5,203.5C 154.808,204.232 156.142,205.066 157.5,206C 154.639,206.085 151.972,205.251 149.5,203.5C 148.52,206.086 148.187,208.753 148.5,211.5C 147.503,211.53 146.836,211.03 146.5,210C 147.838,206.889 147.505,204.055 145.5,201.5 Z"/></g>
<g><path style="opacity:1" fill="#9c9e9e" d="M 171.5,204.5 C 170.508,204.328 169.842,204.662 169.5,205.5C 167.883,204.962 166.216,204.629 164.5,204.5C 164.5,204.167 164.5,203.833 164.5,203.5C 166.604,203.799 168.604,203.466 170.5,202.5C 168.378,197.319 167.211,191.986 167,186.5C 169.445,192.28 170.945,198.28 171.5,204.5 Z"/></g>
<g><path style="opacity:1" fill="#f3db64" d="M 124.5,200.5 C 124.877,203.525 125.044,206.525 125,209.5C 123.983,207.624 123.149,205.624 122.5,203.5C 121.451,206.08 120.784,208.746 120.5,211.5C 119.167,211.5 117.833,211.5 116.5,211.5C 116.5,210.5 116.5,209.5 116.5,208.5C 118.179,208.715 119.179,208.048 119.5,206.5C 119.5,205.167 119.5,203.833 119.5,202.5C 118.135,200.409 117.468,198.076 117.5,195.5C 117.81,194.262 118.31,194.262 119,195.5C 118.791,199.459 120.625,201.126 124.5,200.5 Z"/></g>
<g><path style="opacity:1" fill="#c19e97" d="M 145.5,201.5 C 147.505,204.055 147.838,206.889 146.5,210C 146.836,211.03 147.503,211.53 148.5,211.5C 148.5,215.167 148.5,218.833 148.5,222.5C 148.167,222.5 147.833,222.5 147.5,222.5C 147.58,219.219 146.913,216.219 145.5,213.5C 145.5,210.833 145.5,208.167 145.5,205.5C 144.167,205.5 142.833,205.5 141.5,205.5C 141.5,204.5 141.5,203.5 141.5,202.5C 142.265,202.923 143.098,203.257 144,203.5C 144.965,203.07 145.465,202.404 145.5,201.5 Z"/></g>
<g><path style="opacity:1" fill="#c0c2c2" d="M 157.5,201.5 C 157.5,202.5 157.5,203.5 157.5,204.5C 159.833,204.5 162.167,204.5 164.5,204.5C 166.216,204.629 167.883,204.962 169.5,205.5C 170.5,206.5 171.5,207.5 172.5,208.5C 170.938,208.733 169.605,209.4 168.5,210.5C 163.268,211.548 157.768,211.548 152,210.5C 151.5,210.667 151,210.833 150.5,211C 151.416,211.278 152.082,211.778 152.5,212.5C 151.903,212.735 151.57,213.235 151.5,214C 152.256,216.856 153.089,219.689 154,222.5C 154.77,223.598 155.603,223.598 156.5,222.5C 156.993,224.806 157.326,227.139 157.5,229.5C 157.232,231.099 157.566,232.432 158.5,233.5C 158.75,234.922 159.583,235.922 161,236.5C 161.186,233.964 161.686,231.631 162.5,229.5C 162.777,234.233 162.443,238.9 161.5,243.5C 162,244.5 162.5,245.5 163,246.5C 163.511,244.122 164.178,241.788 165,239.5C 164.93,242.992 165.763,245.992 167.5,248.5C 168.167,248.5 168.833,248.5 169.5,248.5C 169.629,250.216 169.962,251.883 170.5,253.5C 170.833,254.5 171.5,255.167 172.5,255.5C 173.035,257.446 174.368,258.446 176.5,258.5C 175.694,259.728 174.694,260.728 173.5,261.5C 172.5,261.5 171.5,261.5 170.5,261.5C 166.944,260.775 163.611,259.442 160.5,257.5C 160.5,256.167 160.5,254.833 160.5,253.5C 161.461,251.735 161.795,249.735 161.5,247.5C 160.5,247.5 159.5,247.5 158.5,247.5C 160.113,246.162 160.613,244.495 160,242.5C 158.246,244.25 156.079,244.917 153.5,244.5C 152.962,242.883 152.629,241.216 152.5,239.5C 152.665,235.818 152.499,232.152 152,228.5C 151.224,225.767 150.39,223.767 149.5,222.5C 149.167,222.5 148.833,222.5 148.5,222.5C 148.5,218.833 148.5,215.167 148.5,211.5C 148.187,208.753 148.52,206.086 149.5,203.5C 151.972,205.251 154.639,206.085 157.5,206C 156.142,205.066 154.808,204.232 153.5,203.5C 155.199,203.473 156.533,202.806 157.5,201.5 Z"/></g>
<g><path style="opacity:1" fill="#ca7150" d="M 234.5,192.5 C 234.833,192.5 235.167,192.5 235.5,192.5C 235.494,195.518 234.494,198.184 232.5,200.5C 233.233,201.087 234.233,201.087 235.5,200.5C 233.958,203.31 232.292,205.976 230.5,208.5C 229.518,209.141 228.518,209.807 227.5,210.5C 227.167,210 226.833,209.5 226.5,209C 227.987,206.709 228.987,204.209 229.5,201.5C 231.405,198.696 233.071,195.696 234.5,192.5 Z"/></g>
<g><path style="opacity:1" fill="#747aab" d="M 97.5,201.5 C 98.609,201.557 99.609,201.89 100.5,202.5C 101.609,202.557 102.609,202.89 103.5,203.5C 105.735,206.291 107.735,209.291 109.5,212.5C 109.92,214.094 110.586,215.594 111.5,217C 111.317,218.684 110.65,218.85 109.5,217.5C 104.54,212.924 100.54,207.591 97.5,201.5 Z"/></g>
<g><path style="opacity:1" fill="#bf4a29" d="M 119.5,202.5 C 119.5,203.833 119.5,205.167 119.5,206.5C 118.414,206.38 117.747,205.713 117.5,204.5C 117.747,203.287 118.414,202.62 119.5,202.5 Z"/></g>
<g><path style="opacity:1" fill="#4b2b22" d="M 186.5,197.5 C 187.167,197.5 187.833,197.5 188.5,197.5C 188.5,198.167 188.833,198.5 189.5,198.5C 190.412,199.738 190.579,201.072 190,202.5C 187.21,205.465 184.043,207.798 180.5,209.5C 178.5,209.5 176.5,209.5 174.5,209.5C 174.5,209.167 174.5,208.833 174.5,208.5C 176.415,208.784 178.081,208.451 179.5,207.5C 182.689,206.486 185.522,204.82 188,202.5C 188.613,200.505 188.113,198.838 186.5,197.5 Z"/></g>
<g><path style="opacity:1" fill="#a34239" d="M 189.5,198.5 C 190.693,198.97 191.36,199.97 191.5,201.5C 189.457,206.358 185.791,209.025 180.5,209.5C 184.043,207.798 187.21,205.465 190,202.5C 190.579,201.072 190.412,199.738 189.5,198.5 Z"/></g>
<g><path style="opacity:1" fill="#b35a3d" d="M 138.5,197.5 C 139.89,198.899 140.89,200.566 141.5,202.5C 141.5,203.5 141.5,204.5 141.5,205.5C 142.833,205.5 144.167,205.5 145.5,205.5C 145.5,208.167 145.5,210.833 145.5,213.5C 144.539,211.735 144.205,209.735 144.5,207.5C 143.167,207.5 141.833,207.5 140.5,207.5C 139.458,212.45 139.125,220.117 139.5,230.5C 139.167,230.5 138.833,230.5 138.5,230.5C 138.5,219.5 138.5,208.5 138.5,197.5 Z"/></g>
<g><path style="opacity:1" fill="#6c6f72" d="M 169.5,205.5 C 169.842,204.662 170.508,204.328 171.5,204.5C 173.347,207.171 176.014,208.171 179.5,207.5C 178.081,208.451 176.415,208.784 174.5,208.5C 174.167,208.5 173.833,208.5 173.5,208.5C 173.167,208.5 172.833,208.5 172.5,208.5C 171.5,207.5 170.5,206.5 169.5,205.5 Z"/></g>
<g><path style="opacity:1" fill="#be772c" d="M 115.5,195.5 C 116.167,195.5 116.833,195.5 117.5,195.5C 117.468,198.076 118.135,200.409 119.5,202.5C 118.414,202.62 117.747,203.287 117.5,204.5C 117.747,205.713 118.414,206.38 119.5,206.5C 119.179,208.048 118.179,208.715 116.5,208.5C 116.769,204.069 116.436,199.735 115.5,195.5 Z"/></g>
<g><path style="opacity:1" fill="#c05a29" d="M 211.5,192.5 C 212.486,196.97 212.819,201.637 212.5,206.5C 213.833,206.5 215.167,206.5 216.5,206.5C 215.086,208.054 213.419,209.388 211.5,210.5C 211.167,209.667 210.833,208.833 210.5,208C 211.369,202.871 211.702,197.704 211.5,192.5 Z"/></g>
<g><path style="opacity:1" fill="#f7f8f5" d="M 172.5,208.5 C 172.833,208.5 173.167,208.5 173.5,208.5C 173.817,211.572 173.484,214.572 172.5,217.5C 170.459,216.764 168.459,215.931 166.5,215C 165.316,213.855 165.316,212.688 166.5,211.5C 167.167,211.167 167.833,210.833 168.5,210.5C 169.605,209.4 170.938,208.733 172.5,208.5 Z"/></g>
<g><path style="opacity:1" fill="#3f3f40" d="M 168.5,210.5 C 167.833,210.833 167.167,211.167 166.5,211.5C 164.847,211.66 163.514,212.326 162.5,213.5C 161.5,213.5 160.5,213.5 159.5,213.5C 157.05,213.702 154.717,213.369 152.5,212.5C 152.082,211.778 151.416,211.278 150.5,211C 151,210.833 151.5,210.667 152,210.5C 157.768,211.548 163.268,211.548 168.5,210.5 Z"/></g>
<g><path style="opacity:1" fill="#f4da63" d="M 209.5,189.5 C 209.833,189.5 210.167,189.5 210.5,189.5C 210.263,190.791 210.596,191.791 211.5,192.5C 211.702,197.704 211.369,202.871 210.5,208C 210.833,208.833 211.167,209.667 211.5,210.5C 213.419,209.388 215.086,208.054 216.5,206.5C 218.167,205.167 219.833,203.833 221.5,202.5C 219.049,206.453 216.049,209.953 212.5,213C 211.207,213.49 209.873,213.657 208.5,213.5C 208.884,209.092 208.217,204.925 206.5,201C 206.667,200.167 206.833,199.333 207,198.5C 207.833,199.5 208.667,200.5 209.5,201.5C 210.505,197.521 210.505,193.521 209.5,189.5 Z"/></g>
<g><path style="opacity:1" fill="#f4f4ef" d="M 152.5,212.5 C 154.717,213.369 157.05,213.702 159.5,213.5C 158.032,214.779 157.365,216.446 157.5,218.5C 157.5,218.833 157.5,219.167 157.5,219.5C 156.596,220.209 156.263,221.209 156.5,222.5C 155.603,223.598 154.77,223.598 154,222.5C 153.089,219.689 152.256,216.856 151.5,214C 151.57,213.235 151.903,212.735 152.5,212.5 Z"/></g>
<g><path style="opacity:1" fill="#e1e2b0" d="M 159.5,213.5 C 160.5,213.5 161.5,213.5 162.5,213.5C 162.5,213.833 162.5,214.167 162.5,214.5C 162.784,216.415 162.451,218.081 161.5,219.5C 161.5,218.167 161.5,216.833 161.5,215.5C 160.5,215.5 159.5,215.5 158.5,215.5C 158.737,216.791 158.404,217.791 157.5,218.5C 157.365,216.446 158.032,214.779 159.5,213.5 Z"/></g>
<g><path style="opacity:1" fill="#e6ae57" d="M 196.5,202.5 C 196.698,207.75 196.031,212.75 194.5,217.5C 194.444,212.269 195.111,207.269 196.5,202.5 Z"/></g>
<g><path style="opacity:1" fill="#d19270" d="M 229.5,201.5 C 228.987,204.209 227.987,206.709 226.5,209C 226.833,209.5 227.167,210 227.5,210.5C 228.518,209.807 229.518,209.141 230.5,208.5C 228.35,210.68 227.016,213.347 226.5,216.5C 225.581,219.089 223.914,221.089 221.5,222.5C 219.716,222.893 218.05,223.559 216.5,224.5C 216.5,223.167 216.5,221.833 216.5,220.5C 217.11,219.609 217.443,218.609 217.5,217.5C 222.484,212.847 226.484,207.514 229.5,201.5 Z"/></g>
<g><path style="opacity:1" fill="#c34030" d="M 145.5,213.5 C 146.913,216.219 147.58,219.219 147.5,222.5C 146.5,222.833 145.833,223.5 145.5,224.5C 143.861,226.806 141.861,228.806 139.5,230.5C 139.125,220.117 139.458,212.45 140.5,207.5C 141.833,207.5 143.167,207.5 144.5,207.5C 144.205,209.735 144.539,211.735 145.5,213.5 Z"/></g>
<g><path style="opacity:1" fill="#cccecc" d="M 173.5,208.5 C 173.833,208.5 174.167,208.5 174.5,208.5C 174.5,208.833 174.5,209.167 174.5,209.5C 174.623,215.609 173.956,221.609 172.5,227.5C 171.833,228.5 171.167,229.5 170.5,230.5C 170.704,227.482 171.037,224.482 171.5,221.5C 169.857,221.52 168.524,220.853 167.5,219.5C 166.245,229.183 166.245,238.85 167.5,248.5C 165.763,245.992 164.93,242.992 165,239.5C 164.178,241.788 163.511,244.122 163,246.5C 162.5,245.5 162,244.5 161.5,243.5C 162.443,238.9 162.777,234.233 162.5,229.5C 162.22,224.687 162.886,220.02 164.5,215.5C 164.043,214.702 163.376,214.369 162.5,214.5C 162.5,214.167 162.5,213.833 162.5,213.5C 163.514,212.326 164.847,211.66 166.5,211.5C 165.316,212.688 165.316,213.855 166.5,215C 168.459,215.931 170.459,216.764 172.5,217.5C 173.484,214.572 173.817,211.572 173.5,208.5 Z"/></g>
<g><path style="opacity:1" fill="#eee584" d="M 174.5,209.5 C 176.5,209.5 178.5,209.5 180.5,209.5C 180.5,209.833 180.5,210.167 180.5,210.5C 178.833,210.5 177.167,210.5 175.5,210.5C 176.198,216.622 175.198,222.288 172.5,227.5C 173.956,221.609 174.623,215.609 174.5,209.5 Z"/></g>
<g><path style="opacity:1" fill="#edcc79" d="M 217.5,217.5 C 217.443,218.609 217.11,219.609 216.5,220.5C 212.947,223.758 209.28,226.758 205.5,229.5C 208.789,225.841 212.122,222.174 215.5,218.5C 216.167,218.167 216.833,217.833 217.5,217.5 Z"/></g>
<g><path style="opacity:1" fill="#e7e472" d="M 161.5,219.5 C 161.111,224.504 160.611,229.504 160,234.5C 159.617,233.944 159.117,233.611 158.5,233.5C 157.566,232.432 157.232,231.099 157.5,229.5C 158.239,226.348 158.239,223.015 157.5,219.5C 157.5,219.167 157.5,218.833 157.5,218.5C 158.404,217.791 158.737,216.791 158.5,215.5C 159.5,215.5 160.5,215.5 161.5,215.5C 161.5,216.833 161.5,218.167 161.5,219.5 Z"/></g>
<g><path style="opacity:1" fill="#d7c678" d="M 147.5,222.5 C 147.833,222.5 148.167,222.5 148.5,222.5C 148.833,222.5 149.167,222.5 149.5,222.5C 149.5,223.833 149.5,225.167 149.5,226.5C 148.533,225.194 147.199,224.527 145.5,224.5C 145.833,223.5 146.5,222.833 147.5,222.5 Z"/></g>
<g><path style="opacity:1" fill="#a8a571" d="M 157.5,219.5 C 158.239,223.015 158.239,226.348 157.5,229.5C 157.326,227.139 156.993,224.806 156.5,222.5C 156.263,221.209 156.596,220.209 157.5,219.5 Z"/></g>
<g><path style="opacity:1" fill="#a0a2c0" d="M 109.5,212.5 C 114.139,217.474 118.805,222.474 123.5,227.5C 123.715,229.179 123.048,230.179 121.5,230.5C 116.821,226.82 112.821,222.486 109.5,217.5C 110.65,218.85 111.317,218.684 111.5,217C 110.586,215.594 109.92,214.094 109.5,212.5 Z"/></g>
<g><path style="opacity:1" fill="#f8f8f5" d="M 170.5,230.5 C 169.793,233.786 169.46,237.119 169.5,240.5C 169.5,243.167 169.5,245.833 169.5,248.5C 168.833,248.5 168.167,248.5 167.5,248.5C 166.245,238.85 166.245,229.183 167.5,219.5C 168.524,220.853 169.857,221.52 171.5,221.5C 171.037,224.482 170.704,227.482 170.5,230.5 Z"/></g>
<g><path style="opacity:1" fill="#ebb960" d="M 145.5,224.5 C 144.724,228.984 142.391,230.984 138.5,230.5C 138.833,230.5 139.167,230.5 139.5,230.5C 141.861,228.806 143.861,226.806 145.5,224.5 Z"/></g>
<g><path style="opacity:1" fill="#c3c2d3" d="M 123.5,227.5 C 126.943,230.729 130.61,233.729 134.5,236.5C 134.539,237.583 134.873,238.583 135.5,239.5C 134.675,240.386 133.675,240.719 132.5,240.5C 128.319,237.851 124.653,234.517 121.5,230.5C 123.048,230.179 123.715,229.179 123.5,227.5 Z"/></g>
<g><path style="opacity:1" fill="#e6b559" d="M 188.5,222.5 C 187.952,224.394 186.952,226.06 185.5,227.5C 185.833,228.167 186.167,228.833 186.5,229.5C 185.568,231.795 184.735,234.129 184,236.5C 183.292,237.381 182.458,238.047 181.5,238.5C 182.167,236.833 182.833,235.167 183.5,233.5C 184.105,230.873 184.605,228.207 185,225.5C 186.039,224.29 187.206,223.29 188.5,222.5 Z"/></g>
<g><path style="opacity:1" fill="#b4b18c" d="M 162.5,214.5 C 163.376,214.369 164.043,214.702 164.5,215.5C 162.886,220.02 162.22,224.687 162.5,229.5C 161.686,231.631 161.186,233.964 161,236.5C 159.583,235.922 158.75,234.922 158.5,233.5C 159.117,233.611 159.617,233.944 160,234.5C 160.611,229.504 161.111,224.504 161.5,219.5C 162.451,218.081 162.784,216.415 162.5,214.5 Z"/></g>
<g><path style="opacity:1" fill="#e6bca3" d="M 216.5,220.5 C 216.5,221.833 216.5,223.167 216.5,224.5C 212.745,229.945 208.078,234.612 202.5,238.5C 203.292,237.033 203.292,235.7 202.5,234.5C 201.735,235.612 200.735,236.279 199.5,236.5C 201.523,234.147 203.523,231.814 205.5,229.5C 209.28,226.758 212.947,223.758 216.5,220.5 Z"/></g>
<g><path style="opacity:1" fill="#a8a162" d="M 172.5,227.5 C 171.673,231.807 171.007,236.14 170.5,240.5C 170.167,240.5 169.833,240.5 169.5,240.5C 169.46,237.119 169.793,233.786 170.5,230.5C 171.167,229.5 171.833,228.5 172.5,227.5 Z"/></g>
<g><path style="opacity:1" fill="#b2531d" d="M 180.5,227.5 C 180.192,229.924 180.526,232.257 181.5,234.5C 182.183,234.137 182.85,233.804 183.5,233.5C 182.833,235.167 182.167,236.833 181.5,238.5C 180.003,236.71 179.336,234.544 179.5,232C 179.508,230.293 179.842,228.793 180.5,227.5 Z"/></g>
<g><path style="opacity:1" fill="#baa083" d="M 221.5,222.5 C 209.969,235.699 196.636,246.699 181.5,255.5C 180.833,255.5 180.167,255.5 179.5,255.5C 187.425,250.251 195.091,244.584 202.5,238.5C 208.078,234.612 212.745,229.945 216.5,224.5C 218.05,223.559 219.716,222.893 221.5,222.5 Z"/></g>
<g><path style="opacity:1" fill="#817c52" d="M 152.5,239.5 C 151.954,235.14 150.954,230.807 149.5,226.5C 149.5,225.167 149.5,223.833 149.5,222.5C 150.39,223.767 151.224,225.767 152,228.5C 152.499,232.152 152.665,235.818 152.5,239.5 Z"/></g>
<g><path style="opacity:1" fill="#f3e48a" d="M 205.5,229.5 C 203.523,231.814 201.523,234.147 199.5,236.5C 197.833,237.167 196.167,237.833 194.5,238.5C 197.528,234.85 201.195,231.85 205.5,229.5 Z"/></g>
<g><path style="opacity:1" fill="#d6dcd8" d="M 134.5,236.5 C 137.705,239.085 141.038,241.585 144.5,244C 147.146,244.497 149.813,244.664 152.5,244.5C 147.266,245.802 141.933,245.802 136.5,244.5C 135.473,242.806 134.139,241.473 132.5,240.5C 133.675,240.719 134.675,240.386 135.5,239.5C 134.873,238.583 134.539,237.583 134.5,236.5 Z"/></g>
<g><path style="opacity:1" fill="#f5eee2" d="M 202.5,238.5 C 195.091,244.584 187.425,250.251 179.5,255.5C 177.167,255.5 174.833,255.5 172.5,255.5C 171.5,255.167 170.833,254.5 170.5,253.5C 173.716,253.655 176.383,252.655 178.5,250.5C 179.167,249.167 180.167,248.167 181.5,247.5C 182.872,246.488 184.205,245.488 185.5,244.5C 188.709,242.735 191.709,240.735 194.5,238.5C 196.167,237.833 197.833,237.167 199.5,236.5C 200.735,236.279 201.735,235.612 202.5,234.5C 203.292,235.7 203.292,237.033 202.5,238.5 Z"/></g>
<g><path style="opacity:1" fill="#9c933f" d="M 170.5,244.5 C 175.5,244.5 180.5,244.5 185.5,244.5C 184.205,245.488 182.872,246.488 181.5,247.5C 178.038,246.518 174.371,246.185 170.5,246.5C 170.5,245.833 170.5,245.167 170.5,244.5 Z"/></g>
<g><path style="opacity:1" fill="#5182a1" d="M 158.5,247.5 C 156.5,247.5 154.5,247.5 152.5,247.5C 144.493,247.666 136.493,247.5 128.5,247C 128.167,246.667 127.833,246.333 127.5,246C 128.737,245.768 129.737,245.268 130.5,244.5C 131.5,244.5 132.5,244.5 133.5,244.5C 134.5,244.5 135.5,244.5 136.5,244.5C 141.933,245.802 147.266,245.802 152.5,244.5C 152.833,244.5 153.167,244.5 153.5,244.5C 156.079,244.917 158.246,244.25 160,242.5C 160.613,244.495 160.113,246.162 158.5,247.5 Z"/></g>
<g><path style="opacity:1" fill="#8eb8ce" d="M 130.5,244.5 C 129.737,245.268 128.737,245.768 127.5,246C 127.833,246.333 128.167,246.667 128.5,247C 136.493,247.5 144.493,247.666 152.5,247.5C 152.5,247.833 152.5,248.167 152.5,248.5C 149.5,248.5 146.5,248.5 143.5,248.5C 142.5,248.5 141.5,248.5 140.5,248.5C 135.07,248.839 129.736,248.339 124.5,247C 124.043,246.586 123.709,246.086 123.5,245.5C 125.743,244.526 128.076,244.192 130.5,244.5 Z"/></g>
<g><path style="opacity:1" fill="#e5e893" d="M 152.5,247.5 C 154.5,247.5 156.5,247.5 158.5,247.5C 159.5,247.5 160.5,247.5 161.5,247.5C 161.795,249.735 161.461,251.735 160.5,253.5C 157.715,254.084 156.048,253.084 155.5,250.5C 153.821,250.715 152.821,250.048 152.5,248.5C 152.5,248.167 152.5,247.833 152.5,247.5 Z"/></g>
<g><path style="opacity:1" fill="#f2ee6f" d="M 170.5,246.5 C 174.371,246.185 178.038,246.518 181.5,247.5C 180.167,248.167 179.167,249.167 178.5,250.5C 176.218,251.39 173.885,251.556 171.5,251C 170.62,249.644 170.286,248.144 170.5,246.5 Z"/></g>
<g><path style="opacity:1" fill="#f2ea61" d="M 155.5,250.5 C 156.552,248.744 158.219,248.077 160.5,248.5C 160.5,249.5 160.5,250.5 160.5,251.5C 158.708,251.634 157.042,251.301 155.5,250.5 Z"/></g>
<g><path style="opacity:1" fill="#b6a790" d="M 140.5,248.5 C 141.5,248.5 142.5,248.5 143.5,248.5C 147.888,252.221 152.555,255.555 157.5,258.5C 156.167,258.5 154.833,258.5 153.5,258.5C 148.986,255.409 144.653,252.075 140.5,248.5 Z"/></g>
<g><path style="opacity:1" fill="#ced1ce" d="M 162.5,247.5 C 163.923,249.545 165.923,250.545 168.5,250.5C 169.342,253.498 169.842,256.498 170,259.5C 167.619,258.565 165.119,258.232 162.5,258.5C 162.5,254.833 162.5,251.167 162.5,247.5 Z"/></g>
<g><path style="opacity:1" fill="#dbd8a4" d="M 169.5,240.5 C 169.833,240.5 170.167,240.5 170.5,240.5C 170.5,241.833 170.5,243.167 170.5,244.5C 170.5,245.167 170.5,245.833 170.5,246.5C 170.286,248.144 170.62,249.644 171.5,251C 173.885,251.556 176.218,251.39 178.5,250.5C 176.383,252.655 173.716,253.655 170.5,253.5C 169.962,251.883 169.629,250.216 169.5,248.5C 169.5,245.833 169.5,243.167 169.5,240.5 Z"/></g>
<g><path style="opacity:1" fill="#f7f5ef" d="M 143.5,248.5 C 146.5,248.5 149.5,248.5 152.5,248.5C 152.821,250.048 153.821,250.715 155.5,250.5C 156.048,253.084 157.715,254.084 160.5,253.5C 160.5,254.833 160.5,256.167 160.5,257.5C 160.5,257.833 160.5,258.167 160.5,258.5C 159.5,258.5 158.5,258.5 157.5,258.5C 152.555,255.555 147.888,252.221 143.5,248.5 Z"/></g>
<g><path style="opacity:1" fill="#76aac1" d="M 172.5,255.5 C 174.833,255.5 177.167,255.5 179.5,255.5C 180.167,255.5 180.833,255.5 181.5,255.5C 180.599,257.727 178.933,258.727 176.5,258.5C 174.368,258.446 173.035,257.446 172.5,255.5 Z"/></g>
<g><path style="opacity:1" fill="#8baebe" d="M 153.5,258.5 C 154.833,258.5 156.167,258.5 157.5,258.5C 158.5,258.5 159.5,258.5 160.5,258.5C 160.5,259.167 160.5,259.833 160.5,260.5C 157.167,260.5 153.833,260.5 150.5,260.5C 150.389,259.883 150.056,259.383 149.5,259C 150.793,258.51 152.127,258.343 153.5,258.5 Z"/></g>
<g><path style="opacity:1" fill="#48708e" d="M 160.5,257.5 C 163.611,259.442 166.944,260.775 170.5,261.5C 166.937,263.037 163.603,262.704 160.5,260.5C 160.5,259.833 160.5,259.167 160.5,258.5C 160.5,258.167 160.5,257.833 160.5,257.5 Z"/></g>
<g><path style="opacity:1" fill="#6faacc" d="M 150.5,260.5 C 153.833,260.5 157.167,260.5 160.5,260.5C 163.603,262.704 166.937,263.037 170.5,261.5C 171.5,261.5 172.5,261.5 173.5,261.5C 176.5,261.167 177.833,262.5 177.5,265.5C 167.936,264.142 158.269,263.308 148.5,263C 147.391,261.187 148.058,260.354 150.5,260.5 Z"/></g>
<g><path style="opacity:1" fill="#6fa9ca" d="M 148.5,267.5 C 150.948,266.527 153.615,266.194 156.5,266.5C 156.542,268.849 155.375,270.182 153,270.5C 151.614,269.271 150.114,268.271 148.5,267.5 Z"/></g>
<g><path style="opacity:1" fill="#a5cbde" d="M 113.5,274.5 C 114.434,275.568 114.768,276.901 114.5,278.5C 112.167,278.5 109.833,278.5 107.5,278.5C 107.5,279.5 107.5,280.5 107.5,281.5C 110.059,281.198 112.393,281.532 114.5,282.5C 111.833,282.5 109.167,282.5 106.5,282.5C 106.5,280.833 106.5,279.167 106.5,277.5C 108.833,277.5 111.167,277.5 113.5,277.5C 113.5,276.5 113.5,275.5 113.5,274.5 Z"/></g>
<g><path style="opacity:1" fill="#d3eefa" d="M 92.5,274.5 C 90.5,274.5 88.5,274.5 86.5,274.5C 86.5,281.167 86.5,287.833 86.5,294.5C 85.5088,287.687 85.1755,280.687 85.5,273.5C 88.0593,273.198 90.3926,273.532 92.5,274.5 Z"/></g>
<g><path style="opacity:1" fill="#e6f4f8" d="M 102.5,274.5 C 111.652,273.506 120.985,273.173 130.5,273.5C 130.5,274.5 130.5,275.5 130.5,276.5C 126.742,274.746 122.742,274.079 118.5,274.5C 118.5,281.5 118.5,288.5 118.5,295.5C 117.532,293.393 117.198,291.059 117.5,288.5C 114.487,289.132 111.487,289.466 108.5,289.5C 110.631,290.169 112.631,290.835 114.5,291.5C 113.5,291.5 112.5,291.5 111.5,291.5C 109.833,291.5 108.167,291.5 106.5,291.5C 106.5,289.5 106.5,287.5 106.5,285.5C 109.167,285.5 111.833,285.5 114.5,285.5C 114.5,284.5 114.5,283.5 114.5,282.5C 112.393,281.532 110.059,281.198 107.5,281.5C 107.5,280.5 107.5,279.5 107.5,278.5C 109.833,278.5 112.167,278.5 114.5,278.5C 114.768,276.901 114.434,275.568 113.5,274.5C 110.167,274.5 106.833,274.5 103.5,274.5C 103.167,274.5 102.833,274.5 102.5,274.5 Z"/></g>
<g><path style="opacity:1" fill="#63a8d2" d="M 130.5,276.5 C 130.5,276.833 130.5,277.167 130.5,277.5C 131.077,281.08 130.077,284.08 127.5,286.5C 128.833,289.167 130.167,291.833 131.5,294.5C 130.277,295.614 128.944,295.781 127.5,295C 123.652,285.25 121.986,285.416 122.5,295.5C 121.167,295.5 119.833,295.5 118.5,295.5C 118.5,288.5 118.5,281.5 118.5,274.5C 122.742,274.079 126.742,274.746 130.5,276.5 Z"/></g>
<g><path style="opacity:1" fill="#e4f7fb" d="M 122.5,278.5 C 123.833,278.5 125.167,278.5 126.5,278.5C 126.5,279.833 126.5,281.167 126.5,282.5C 125.167,282.5 123.833,282.5 122.5,282.5C 122.5,281.167 122.5,279.833 122.5,278.5 Z"/></g>
<g><path style="opacity:1" fill="#5aa5d1" d="M 103.5,274.5 C 106.833,274.5 110.167,274.5 113.5,274.5C 113.5,275.5 113.5,276.5 113.5,277.5C 111.167,277.5 108.833,277.5 106.5,277.5C 106.5,279.167 106.5,280.833 106.5,282.5C 109.167,282.5 111.833,282.5 114.5,282.5C 114.5,283.5 114.5,284.5 114.5,285.5C 111.833,285.5 109.167,285.5 106.5,285.5C 106.5,287.5 106.5,289.5 106.5,291.5C 108.167,291.5 109.833,291.5 111.5,291.5C 112.091,292.151 112.757,292.818 113.5,293.5C 110.232,294.487 106.898,294.82 103.5,294.5C 103.5,287.833 103.5,281.167 103.5,274.5 Z"/></g>
<g><path style="opacity:1" fill="#68a8d0" d="M 92.5,274.5 C 98.1527,274.944 99.9861,277.944 98,283.5C 96.1516,286.041 93.6516,287.041 90.5,286.5C 90.5,289.5 90.5,292.5 90.5,295.5C 88.901,295.768 87.5676,295.434 86.5,294.5C 86.5,287.833 86.5,281.167 86.5,274.5C 88.5,274.5 90.5,274.5 92.5,274.5 Z"/></g>
<g><path style="opacity:1" fill="#dff2f8" d="M 90.5,278.5 C 91.8333,278.5 93.1667,278.5 94.5,278.5C 94.5,279.833 94.5,281.167 94.5,282.5C 93.1667,282.5 91.8333,282.5 90.5,282.5C 90.5,281.167 90.5,279.833 90.5,278.5 Z"/></g>
<g><path style="opacity:1" fill="#84b7d0" d="M 102.5,274.5 C 102.833,274.5 103.167,274.5 103.5,274.5C 103.5,281.167 103.5,287.833 103.5,294.5C 106.898,294.82 110.232,294.487 113.5,293.5C 112.757,292.818 112.091,292.151 111.5,291.5C 112.5,291.5 113.5,291.5 114.5,291.5C 114.5,292.833 114.5,294.167 114.5,295.5C 110.5,295.5 106.5,295.5 102.5,295.5C 102.5,288.5 102.5,281.5 102.5,274.5 Z"/></g>
<g><path style="opacity:1" fill="#eff8fa" d="M 155.5,274.5 C 156.166,277.028 156.832,279.694 157.5,282.5C 158.182,281.757 158.849,281.091 159.5,280.5C 158.155,291.989 163.155,296.823 174.5,295C 177.386,293.615 179.386,291.449 180.5,288.5C 181.434,287.432 181.768,286.099 181.5,284.5C 177.833,284.5 174.167,284.5 170.5,284.5C 170.866,283.305 171.699,282.639 173,282.5C 176.064,282.923 179.231,282.923 182.5,282.5C 183.636,281.319 183.969,277.986 183.5,272.5C 186.082,272.025 188.082,272.692 189.5,274.5C 187.833,274.5 186.167,274.5 184.5,274.5C 184.5,281.5 184.5,288.5 184.5,295.5C 185.833,295.5 187.167,295.5 188.5,295.5C 188.334,291.154 188.501,286.821 189,282.5C 191.667,286.5 194.333,290.5 197,294.5C 198.356,295.38 199.856,295.714 201.5,295.5C 201.5,288.5 201.5,281.5 201.5,274.5C 202.49,280.31 202.823,286.31 202.5,292.5C 203.5,292.5 204.5,292.5 205.5,292.5C 205.5,293.5 205.5,294.5 205.5,295.5C 206.833,295.5 208.167,295.5 209.5,295.5C 209.5,294.167 209.5,292.833 209.5,291.5C 212.85,291.335 216.183,291.502 219.5,292C 220.337,293.011 220.67,294.178 220.5,295.5C 221.833,295.5 223.167,295.5 224.5,295.5C 224.127,292.426 223.461,289.426 222.5,286.5C 224.083,286.434 225.75,286.767 227.5,287.5C 227.5,290.167 227.5,292.833 227.5,295.5C 229.167,295.5 230.833,295.5 232.5,295.5C 232.183,291.298 232.517,287.298 233.5,283.5C 236.072,286.969 238.406,290.636 240.5,294.5C 241.689,295.429 243.022,295.762 244.5,295.5C 244.5,288.5 244.5,281.5 244.5,274.5C 245.787,282.705 245.787,291.038 244.5,299.5C 242.167,299.5 239.833,299.5 237.5,299.5C 237.5,304.167 237.5,308.833 237.5,313.5C 236.521,310.375 236.187,307.042 236.5,303.5C 235.5,303.5 234.5,303.5 233.5,303.5C 233.813,307.042 233.479,310.375 232.5,313.5C 232.5,309.833 232.5,306.167 232.5,302.5C 233.5,302.5 234.5,302.5 235.5,302.5C 235.5,301.5 235.5,300.5 235.5,299.5C 232.833,299.5 230.167,299.5 227.5,299.5C 227.5,300.5 227.5,301.5 227.5,302.5C 226.833,306.167 226.167,309.833 225.5,313.5C 225.5,308.833 225.5,304.167 225.5,299.5C 224.5,299.5 223.5,299.5 222.5,299.5C 223.252,309.614 221.585,309.947 217.5,300.5C 216.432,299.566 215.099,299.232 213.5,299.5C 213.5,303.833 213.5,308.167 213.5,312.5C 212.739,313.391 211.739,314.058 210.5,314.5C 207.705,312.386 204.705,312.052 201.5,313.5C 199.95,314.72 198.284,314.72 196.5,313.5C 196.5,308.833 196.5,304.167 196.5,299.5C 195.5,299.5 194.5,299.5 193.5,299.5C 193.664,302.187 193.497,304.854 193,307.5C 191.045,305.089 189.211,302.589 187.5,300C 186.552,299.517 185.552,299.351 184.5,299.5C 184.5,300.5 184.5,301.5 184.5,302.5C 182.875,305.891 181.875,309.558 181.5,313.5C 181.5,308.833 181.5,304.167 181.5,299.5C 180.5,299.5 179.5,299.5 178.5,299.5C 179.302,309.78 177.802,310.113 174,300.5C 172.989,299.663 171.822,299.33 170.5,299.5C 170.5,304.167 170.5,308.833 170.5,313.5C 171.5,313.5 172.5,313.5 173.5,313.5C 172.081,314.451 170.415,314.784 168.5,314.5C 168.649,313.448 168.483,312.448 168,311.5C 166.367,314.148 164.033,315.481 161,315.5C 158.119,314.972 155.285,314.306 152.5,313.5C 152.167,309.5 151.833,309.5 151.5,313.5C 150.167,313.5 148.833,313.5 147.5,313.5C 146.081,314.451 144.415,314.784 142.5,314.5C 143.823,311.719 143.656,309.053 142,306.5C 141.683,308.301 141.016,308.634 140,307.5C 139.503,309.81 139.337,312.143 139.5,314.5C 138.209,314.737 137.209,314.404 136.5,313.5C 137.497,313.53 138.164,313.03 138.5,312C 137.444,307.668 136.111,303.501 134.5,299.5C 133.167,299.5 131.833,299.5 130.5,299.5C 129.278,303.668 127.944,307.835 126.5,312C 126.836,313.03 127.503,313.53 128.5,313.5C 124.167,314.833 119.833,314.833 115.5,313.5C 116.5,313.5 117.5,313.5 118.5,313.5C 118.34,311.801 118.506,310.134 119,308.5C 120.167,310.167 121.333,311.833 122.5,313.5C 123.848,311.389 123.515,309.555 121.5,308C 125.138,302.113 123.472,299.279 116.5,299.5C 117.263,298.732 118.263,298.232 119.5,298C 118.748,297.329 118.414,296.496 118.5,295.5C 119.833,295.5 121.167,295.5 122.5,295.5C 121.986,285.416 123.652,285.25 127.5,295C 128.944,295.781 130.277,295.614 131.5,294.5C 130.167,291.833 128.833,289.167 127.5,286.5C 130.077,284.08 131.077,281.08 130.5,277.5C 131.266,279.684 131.933,282.018 132.5,284.5C 129.904,287.471 130.238,290.137 133.5,292.5C 134.167,286.346 134.833,280.346 135.5,274.5C 140.84,273.719 146.34,273.052 152,272.5C 153.699,272.387 154.866,273.053 155.5,274.5 Z"/></g>
<g><path style="opacity:1" fill="#61a6d0" d="M 228.5,274.5 C 229.978,274.238 231.311,274.571 232.5,275.5C 235.255,278.917 237.588,282.583 239.5,286.5C 239.56,287.043 239.893,287.376 240.5,287.5C 241.492,283.217 241.826,278.884 241.5,274.5C 242.5,274.5 243.5,274.5 244.5,274.5C 244.5,281.5 244.5,288.5 244.5,295.5C 243.022,295.762 241.689,295.429 240.5,294.5C 238.406,290.636 236.072,286.969 233.5,283.5C 233.44,282.957 233.107,282.624 232.5,282.5C 231.833,286.5 231.167,290.5 230.5,294.5C 230.167,294.167 229.833,293.833 229.5,293.5C 228.54,287.227 228.207,280.893 228.5,274.5 Z"/></g>
<g><path style="opacity:1" fill="#68aad4" d="M 189.5,274.5 C 191.227,278.948 193.727,282.948 197,286.5C 197.499,282.514 197.666,278.514 197.5,274.5C 198.833,274.5 200.167,274.5 201.5,274.5C 201.5,281.5 201.5,288.5 201.5,295.5C 199.856,295.714 198.356,295.38 197,294.5C 194.333,290.5 191.667,286.5 189,282.5C 188.501,286.821 188.334,291.154 188.5,295.5C 187.167,295.5 185.833,295.5 184.5,295.5C 184.5,288.5 184.5,281.5 184.5,274.5C 186.167,274.5 187.833,274.5 189.5,274.5 Z"/></g>
<g><path style="opacity:1" fill="#69abd2" d="M 222.5,286.5 C 223.461,289.426 224.127,292.426 224.5,295.5C 223.167,295.5 221.833,295.5 220.5,295.5C 220.67,294.178 220.337,293.011 219.5,292C 216.183,291.502 212.85,291.335 209.5,291.5C 209.5,292.833 209.5,294.167 209.5,295.5C 208.167,295.5 206.833,295.5 205.5,295.5C 205.5,294.5 205.5,293.5 205.5,292.5C 207.542,286.745 209.875,281.078 212.5,275.5C 214.167,274.167 215.833,274.167 217.5,275.5C 219.006,279.399 220.672,283.065 222.5,286.5 Z"/></g>
<g><path style="opacity:1" fill="#9cc8df" d="M 228.5,274.5 C 228.207,280.893 228.54,287.227 229.5,293.5C 229.833,293.833 230.167,294.167 230.5,294.5C 231.167,290.5 231.833,286.5 232.5,282.5C 233.107,282.624 233.44,282.957 233.5,283.5C 232.517,287.298 232.183,291.298 232.5,295.5C 230.833,295.5 229.167,295.5 227.5,295.5C 227.5,292.833 227.5,290.167 227.5,287.5C 227.182,282.968 227.515,278.634 228.5,274.5 Z"/></g>
<g><path style="opacity:1" fill="#d6eef7" d="M 214.5,280.5 C 216.293,282.426 217.293,284.759 217.5,287.5C 215.833,287.5 214.167,287.5 212.5,287.5C 212.767,285.035 213.434,282.701 214.5,280.5 Z"/></g>
<g><path style="opacity:1" fill="#a0cade" d="M 170.5,284.5 C 174.167,284.5 177.833,284.5 181.5,284.5C 181.768,286.099 181.434,287.432 180.5,288.5C 180.5,287.5 180.5,286.5 180.5,285.5C 177.167,285.5 173.833,285.5 170.5,285.5C 170.5,286.5 170.5,287.5 170.5,288.5C 169.167,287.167 169.167,285.833 170.5,284.5 Z"/></g>
<g><path style="opacity:1" fill="#6aaad1" d="M 135.5,274.5 C 143.81,272.337 147.644,275.337 147,283.5C 145.152,286.041 142.652,287.041 139.5,286.5C 139.5,289.5 139.5,292.5 139.5,295.5C 138.167,295.5 136.833,295.5 135.5,295.5C 135.5,288.5 135.5,281.5 135.5,274.5 Z"/></g>
<g><path style="opacity:1" fill="#daf4fb" d="M 139.5,278.5 C 140.833,278.5 142.167,278.5 143.5,278.5C 143.5,279.833 143.5,281.167 143.5,282.5C 142.167,282.5 140.833,282.5 139.5,282.5C 139.5,281.167 139.5,279.833 139.5,278.5 Z"/></g>
<g><path style="opacity:1" fill="#67a8d1" d="M 170.5,288.5 C 170.5,287.5 170.5,286.5 170.5,285.5C 173.833,285.5 177.167,285.5 180.5,285.5C 180.5,286.5 180.5,287.5 180.5,288.5C 179.386,291.449 177.386,293.615 174.5,295C 163.155,296.823 158.155,291.989 159.5,280.5C 164.027,273.384 170.027,271.884 177.5,276C 178.93,277.88 178.596,279.38 176.5,280.5C 172.295,276.554 168.128,276.554 164,280.5C 162.167,289.333 165.667,292.833 174.5,291C 174.957,290.586 175.291,290.086 175.5,289.5C 173.955,288.548 172.288,288.215 170.5,288.5 Z"/></g>
<g><path style="opacity:1" fill="#6eabd2" d="M 155.5,274.5 C 155.5,281.5 155.5,288.5 155.5,295.5C 154.167,295.5 152.833,295.5 151.5,295.5C 151.5,288.5 151.5,281.5 151.5,274.5C 152.833,274.5 154.167,274.5 155.5,274.5 Z"/></g>
<g><path style="opacity:1" fill="#a8d1e7" d="M 241.5,274.5 C 241.826,278.884 241.492,283.217 240.5,287.5C 239.893,287.376 239.56,287.043 239.5,286.5C 240.167,282.5 240.833,278.5 241.5,274.5 Z"/></g>
<g><path style="opacity:1" fill="#7eb2d0" d="M 86.5,299.5 C 87.5,299.5 88.5,299.5 89.5,299.5C 89.5,303.5 89.5,307.5 89.5,311.5C 90.675,311.281 91.675,311.614 92.5,312.5C 90.604,313.466 88.604,313.799 86.5,313.5C 86.5,308.833 86.5,304.167 86.5,299.5 Z"/></g>
<g><path style="opacity:1" fill="#b3d8ec" d="M 217.5,300.5 C 216.5,300.5 215.5,300.5 214.5,300.5C 214.5,304.833 214.5,309.167 214.5,313.5C 213.833,313.5 213.5,313.167 213.5,312.5C 213.5,308.167 213.5,303.833 213.5,299.5C 215.099,299.232 216.432,299.566 217.5,300.5 Z"/></g>
<g><path style="opacity:1" fill="#6baad2" d="M 225.5,313.5 C 221.921,311.921 219.254,309.255 217.5,305.5C 217.08,308.616 216.08,311.283 214.5,313.5C 214.5,309.167 214.5,304.833 214.5,300.5C 215.5,300.5 216.5,300.5 217.5,300.5C 221.585,309.947 223.252,309.614 222.5,299.5C 223.5,299.5 224.5,299.5 225.5,299.5C 225.5,304.167 225.5,308.833 225.5,313.5 Z"/></g>
<g><path style="opacity:1" fill="#70acd1" d="M 116.5,299.5 C 123.472,299.279 125.138,302.113 121.5,308C 123.515,309.555 123.848,311.389 122.5,313.5C 121.333,311.833 120.167,310.167 119,308.5C 118.506,310.134 118.34,311.801 118.5,313.5C 117.5,313.5 116.5,313.5 115.5,313.5C 115.181,308.637 115.514,303.97 116.5,299.5 Z"/></g>
<g><path style="opacity:1" fill="#bfdded" d="M 118.5,302.5 C 119.5,302.5 120.5,302.5 121.5,302.5C 121.5,303.5 121.5,304.5 121.5,305.5C 120.5,305.5 119.5,305.5 118.5,305.5C 118.5,304.5 118.5,303.5 118.5,302.5 Z"/></g>
<g><path style="opacity:1" fill="#70abce" d="M 147.5,313.5 C 146.5,313.5 145.5,313.5 144.5,313.5C 145.076,308.9 144.076,304.734 141.5,301C 141.85,299.743 142.517,299.409 143.5,300C 145.552,304.77 146.886,304.603 147.5,299.5C 148.5,299.5 149.5,299.5 150.5,299.5C 150.496,301.842 149.663,303.842 148,305.5C 147.503,308.146 147.336,310.813 147.5,313.5 Z"/></g>
<g><path style="opacity:1" fill="#71add2" d="M 181.5,313.5 C 180.325,313.719 179.325,313.386 178.5,312.5C 174.476,304.421 172.81,304.754 173.5,313.5C 172.5,313.5 171.5,313.5 170.5,313.5C 170.5,308.833 170.5,304.167 170.5,299.5C 171.822,299.33 172.989,299.663 174,300.5C 177.802,310.113 179.302,309.78 178.5,299.5C 179.5,299.5 180.5,299.5 181.5,299.5C 181.5,304.167 181.5,308.833 181.5,313.5 Z"/></g>
<g><path style="opacity:1" fill="#76afd3" d="M 232.5,313.5 C 231.5,313.5 230.5,313.5 229.5,313.5C 230.08,309.351 229.414,305.684 227.5,302.5C 227.5,301.5 227.5,300.5 227.5,299.5C 230.167,299.5 232.833,299.5 235.5,299.5C 235.5,300.5 235.5,301.5 235.5,302.5C 234.5,302.5 233.5,302.5 232.5,302.5C 232.5,306.167 232.5,309.833 232.5,313.5 Z"/></g>
<g><path style="opacity:1" fill="#6ca9cd" d="M 244.5,299.5 C 244.5,300.5 244.5,301.5 244.5,302.5C 237.833,303.167 237.833,303.833 244.5,304.5C 244.5,305.5 244.5,306.5 244.5,307.5C 242.833,307.5 241.167,307.5 239.5,307.5C 239.5,308.833 239.5,310.167 239.5,311.5C 241.288,311.215 242.955,311.548 244.5,312.5C 242.257,313.474 239.924,313.808 237.5,313.5C 237.5,308.833 237.5,304.167 237.5,299.5C 239.833,299.5 242.167,299.5 244.5,299.5 Z"/></g>
<g><path style="opacity:1" fill="#75adcb" d="M 157.5,299.5 C 165.489,298.989 168.655,302.656 167,310.5C 157.423,316.501 153.09,313.834 154,302.5C 155.145,301.364 156.312,300.364 157.5,299.5 Z"/></g>
<g><path style="opacity:1" fill="#77afd2" d="M 196.5,313.5 C 195.448,313.649 194.448,313.483 193.5,313C 191.789,310.411 189.955,307.911 188,305.5C 187.503,308.146 187.336,310.813 187.5,313.5C 186.5,313.5 185.5,313.5 184.5,313.5C 184.5,309.833 184.5,306.167 184.5,302.5C 184.5,301.5 184.5,300.5 184.5,299.5C 185.552,299.351 186.552,299.517 187.5,300C 189.211,302.589 191.045,305.089 193,307.5C 193.497,304.854 193.664,302.187 193.5,299.5C 194.5,299.5 195.5,299.5 196.5,299.5C 196.5,304.167 196.5,308.833 196.5,313.5 Z"/></g>
<g><path style="opacity:1" fill="#70aacf" d="M 99.5,299.5 C 100.822,299.33 101.989,299.663 103,300.5C 103.819,304.794 105.319,308.794 107.5,312.5C 106.675,313.386 105.675,313.719 104.5,313.5C 104.5,312.5 104.5,311.5 104.5,310.5C 102.473,310.338 100.473,310.505 98.5,311C 97.6921,312.706 96.3588,313.539 94.5,313.5C 95.7842,308.644 97.4509,303.977 99.5,299.5 Z"/></g>
<g><path style="opacity:1" fill="#caebf6" d="M 100.5,304.5 C 102.104,305.287 102.771,306.62 102.5,308.5C 101.5,308.5 100.5,308.5 99.5,308.5C 99.4326,307.041 99.7659,305.708 100.5,304.5 Z"/></g>
<g><path style="opacity:1" fill="#ecf9fa" d="M 157.5,302.5 C 164.676,301.985 166.342,304.818 162.5,311C 160.299,311.825 158.466,311.325 157,309.5C 156.297,307.071 156.463,304.738 157.5,302.5 Z"/></g>
<g><path style="opacity:1" fill="#72add2" d="M 201.5,313.5 C 200.351,313.209 199.684,312.376 199.5,311C 200.662,307.513 201.829,304.013 203,300.5C 204.356,299.62 205.856,299.286 207.5,299.5C 208.022,304.067 209.355,308.4 211.5,312.5C 211.167,312.833 210.833,313.167 210.5,313.5C 208.406,310.969 205.739,310.136 202.5,311C 201.748,311.671 201.414,312.504 201.5,313.5 Z"/></g>
<g><path style="opacity:1" fill="#77afd1" d="M 136.5,313.5 C 136.586,312.504 136.252,311.671 135.5,311C 133.527,310.505 131.527,310.338 129.5,310.5C 129.737,311.791 129.404,312.791 128.5,313.5C 127.503,313.53 126.836,313.03 126.5,312C 127.944,307.835 129.278,303.668 130.5,299.5C 131.833,299.5 133.167,299.5 134.5,299.5C 136.111,303.501 137.444,307.668 138.5,312C 138.164,313.03 137.497,313.53 136.5,313.5 Z"/></g>
<g><path style="opacity:1" fill="#dbf2f8" d="M 244.5,299.5 C 245.473,299.987 246.473,300.487 247.5,301C 245.887,303.228 245.22,305.728 245.5,308.5C 244.022,308.238 242.689,308.571 241.5,309.5C 243.045,310.452 244.712,310.785 246.5,310.5C 246.714,312.144 246.38,313.644 245.5,315C 242.581,315.433 239.914,314.933 237.5,313.5C 239.924,313.808 242.257,313.474 244.5,312.5C 242.955,311.548 241.288,311.215 239.5,311.5C 239.5,310.167 239.5,308.833 239.5,307.5C 241.167,307.5 242.833,307.5 244.5,307.5C 244.5,306.5 244.5,305.5 244.5,304.5C 237.833,303.833 237.833,303.167 244.5,302.5C 244.5,301.5 244.5,300.5 244.5,299.5 Z"/></g>
</svg>
