<svg height="660" width="600" xmlns="http://www.w3.org/2000/svg" xmlns:xlink="http://www.w3.org/1999/xlink"><radialGradient id="a" cx="221" cy="226" gradientTransform="matrix(1.353218 0 0 1.348928 -77 -85)" gradientUnits="userSpaceOnUse" r="300"><stop offset="0" stop-color="#fff" stop-opacity=".31"/><stop offset=".19" stop-color="#fff" stop-opacity=".25"/><stop offset=".6" stop-color="#6b6b6b" stop-opacity=".13"/><stop offset="1" stop-opacity=".13"/></radialGradient><path d="m1.5 1.5h597v278.5a570 445 0 0 1 -298.5 378.5 570 445 0 0 1 -298.5-378.5z" fill="#fcef3c"/><path d="m1.5 1.5v180h208.5v429.47266a570 444.91306 0 0 0 90 47.39843 570 444.91306 0 0 0 90-47.87304v-428.99805h208.5v-180z" fill="#e20909" stroke="#000" stroke-linecap="round" stroke-linejoin="round" stroke-width="3"/><g fill="#fcef3c" stroke="#000" stroke-width="4.084646" transform="matrix(.48963847 0 0 .48963847 300 110)"><path d="m18.25-183.64a32 35.4 0 0 0 57.75 15.44l20.95 12.2a215 215 0 0 0 -65.85 124.9 215 215 0 0 0 125.9-65.85l11.2 20.95a35.4 32 0 0 0 15.44 57.75v36.5a35.4 32 0 0 0 -15.44 57.75l-12.2 20.95a215 215 0 0 0 -124.9-65.85 215 215 0 0 0 65.85 124.9l-20.95 12.2a32 35.4 0 0 0 -57.75 15.44h-36.5a32 35.4 0 0 0 -57.75-15.44l-20.95-11.2a215 215 0 0 0 65.85-125.9 215 215 0 0 0 -124.9 65.85l-12.2-20.95a35.4 32 0 0 0 -15.44-57.75v-36.5a35.4 32 0 0 0 15.44-57.75l11.2-20.95a215 215 0 0 0 125.9 65.85 215 215 0 0 0 -65.85-125.9l20.95-11.2a32 35.4 0 0 0 57.75-15.44zm-18.25 17.76a52 52 0 0 1 -46.08 34.12 225 225 0 0 1 39.83 125.51 225 225 0 0 1 -125.51-39.83 52 52 0 0 1 -34.12 46.73 52 52 0 0 1 34.12 45.43 225 225 0 0 1 125.51-39.83 225 225 0 0 1 -39.83 125.51 52 52 0 0 1 46.69 34.12 52 52 0 0 1 45.47-34.12 225 225 0 0 1 -39.83-125.51 225 225 0 0 1 125.51 39.83 52 52 0 0 1 34.12-46.04 52 52 0 0 1 -34.12-46.12 225 225 0 0 1 -125.51 39.83 225 225 0 0 1 39.83-125.51 52 52 0 0 1 -46.08-34.12z" fill="#fcef3c" stroke="#000" stroke-width="4.084646"/><g id="b" fill="#fcef3c" stroke="#000" stroke-width="4.084646"><g id="c" fill="#fcef3c" stroke="#000" stroke-width="4.084646"><circle cx="-90.830002" cy="157.2" fill="#fcef3c" r="20.629999" stroke="#000" stroke-width="4.084646"/><circle cy="181.56" fill="#fcef3c" r="20.629999" stroke="#000" stroke-width="4.084646"/><circle cx="90.830002" cy="157.2" fill="#fcef3c" r="20.629999" stroke="#000" stroke-width="4.084646"/></g><use fill="#fcef3c" height="100%" stroke="#000" stroke-width="4.084646" transform="scale(1 -1)" width="100%" xlink:href="#c"/></g><use fill="#fcef3c" height="100%" stroke="#000" stroke-width="4.084646" transform="rotate(90)" width="100%" xlink:href="#b"/></g><path d="m1.5 1.5h597v278.5a570 445 0 0 1 -298.5 378.5 570 445 0 0 1 -298.5-378.5z" fill="url(#a)"/><path d="m1.5 1.5001621h597v278.4455879a570 444.91306 0 0 1 -298.5 378.42606 570 444.91306 0 0 1 -298.5-378.42606z" fill="none" stroke="#000" stroke-width="3"/></svg>